<svg width="2034" height="2057" viewBox="0 0 2034 2057" fill="none" xmlns="http://www.w3.org/2000/svg">
<g clip-path="url(#clip0_0_776)">
<circle opacity="0.3" cx="1247.12" cy="706.941" r="384.772" stroke="#D18D0E" stroke-width="1.38274"/>
<g opacity="0.75" filter="url(#filter0_f_0_776)">
<circle cx="1247.12" cy="706.942" r="153.418" fill="#D18D0E"/>
<circle cx="1247.12" cy="706.942" r="153.418" fill="url(#paint0_radial_0_776)"/>
<circle cx="1247.12" cy="706.942" r="152.726" stroke="#D18D0E" stroke-width="1.38274"/>
</g>
<g opacity="0.75">
<circle cx="1247.12" cy="706.942" r="217.323" fill="#D18D0E"/>
<circle cx="1247.12" cy="706.942" r="217.323" fill="url(#paint1_radial_0_776)"/>
<circle cx="1247.12" cy="706.942" r="217.323" stroke="#D18D0E" stroke-width="1.38274"/>
</g>
<circle opacity="0.15" cx="1247.12" cy="706.941" r="524.62" stroke="#D18D0E" stroke-width="1.38274"/>
<circle opacity="0.5" cx="1247.13" cy="706.942" r="705.599" stroke="#D18D0E" stroke-opacity="0.1" stroke-width="1.38274"/>
</g>
<g opacity="0.75" filter="url(#filter1_f_0_776)">
<ellipse cx="1220.71" cy="776.349" rx="271.513" ry="194.153" transform="rotate(13.5265 1220.71 776.349)" fill="#D18D0E"/>
<path d="M1484.02 839.693C1471.55 891.547 1430.85 931.484 1375 954.093C1319.16 976.701 1248.23 981.952 1175.46 964.445C1102.69 946.938 1041.91 910.002 1002.46 864.471C963.009 818.938 944.926 764.859 957.4 713.006C969.875 661.152 1010.57 621.215 1066.42 598.606C1122.26 575.998 1193.19 570.747 1265.96 588.254C1338.73 605.76 1399.51 642.697 1438.96 688.228C1478.41 733.761 1496.49 787.839 1484.02 839.693Z" stroke="#D18D0E" stroke-width="1.38274"/>
</g>
<g style="mix-blend-mode:difference" opacity="0.25" filter="url(#filter2_f_0_776)">
<ellipse cx="818.227" cy="1220.04" rx="271.513" ry="292.899" transform="rotate(13.5265 818.227 1220.04)" fill="#D18D0E"/>
<path d="M1081.54 1283.38C1043.78 1440.34 895.256 1539.11 749.881 1504.14C604.506 1469.17 517.159 1313.65 554.917 1156.7C592.675 999.741 741.198 900.964 886.573 935.936C1031.95 970.909 1119.29 1126.43 1081.54 1283.38Z" stroke="#D18D0E" stroke-width="1.38274"/>
</g>
<g opacity="0.65" filter="url(#filter3_f_0_776)">
<ellipse cx="1115.56" cy="686.993" rx="26.2097" ry="69.8216" transform="rotate(13.5265 1115.56 686.993)" fill="#D18D0E"/>
<path d="M1140.37 692.962C1135.87 711.648 1128.96 727.851 1121.45 738.942C1117.7 744.49 1113.81 748.726 1110.03 751.362C1106.25 753.999 1102.64 754.989 1099.39 754.206C1096.13 753.422 1093.37 750.9 1091.2 746.832C1089.03 742.764 1087.5 737.224 1086.68 730.575C1085.03 717.283 1086.25 699.711 1090.75 681.024C1095.24 662.338 1102.15 646.135 1109.66 635.044C1113.41 629.496 1117.3 625.26 1121.08 622.624C1124.86 619.987 1128.47 618.997 1131.72 619.78C1134.98 620.564 1137.74 623.086 1139.91 627.154C1142.08 631.222 1143.61 636.762 1144.44 643.411C1146.08 656.703 1144.86 674.275 1140.37 692.962Z" stroke="#D18D0E" stroke-width="1.38274"/>
</g>
<g opacity="0.75" filter="url(#filter4_f_0_776)">
<ellipse cx="1394.74" cy="624.559" rx="26.2097" ry="69.8216" transform="rotate(13.5265 1394.74 624.559)" fill="#D18D0E"/>
<path d="M1419.55 630.528C1415.05 649.214 1408.14 665.418 1400.63 676.508C1396.88 682.056 1392.99 686.292 1389.21 688.928C1385.43 691.565 1381.82 692.555 1378.57 691.772C1375.31 690.988 1372.55 688.466 1370.38 684.398C1368.21 680.331 1366.68 674.79 1365.86 668.141C1364.21 654.849 1365.43 637.277 1369.93 618.591C1374.42 599.904 1381.33 583.701 1388.84 572.61C1392.59 567.063 1396.48 562.826 1400.26 560.19C1404.04 557.553 1407.65 556.563 1410.91 557.346C1414.16 558.13 1416.92 560.652 1419.09 564.72C1421.26 568.788 1422.79 574.328 1423.62 580.977C1425.26 594.269 1424.04 611.841 1419.55 630.528Z" stroke="#D18D0E" stroke-width="1.38274"/>
</g>
<g opacity="0.55" filter="url(#filter5_f_0_776)">
<ellipse cx="1418.17" cy="739.504" rx="26.2097" ry="69.8216" transform="rotate(13.5265 1418.17 739.504)" fill="#D18D0E"/>
<path d="M1442.98 745.473C1438.49 764.16 1431.58 780.363 1424.07 791.453C1420.31 797.001 1416.43 801.238 1412.65 803.874C1408.87 806.51 1405.26 807.501 1402 806.717C1398.74 805.934 1395.98 803.411 1393.81 799.343C1391.65 795.276 1390.11 789.736 1389.29 783.087C1387.65 769.794 1388.86 752.222 1393.36 733.536C1397.86 714.849 1404.76 698.646 1412.27 687.555C1416.03 682.008 1419.91 677.771 1423.69 675.135C1427.48 672.499 1431.08 671.508 1434.34 672.292C1437.6 673.075 1440.36 675.597 1442.53 679.666C1444.7 683.733 1446.23 689.273 1447.05 695.922C1448.69 709.215 1447.48 726.786 1442.98 745.473Z" stroke="#D18D0E" stroke-width="1.38274"/>
</g>
<g opacity="0.35" filter="url(#filter6_f_0_776)">
<ellipse cx="1154.34" cy="540.891" rx="21.2058" ry="42.573" transform="rotate(13.5265 1154.34 540.891)" fill="#D18D0E"/>
<path d="M1174.28 545.689C1171.55 557.038 1166.8 566.728 1161.35 573.222C1155.87 579.753 1149.84 582.886 1144.54 581.611C1139.24 580.336 1135.3 574.807 1133.39 566.498C1131.49 558.234 1131.66 547.442 1134.39 536.093C1137.12 524.744 1141.88 515.055 1147.33 508.56C1152.81 502.029 1158.84 498.896 1164.14 500.171C1169.44 501.446 1173.37 506.975 1175.29 515.285C1177.19 523.548 1177.02 534.341 1174.28 545.689Z" stroke="#D18D0E" stroke-width="1.38274"/>
</g>
<g opacity="0.45" filter="url(#filter7_f_0_776)">
<ellipse cx="1387.28" cy="848.964" rx="26.2097" ry="33.187" transform="rotate(13.5265 1387.28 848.964)" fill="#D18D0E"/>
<path d="M1412.09 854.933C1407.86 872.538 1393.25 883.821 1379.68 880.558C1366.12 877.296 1358.24 860.601 1362.47 842.996C1366.71 825.39 1381.32 814.107 1394.88 817.37C1408.45 820.633 1416.33 837.327 1412.09 854.933Z" stroke="#D18D0E" stroke-width="1.38274"/>
</g>
<g opacity="0.21">
<g clip-path="url(#clip1_0_776)" filter="url(#filter8_dddddd_0_776)">
<path d="M1244.82 487.838C1292.1 487.838 1338.12 503.071 1376.07 531.28C1414.01 559.489 1441.86 599.172 1455.49 644.449C1469.11 689.726 1467.78 738.187 1451.7 782.652C1435.63 827.116 1405.65 865.217 1366.22 891.309L1244.82 707.838V487.838Z" fill="#D18D0E"/>
<path d="M1366.22 891.308C1332.5 913.621 1293.28 926.209 1252.87 927.689C1212.46 929.17 1172.43 919.485 1137.16 899.699C1101.9 879.913 1072.77 850.79 1052.98 815.531C1033.18 780.272 1023.49 740.24 1024.96 699.831L1244.82 707.837L1366.22 891.308Z" fill="#FCB232"/>
<path d="M1024.96 699.832C1026.14 667.578 1034.39 635.978 1049.15 607.273L1244.82 707.838L1024.96 699.832Z" fill="#FB892B"/>
<path d="M1049.15 607.274C1061.43 583.382 1077.98 561.941 1097.98 544.012L1244.82 707.839L1049.15 607.274Z" fill="#FC9F2F"/>
<path d="M1097.98 544.01C1117.98 526.081 1141.1 511.967 1166.19 502.367L1244.82 707.837L1097.98 544.01Z" fill="#FBB767"/>
<path d="M1166.19 502.368C1191.28 492.767 1217.91 487.843 1244.78 487.838L1244.82 707.838L1166.19 502.368Z" fill="#FBC78B"/>
</g>
</g>
<g clip-path="url(#clip2_0_776)">
<path d="M1301.76 495.334C1347.43 507.572 1387.94 534.198 1417.29 571.267C1446.64 608.335 1463.27 653.874 1464.71 701.134C1466.15 748.395 1452.33 794.862 1425.29 833.649C1398.25 872.437 1359.44 901.482 1314.6 916.479L1244.82 707.838L1301.76 495.334Z" fill="#D18D0E"/>
<path d="M1314.6 916.477C1276.25 929.303 1235.11 931.311 1195.69 922.283C1156.28 913.254 1120.12 893.538 1091.17 865.299C1062.23 837.06 1041.63 801.391 1031.64 762.21C1021.65 723.03 1022.65 681.852 1034.53 643.202L1244.82 707.837L1314.6 916.477Z" fill="#FCB232"/>
<path d="M1034.52 643.202C1044.01 612.352 1060.16 583.965 1081.84 560.056L1244.82 707.838L1034.52 643.202Z" fill="#FB892B"/>
<path d="M1081.84 560.057C1099.89 540.158 1121.42 523.731 1145.39 511.59L1244.82 707.839L1081.84 560.057Z" fill="#FC9F2F"/>
<path d="M1145.39 511.589C1169.35 499.448 1195.33 491.798 1222.05 489.019L1244.82 707.837L1145.39 511.589Z" fill="#FBB767"/>
<path d="M1222.05 489.019C1248.77 486.239 1275.77 488.376 1301.72 495.324L1244.82 707.838L1222.05 489.019Z" fill="#FBC78B"/>
<rect x="1056.82" y="520.088" width="376" height="376" rx="188" fill="#242424"/>
<rect x="1075.07" y="538.675" width="339.673" height="338.396" rx="169.198" fill="#BF7B15"/>
<rect x="1075.07" y="538.675" width="339.673" height="338.396" rx="169.198" fill="url(#paint2_linear_0_776)" fill-opacity="0.5"/>
<mask id="mask0_0_776" style="mask-type:alpha" maskUnits="userSpaceOnUse" x="1075" y="538" width="340" height="340">
<rect x="1075.07" y="538.675" width="339.673" height="338.396" rx="169.198" fill="#BF7B15"/>
<rect x="1075.07" y="538.675" width="339.673" height="338.396" rx="169.198" fill="url(#paint3_linear_0_776)" fill-opacity="0.5"/>
</mask>
<g mask="url(#mask0_0_776)">
<g filter="url(#filter9_f_0_776)">
<g filter="url(#filter10_b_0_776)">
<rect width="240.046" height="240.046" transform="matrix(-0.866026 -0.499999 -0.866026 0.499999 1461.57 869.13)" fill="#523A15"/>
</g>
<g filter="url(#filter11_b_0_776)">
<rect width="240.046" height="240.045" transform="matrix(-0.866026 -0.499999 -2.76993e-08 1 1461.57 629.091)" fill="#F98600" fill-opacity="0.8"/>
</g>
<g filter="url(#filter12_b_0_776)">
<rect width="240.046" height="240.045" transform="matrix(-0.866026 0.499999 2.76993e-08 1 1253.78 509.071)" fill="#FFAA29"/>
</g>
<g filter="url(#filter13_b_0_776)">
<rect width="240.046" height="240.046" transform="matrix(-0.866026 -0.499999 -0.866026 0.499999 1461.57 629.101)" fill="url(#paint4_linear_0_776)" fill-opacity="0.6"/>
</g>
<g filter="url(#filter14_b_0_776)">
<rect width="240.046" height="240.045" transform="matrix(-0.866026 0.499999 2.76993e-08 1 1461.57 629.101)" fill="url(#paint5_linear_0_776)" fill-opacity="0.6"/>
</g>
<g filter="url(#filter15_b_0_776)">
<rect width="240.046" height="240.045" transform="matrix(-0.866026 -0.499999 -2.76993e-08 1 1253.78 749.119)" fill="url(#paint6_linear_0_776)" fill-opacity="0.4"/>
</g>
</g>
</g>
<rect x="1359.82" y="907.276" width="325.277" height="325.277" rx="162.638" transform="rotate(-165 1359.82 907.276)" fill="#BF7B15"/>
<rect x="1359.82" y="907.276" width="325.277" height="325.277" rx="162.638" transform="rotate(-165 1359.82 907.276)" fill="url(#paint7_linear_0_776)" fill-opacity="0.5"/>
<mask id="mask1_0_776" style="mask-type:alpha" maskUnits="userSpaceOnUse" x="1085" y="548" width="320" height="320">
<rect x="1131.85" y="903.753" width="319.523" height="319.523" rx="159.762" transform="rotate(-105 1131.85 903.753)" fill="#BF7B15"/>
<rect x="1131.85" y="903.753" width="319.523" height="319.523" rx="159.762" transform="rotate(-105 1131.85 903.753)" fill="url(#paint8_linear_0_776)" fill-opacity="0.5"/>
</mask>
<g mask="url(#mask1_0_776)">
<g filter="url(#filter16_f_0_776)">
<g filter="url(#filter17_b_0_776)">
<rect width="240.046" height="240.046" transform="matrix(-0.500001 -0.866025 -1 -1.41582e-06 1373.71 956.994)" fill="#523A15"/>
</g>
<g filter="url(#filter18_b_0_776)">
<rect width="240.046" height="240.045" transform="matrix(-0.500001 -0.866025 -0.5 0.866025 1493.73 749.115)" fill="#F98600" fill-opacity="0.8"/>
</g>
<g filter="url(#filter19_b_0_776)">
<rect width="240.046" height="240.045" transform="matrix(-1 -1.41582e-06 -0.5 0.866025 1373.79 541.278)" fill="#FFAA29"/>
</g>
<g filter="url(#filter20_b_0_776)">
<rect width="240.046" height="240.046" transform="matrix(-0.500001 -0.866025 -1 -1.41582e-06 1493.73 749.123)" fill="url(#paint9_linear_0_776)" fill-opacity="0.6"/>
</g>
<g filter="url(#filter21_b_0_776)">
<rect width="240.046" height="240.045" transform="matrix(-1 -1.41582e-06 -0.5 0.866025 1493.73 749.123)" fill="url(#paint10_linear_0_776)" fill-opacity="0.6"/>
</g>
<g filter="url(#filter22_b_0_776)">
<rect width="240.046" height="240.045" transform="matrix(-0.500001 -0.866025 -0.5 0.866025 1253.77 749.166)" fill="url(#paint11_linear_0_776)" fill-opacity="0.4"/>
</g>
</g>
</g>
<g opacity="0.7">
<rect x="1131.85" y="903.753" width="319.523" height="319.523" rx="159.762" transform="rotate(-105 1131.85 903.753)" fill="#BF7B15"/>
<rect x="1131.85" y="903.753" width="319.523" height="319.523" rx="159.762" transform="rotate(-105 1131.85 903.753)" fill="url(#paint12_linear_0_776)" fill-opacity="0.5"/>
</g>
<path d="M1339.39 677.762H1368.76V687.554H1358.97V736.514H1368.76V746.306H1339.39V736.514H1349.18V687.554H1339.39V677.762Z" fill="#1C1C1C"/>
<path d="M1268.77 677.762H1317.73V687.554H1278.56V707.138H1307.94V716.93H1278.56V746.306H1268.77V677.762Z" fill="#1C1C1C"/>
<path d="M1231.85 736.514V716.93H1202.58V736.514H1231.85ZM1231.85 706.942V687.554H1202.58V706.942H1231.85ZM1192.78 746.306V677.762H1231.95V687.554H1241.74V707.138H1231.95V716.93H1241.74V736.514H1231.95V746.306H1192.78Z" fill="#1C1C1C"/>
<path d="M1146.17 736.514V746.306H1136.38V736.514H1116.8V726.722H1136.38V716.93H1126.59V707.138H1116.8V697.346H1126.59V687.554H1136.38V677.762H1146.17V687.554H1165.76V697.346H1146.17V707.138H1155.97V716.93H1165.76V726.722H1155.97V736.514H1146.17ZM1136.38 707.138V697.346H1126.59V707.138H1136.38ZM1155.97 726.722V716.93H1146.17V726.722H1155.97Z" fill="#1C1C1C"/>
<g style="mix-blend-mode:color-dodge">
<path d="M1335.9 679.508H1365.27V689.3H1355.48V738.26H1365.27V748.052H1335.9V738.26H1345.69V689.3H1335.9V679.508Z" fill="#1C1C1C"/>
<path d="M1265.28 679.508H1314.24V689.3H1275.07V708.884H1304.45V718.676H1275.07V748.052H1265.28V679.508Z" fill="#1C1C1C"/>
<path d="M1228.36 738.26V718.676H1199.08V738.26H1228.36ZM1228.36 708.688V689.3H1199.08V708.688H1228.36ZM1189.29 748.052V679.508H1228.46V689.3H1238.25V708.884H1228.46V718.676H1238.25V738.26H1228.46V748.052H1189.29Z" fill="#1C1C1C"/>
<path d="M1142.68 738.26V748.052H1132.89V738.26H1113.31V728.468H1132.89V718.676H1123.1V708.884H1113.31V699.092H1123.1V689.3H1132.89V679.508H1142.68V689.3H1162.27V699.092H1142.68V708.884H1152.47V718.676H1162.27V728.468H1152.47V738.26H1142.68ZM1132.89 708.884V699.092H1123.1V708.884H1132.89ZM1152.47 728.468V718.676H1142.68V728.468H1152.47Z" fill="#1C1C1C"/>
</g>
<g opacity="0.2">
<mask id="mask2_0_776" style="mask-type:alpha" maskUnits="userSpaceOnUse" x="1116" y="677" width="253" height="70">
<path d="M1339.39 677.762H1368.76V687.554H1358.97V736.514H1368.76V746.306H1339.39V736.514H1349.18V687.554H1339.39V677.762Z" fill="#1C1C1C"/>
<path d="M1268.77 677.762H1317.73V687.554H1278.56V707.138H1307.94V716.93H1278.56V746.306H1268.77V677.762Z" fill="#1C1C1C"/>
<path d="M1231.85 736.514V716.93H1202.58V736.514H1231.85ZM1231.85 706.942V687.554H1202.58V706.942H1231.85ZM1192.78 746.306V677.762H1231.95V687.554H1241.74V707.138H1231.95V716.93H1241.74V736.514H1231.95V746.306H1192.78Z" fill="#1C1C1C"/>
<path d="M1146.17 736.514V746.306H1136.38V736.514H1116.8V726.722H1136.38V716.93H1126.59V707.138H1116.8V697.346H1126.59V687.554H1136.38V677.762H1146.17V687.554H1165.76V697.346H1146.17V707.138H1155.97V716.93H1165.76V726.722H1155.97V736.514H1146.17ZM1136.38 707.138V697.346H1126.59V707.138H1136.38ZM1155.97 726.722V716.93H1146.17V726.722H1155.97Z" fill="#1C1C1C"/>
</mask>
<g mask="url(#mask2_0_776)">
<g filter="url(#filter23_f_0_776)">
<g filter="url(#filter24_b_0_776)">
<rect width="240.046" height="240.046" transform="matrix(-0.500001 -0.866025 -1 -1.41582e-06 1437.96 904.826)" fill="#523A15"/>
</g>
<g filter="url(#filter25_b_0_776)">
<rect width="240.046" height="240.045" transform="matrix(-0.500001 -0.866025 -0.5 0.866025 1557.97 696.947)" fill="#F98600" fill-opacity="0.8"/>
</g>
<g filter="url(#filter26_b_0_776)">
<rect width="240.046" height="240.045" transform="matrix(-1 -1.41582e-06 -0.5 0.866025 1438.03 489.11)" fill="#FFAA29"/>
</g>
<g filter="url(#filter27_b_0_776)">
<rect width="240.046" height="240.046" transform="matrix(-0.500001 -0.866025 -1 -1.41582e-06 1557.97 696.955)" fill="url(#paint13_linear_0_776)" fill-opacity="0.6"/>
</g>
<g filter="url(#filter28_b_0_776)">
<rect width="240.046" height="240.045" transform="matrix(-1 -1.41582e-06 -0.5 0.866025 1557.97 696.955)" fill="url(#paint14_linear_0_776)" fill-opacity="0.6"/>
</g>
<g filter="url(#filter29_b_0_776)">
<rect width="240.046" height="240.045" transform="matrix(-0.500001 -0.866025 -0.5 0.866025 1318.01 696.998)" fill="url(#paint15_linear_0_776)" fill-opacity="0.4"/>
</g>
</g>
</g>
</g>
</g>
<path d="M1298.15 463.338C1298.15 461.865 1299.34 460.671 1300.82 460.671C1302.29 460.671 1303.48 461.865 1303.48 463.338C1303.48 464.81 1302.29 466.004 1300.82 466.004C1299.34 466.004 1298.15 464.81 1298.15 463.338ZM1280.32 463.338L1279.96 462.984L1280.11 462.838H1280.32V463.338ZM1300.82 463.838H1280.32V462.838H1300.82V463.838ZM1280.67 463.691L1269.17 475.191L1268.46 474.484L1279.96 462.984L1280.67 463.691Z" fill="#E7D1A8"/>
<path d="M1502.65 707.088C1502.65 708.56 1503.84 709.754 1505.32 709.754C1506.79 709.754 1507.98 708.56 1507.98 707.088C1507.98 705.615 1506.79 704.421 1505.32 704.421C1503.84 704.421 1502.65 705.615 1502.65 707.088ZM1505.32 706.588H1484.82V707.588H1505.32V706.588Z" fill="#E7D1A8"/>
<path d="M1514.49 703.088V694.568H1519.2C1521.1 694.568 1522.17 695.492 1522.17 697.172C1522.17 698.816 1521.1 699.824 1519.2 699.824H1516.1V703.088H1514.49ZM1519.11 696.008H1516.1V698.384H1519.11C1520.05 698.384 1520.52 697.904 1520.52 697.196C1520.52 696.428 1520.06 696.008 1519.11 696.008ZM1526.37 703.088V694.568H1531.14C1533 694.568 1534.05 695.444 1534.05 697.112C1534.05 698.264 1533.45 699.08 1532.37 699.416L1534.38 703.088H1532.67L1530.74 699.584H1527.98V703.088H1526.37ZM1531 695.996H1527.98V698.18H1531C1531.93 698.18 1532.4 697.844 1532.4 697.112C1532.4 696.332 1531.93 695.996 1531 695.996ZM1542.48 703.232C1539.93 703.232 1538.02 701.384 1538.02 698.828C1538.02 696.272 1539.95 694.424 1542.48 694.424C1545.02 694.424 1546.95 696.272 1546.95 698.828C1546.95 701.372 1545.02 703.232 1542.48 703.232ZM1542.48 701.768C1544.19 701.768 1545.3 700.46 1545.3 698.828C1545.3 697.208 1544.19 695.888 1542.48 695.888C1540.79 695.888 1539.68 697.208 1539.68 698.828C1539.68 700.472 1540.78 701.768 1542.48 701.768ZM1550.21 696.008V694.568H1558.59V696.008H1555.2V703.088H1553.59V696.008H1550.21ZM1566.31 703.232C1563.76 703.232 1561.85 701.384 1561.85 698.828C1561.85 696.272 1563.78 694.424 1566.31 694.424C1568.85 694.424 1570.78 696.272 1570.78 698.828C1570.78 701.372 1568.85 703.232 1566.31 703.232ZM1566.31 701.768C1568.02 701.768 1569.13 700.46 1569.13 698.828C1569.13 697.208 1568.02 695.888 1566.31 695.888C1564.62 695.888 1563.51 697.208 1563.51 698.828C1563.51 700.472 1564.61 701.768 1566.31 701.768ZM1578.92 703.232C1576.42 703.232 1574.62 701.324 1574.62 698.828C1574.62 696.332 1576.42 694.424 1578.92 694.424C1581.55 694.424 1582.66 696.188 1582.89 697.184H1581.23C1580.99 696.728 1580.27 695.9 1578.92 695.9C1577.31 695.9 1576.29 697.232 1576.29 698.828C1576.29 700.424 1577.31 701.756 1578.92 701.756C1580.41 701.756 1581.03 700.892 1581.26 700.46H1582.89C1582.69 701.36 1581.65 703.232 1578.92 703.232ZM1591.06 703.232C1588.5 703.232 1586.6 701.384 1586.6 698.828C1586.6 696.272 1588.53 694.424 1591.06 694.424C1593.59 694.424 1595.52 696.272 1595.52 698.828C1595.52 701.372 1593.59 703.232 1591.06 703.232ZM1591.06 701.768C1592.76 701.768 1593.88 700.46 1593.88 698.828C1593.88 697.208 1592.76 695.888 1591.06 695.888C1589.37 695.888 1588.25 697.208 1588.25 698.828C1588.25 700.472 1589.36 701.768 1591.06 701.768ZM1606.7 701.636V703.088H1599.82V694.568H1601.43V701.636H1606.7ZM1613.88 694.52L1610.68 703.088H1609.65L1612.84 694.52H1613.88ZM1514.49 717.088V708.568H1521.39V709.96H1516.1V711.904H1519.26V713.308H1516.1V715.66H1521.87V717.088H1514.49ZM1529.39 717.232C1526.9 717.232 1525.1 715.324 1525.1 712.828C1525.1 710.332 1526.9 708.424 1529.39 708.424C1532.02 708.424 1533.14 710.188 1533.36 711.184H1531.71C1531.47 710.728 1530.75 709.9 1529.39 709.9C1527.78 709.9 1526.76 711.232 1526.76 712.828C1526.76 714.424 1527.78 715.756 1529.39 715.756C1530.88 715.756 1531.5 714.892 1531.73 714.46H1533.36C1533.16 715.36 1532.13 717.232 1529.39 717.232ZM1541.53 717.232C1538.98 717.232 1537.07 715.384 1537.07 712.828C1537.07 710.272 1539 708.424 1541.53 708.424C1544.07 708.424 1546 710.272 1546 712.828C1546 715.372 1544.07 717.232 1541.53 717.232ZM1541.53 715.768C1543.24 715.768 1544.35 714.46 1544.35 712.828C1544.35 711.208 1543.24 709.888 1541.53 709.888C1539.84 709.888 1538.73 711.208 1538.73 712.828C1538.73 714.472 1539.83 715.768 1541.53 715.768ZM1553.32 709.78C1552.16 709.78 1551.55 710.176 1551.55 710.8C1551.55 711.376 1552.05 711.712 1552.94 711.82C1553.47 711.868 1553.86 711.916 1554.44 711.976C1556.14 712.144 1557.45 712.792 1557.45 714.592C1557.45 716.128 1556.24 717.244 1553.83 717.244C1551.04 717.244 1549.97 715.84 1549.64 714.616H1551.35C1551.58 715.156 1552.27 715.876 1553.83 715.876C1555.12 715.876 1555.81 715.384 1555.81 714.7C1555.81 713.884 1555.21 713.62 1554.33 713.512L1552.82 713.356C1551.11 713.188 1549.91 712.384 1549.91 710.848C1549.91 709.324 1551.29 708.412 1553.32 708.412C1556 708.412 1556.98 709.696 1557.25 710.776H1555.6C1555.36 710.344 1554.71 709.78 1553.32 709.78ZM1565.68 713.488V717.088H1564.02V713.5L1560.2 708.568H1562.25L1564.9 712.036L1567.54 708.568H1569.39L1565.68 713.488ZM1575.97 709.78C1574.8 709.78 1574.19 710.176 1574.19 710.8C1574.19 711.376 1574.7 711.712 1575.58 711.82C1576.11 711.868 1576.51 711.916 1577.08 711.976C1578.79 712.144 1580.1 712.792 1580.1 714.592C1580.1 716.128 1578.88 717.244 1576.47 717.244C1573.69 717.244 1572.62 715.84 1572.28 714.616H1574C1574.23 715.156 1574.91 715.876 1576.47 715.876C1577.77 715.876 1578.45 715.384 1578.45 714.7C1578.45 713.884 1577.85 713.62 1576.98 713.512L1575.46 713.356C1573.76 713.188 1572.56 712.384 1572.56 710.848C1572.56 709.324 1573.94 708.412 1575.97 708.412C1578.64 708.412 1579.63 709.696 1579.89 710.776H1578.25C1578.01 710.344 1577.36 709.78 1575.97 709.78ZM1583.44 710.008V708.568H1591.81V710.008H1588.43V717.088H1586.82V710.008H1583.44ZM1595.84 717.088V708.568H1602.74V709.96H1597.45V711.904H1600.6V713.308H1597.45V715.66H1603.22V717.088H1595.84ZM1609.67 708.568L1612.22 714.772L1614.77 708.568H1617.09V717.088H1615.53V710.104L1612.67 717.124H1611.58L1608.75 710.164V717.088H1607.26V708.568H1609.67Z" fill="#E7D1A8"/>
<path d="M944.226 599.088V590.568H948.786C950.634 590.568 951.642 591.444 951.642 592.872C951.642 593.784 951.006 594.384 950.358 594.6C951.15 594.84 951.834 595.536 951.834 596.652C951.834 598.14 950.826 599.088 948.858 599.088H944.226ZM948.606 591.936H945.81V594.024H948.606C949.506 594.024 949.986 593.664 949.986 592.98C949.986 592.26 949.518 591.936 948.606 591.936ZM948.666 595.38H945.81V597.72H948.666C949.698 597.72 950.19 597.3 950.19 596.544C950.19 595.788 949.698 595.38 948.666 595.38ZM956.153 599.088V590.568H960.917C962.777 590.568 963.833 591.444 963.833 593.112C963.833 594.264 963.233 595.08 962.153 595.416L964.157 599.088H962.453L960.521 595.584H957.761V599.088H956.153ZM960.785 591.996H957.761V594.18H960.785C961.709 594.18 962.177 593.844 962.177 593.112C962.177 592.332 961.709 591.996 960.785 591.996ZM972.097 599.232C969.601 599.232 967.801 597.324 967.801 594.828C967.801 592.332 969.601 590.424 972.097 590.424C974.725 590.424 975.841 592.188 976.069 593.184H974.413C974.173 592.728 973.453 591.9 972.097 591.9C970.489 591.9 969.469 593.232 969.469 594.828C969.469 596.424 970.489 597.756 972.097 597.756C973.585 597.756 974.209 596.892 974.437 596.46H976.069C975.865 597.36 974.833 599.232 972.097 599.232ZM986.217 597.684V599.088H979.917V598.056L982.941 595.2C983.733 594.444 984.153 593.928 984.153 593.16C984.153 592.392 983.673 591.852 982.833 591.852C982.005 591.852 981.501 592.44 981.501 593.268V593.772H979.941V593.232C979.941 591.648 980.997 590.424 982.833 590.424C984.681 590.424 985.761 591.552 985.761 593.124C985.761 594.456 984.969 595.272 983.913 596.256L982.401 597.684H986.217ZM993.248 590.412C995.168 590.412 996.38 591.6 996.38 593.568V596.088C996.38 598.104 995.144 599.244 993.248 599.244C991.352 599.244 990.116 598.104 990.116 596.088V593.568C990.116 591.6 991.328 590.412 993.248 590.412ZM993.248 597.804C994.268 597.804 994.796 597.072 994.796 596.064V593.592C994.796 592.584 994.268 591.852 993.248 591.852C992.216 591.852 991.7 592.584 991.7 593.592V596.064C991.7 597.072 992.216 597.804 993.248 597.804ZM926.083 613.088V609.524H921.403V613.088H919.795V604.568H921.403V608.084H926.083V604.568H927.703V613.088H926.083ZM936.445 613.232C933.889 613.232 931.981 611.384 931.981 608.828C931.981 606.272 933.913 604.424 936.445 604.424C938.977 604.424 940.909 606.272 940.909 608.828C940.909 611.372 938.977 613.232 936.445 613.232ZM936.445 611.768C938.149 611.768 939.265 610.46 939.265 608.828C939.265 607.208 938.149 605.888 936.445 605.888C934.753 605.888 933.637 607.208 933.637 608.828C933.637 610.472 934.741 611.768 936.445 611.768ZM952.084 611.636V613.088H945.208V604.568H946.816V611.636H952.084ZM956.092 613.088V604.568H959.536C962.26 604.568 964.096 606.128 964.096 608.828C964.096 611.48 962.272 613.088 959.536 613.088H956.092ZM959.512 605.984H957.7V611.672H959.512C961.3 611.672 962.452 610.58 962.452 608.828C962.452 607.016 961.3 605.984 959.512 605.984ZM968.407 613.088V604.568H975.307V605.96H970.015V607.904H973.171V609.308H970.015V611.66H975.787V613.088H968.407ZM979.83 613.088V604.568H984.594C986.454 604.568 987.51 605.444 987.51 607.112C987.51 608.264 986.91 609.08 985.83 609.416L987.834 613.088H986.13L984.198 609.584H981.438V613.088H979.83ZM984.462 605.996H981.438V608.18H984.462C985.386 608.18 985.854 607.844 985.854 607.112C985.854 606.332 985.386 605.996 984.462 605.996ZM994.957 605.78C993.793 605.78 993.181 606.176 993.181 606.8C993.181 607.376 993.685 607.712 994.573 607.82C995.101 607.868 995.497 607.916 996.073 607.976C997.777 608.144 999.085 608.792 999.085 610.592C999.085 612.128 997.873 613.244 995.461 613.244C992.677 613.244 991.609 611.84 991.273 610.616H992.989C993.217 611.156 993.901 611.876 995.461 611.876C996.757 611.876 997.441 611.384 997.441 610.7C997.441 609.884 996.841 609.62 995.965 609.512L994.453 609.356C992.749 609.188 991.549 608.384 991.549 606.848C991.549 605.324 992.929 604.412 994.957 604.412C997.633 604.412 998.617 605.696 998.881 606.776H997.237C996.997 606.344 996.349 605.78 994.957 605.78Z" fill="#E7D1A8"/>
<path d="M1005.15 603.088C1005.15 604.56 1006.34 605.754 1007.82 605.754C1009.29 605.754 1010.48 604.56 1010.48 603.088C1010.48 601.615 1009.29 600.421 1007.82 600.421C1006.34 600.421 1005.15 601.615 1005.15 603.088ZM1028.32 602.588H1007.82V603.588H1028.32V602.588Z" fill="#E7D1A8"/>
<path d="M1048.48 909.588C1048.48 911.06 1047.29 912.254 1045.82 912.254C1044.34 912.254 1043.15 911.06 1043.15 909.588C1043.15 908.115 1044.34 906.921 1045.82 906.921C1047.29 906.921 1048.48 908.115 1048.48 909.588ZM1066.32 909.588L1066.67 909.941L1066.52 910.088H1066.32V909.588ZM1045.82 909.088H1066.32V910.088H1045.82V909.088ZM1065.96 909.234L1077.46 897.734L1078.17 898.441L1066.67 909.941L1065.96 909.234Z" fill="#E7D1A8"/>
<path d="M965.986 912.982C963.43 912.982 961.522 911.134 961.522 908.578C961.522 906.022 963.454 904.174 965.986 904.174C968.518 904.174 970.45 906.022 970.45 908.578C970.45 911.122 968.518 912.982 965.986 912.982ZM965.986 911.518C967.69 911.518 968.806 910.21 968.806 908.578C968.806 906.958 967.69 905.638 965.986 905.638C964.294 905.638 963.178 906.958 963.178 908.578C963.178 910.222 964.282 911.518 965.986 911.518ZM974.749 912.838V904.318H979.513C981.373 904.318 982.429 905.194 982.429 906.862C982.429 908.014 981.829 908.83 980.749 909.166L982.753 912.838H981.049L979.117 909.334H976.357V912.838H974.749ZM979.381 905.746H976.357V907.93H979.381C980.305 907.93 980.773 907.594 980.773 906.862C980.773 906.082 980.305 905.746 979.381 905.746ZM986.853 912.838V904.318H990.297C993.021 904.318 994.857 905.878 994.857 908.578C994.857 911.23 993.033 912.838 990.297 912.838H986.853ZM990.273 905.734H988.461V911.422H990.273C992.061 911.422 993.213 910.33 993.213 908.578C993.213 906.766 992.061 905.734 990.273 905.734ZM999.179 912.838V904.318H1000.8V912.838H999.179ZM1013.55 904.318V912.874H1012.29L1007.12 906.346V912.838H1005.56V904.318H1007.43L1012.01 910.162V904.318H1013.55ZM1024.91 912.838L1024.13 911.086H1019.83L1019.05 912.838H1017.43L1021.26 904.282H1022.79L1026.63 912.838H1024.91ZM1020.45 909.694H1023.52L1021.98 906.25L1020.45 909.694ZM1037.38 911.386V912.838H1030.51V904.318H1032.12V911.386H1037.38ZM964.083 926.838V923.274H959.403V926.838H957.795V918.318H959.403V921.834H964.083V918.318H965.703V926.838H964.083ZM974.445 926.982C971.889 926.982 969.981 925.134 969.981 922.578C969.981 920.022 971.913 918.174 974.445 918.174C976.977 918.174 978.909 920.022 978.909 922.578C978.909 925.122 976.977 926.982 974.445 926.982ZM974.445 925.518C976.149 925.518 977.265 924.21 977.265 922.578C977.265 920.958 976.149 919.638 974.445 919.638C972.753 919.638 971.637 920.958 971.637 922.578C971.637 924.222 972.741 925.518 974.445 925.518ZM990.084 925.386V926.838H983.208V918.318H984.816V925.386H990.084ZM994.092 926.838V918.318H997.536C1000.26 918.318 1002.1 919.878 1002.1 922.578C1002.1 925.23 1000.27 926.838 997.536 926.838H994.092ZM997.512 919.734H995.7V925.422H997.512C999.3 925.422 1000.45 924.33 1000.45 922.578C1000.45 920.766 999.3 919.734 997.512 919.734ZM1006.41 926.838V918.318H1013.31V919.71H1008.01V921.654H1011.17V923.058H1008.01V925.41H1013.79V926.838H1006.41ZM1017.83 926.838V918.318H1022.59C1024.45 918.318 1025.51 919.194 1025.51 920.862C1025.51 922.014 1024.91 922.83 1023.83 923.166L1025.83 926.838H1024.13L1022.2 923.334H1019.44V926.838H1017.83ZM1022.46 919.746H1019.44V921.93H1022.46C1023.39 921.93 1023.85 921.594 1023.85 920.862C1023.85 920.082 1023.39 919.746 1022.46 919.746ZM1032.96 919.53C1031.79 919.53 1031.18 919.926 1031.18 920.55C1031.18 921.126 1031.69 921.462 1032.57 921.57C1033.1 921.618 1033.5 921.666 1034.07 921.726C1035.78 921.894 1037.09 922.542 1037.09 924.342C1037.09 925.878 1035.87 926.994 1033.46 926.994C1030.68 926.994 1029.61 925.59 1029.27 924.366H1030.99C1031.22 924.906 1031.9 925.626 1033.46 925.626C1034.76 925.626 1035.44 925.134 1035.44 924.45C1035.44 923.634 1034.84 923.37 1033.97 923.262L1032.45 923.106C1030.75 922.938 1029.55 922.134 1029.55 920.598C1029.55 919.074 1030.93 918.162 1032.96 918.162C1035.63 918.162 1036.62 919.446 1036.88 920.526H1035.24C1035 920.094 1034.35 919.53 1032.96 919.53Z" fill="#E7D1A8"/>
<path d="M1147.48 472.338C1147.48 470.865 1146.29 469.671 1144.82 469.671C1143.34 469.671 1142.15 470.865 1142.15 472.338C1142.15 473.81 1143.34 475.004 1144.82 475.004C1146.29 475.004 1147.48 473.81 1147.48 472.338ZM1165.32 472.338L1165.67 471.984L1165.52 471.838H1165.32V472.338ZM1144.82 472.838H1165.32V471.838H1144.82V472.838ZM1164.96 472.691L1176.46 484.191L1177.17 483.484L1165.67 471.984L1164.96 472.691Z" fill="#E7D1A8"/>
<path d="M1111.08 475.088L1110.3 473.336H1106L1105.22 475.088H1103.6L1107.43 466.532H1108.96L1112.8 475.088H1111.08ZM1106.62 471.944H1109.69L1108.15 468.5L1106.62 471.944ZM1116.68 475.088V466.568H1121.44C1123.3 466.568 1124.36 467.444 1124.36 469.112C1124.36 470.264 1123.76 471.08 1122.68 471.416L1124.68 475.088H1122.98L1121.05 471.584H1118.29V475.088H1116.68ZM1121.31 467.996H1118.29V470.18H1121.31C1122.23 470.18 1122.7 469.844 1122.7 469.112C1122.7 468.332 1122.23 467.996 1121.31 467.996ZM1127.99 468.008V466.568H1136.37V468.008H1132.98V475.088H1131.37V468.008H1127.99Z" fill="#E7D1A8"/>
<path d="M1317.96 464.984C1317.4 465.5 1316.17 466.244 1314.2 466.244C1311.38 466.244 1309.54 464.432 1309.54 461.804C1309.54 459.26 1311.36 457.412 1313.92 457.412C1316.42 457.412 1317.48 458.84 1317.76 459.752H1316.05C1315.8 459.428 1315.18 458.84 1313.92 458.84C1312.24 458.852 1311.18 460.124 1311.18 461.804C1311.18 463.58 1312.36 464.816 1314.22 464.816C1315.32 464.816 1316.06 464.528 1316.41 464.288V462.548H1313.41V461.18H1317.96V464.984ZM1322.51 466.088V457.568H1324.13V466.088H1322.51ZM1337.07 457.568L1333.43 466.112H1331.82L1328.06 457.568H1329.91L1332.66 464.096L1335.42 457.568H1337.07ZM1340.99 466.088V457.568H1347.89V458.96H1342.6V460.904H1345.76V462.308H1342.6V464.66H1348.37V466.088H1340.99ZM1359.07 466.088L1358.29 464.336H1354L1353.22 466.088H1351.6L1355.43 457.532H1356.95L1360.79 466.088H1359.07ZM1354.61 462.944H1357.68L1356.15 459.5L1354.61 462.944ZM1371.79 466.124L1369.63 459.932L1367.46 466.124H1366.07L1363.18 457.568H1364.93L1366.88 463.676L1368.97 457.532H1370.4L1372.5 463.688L1374.46 457.568H1376.04L1373.23 466.124H1371.79ZM1385.89 466.088L1385.11 464.336H1380.82L1380.04 466.088H1378.42L1382.25 457.532H1383.77L1387.61 466.088H1385.89ZM1381.43 462.944H1384.5L1382.97 459.5L1381.43 462.944ZM1394.76 462.488V466.088H1393.1V462.5L1389.27 457.568H1391.33L1393.98 461.036L1396.62 457.568H1398.47L1394.76 462.488ZM1405.05 458.78C1403.88 458.78 1403.27 459.176 1403.27 459.8C1403.27 460.376 1403.78 460.712 1404.66 460.82C1405.19 460.868 1405.59 460.916 1406.16 460.976C1407.87 461.144 1409.18 461.792 1409.18 463.592C1409.18 465.128 1407.96 466.244 1405.55 466.244C1402.77 466.244 1401.7 464.84 1401.36 463.616H1403.08C1403.31 464.156 1403.99 464.876 1405.55 464.876C1406.85 464.876 1407.53 464.384 1407.53 463.7C1407.53 462.884 1406.93 462.62 1406.06 462.512L1404.54 462.356C1402.84 462.188 1401.64 461.384 1401.64 459.848C1401.64 458.324 1403.02 457.412 1405.05 457.412C1407.72 457.412 1408.71 458.696 1408.97 459.776H1407.33C1407.09 459.344 1406.44 458.78 1405.05 458.78Z" fill="#E7D1A8"/>
<path d="M1068.48 511.338C1068.48 509.865 1067.29 508.671 1065.82 508.671C1064.34 508.671 1063.15 509.865 1063.15 511.338C1063.15 512.81 1064.34 514.004 1065.82 514.004C1067.29 514.004 1068.48 512.81 1068.48 511.338ZM1086.32 511.338L1086.67 510.984L1086.52 510.838H1086.32V511.338ZM1065.82 511.838H1086.32V510.838H1065.82V511.838ZM1085.96 511.691L1097.46 523.191L1098.17 522.484L1086.67 510.984L1085.96 511.691Z" fill="#E7D1A8"/>
<path d="M958.333 505.568L960.877 511.772L963.433 505.568H965.749V514.088H964.189V507.104L961.333 514.124H960.241L957.409 507.164V514.088H955.921V505.568H958.333ZM977.096 514.088L976.316 512.336H972.02L971.24 514.088H969.62L973.448 505.532H974.972L978.812 514.088H977.096ZM972.632 510.944H975.704L974.168 507.5L972.632 510.944ZM982.693 514.088V505.568H987.457C989.317 505.568 990.373 506.444 990.373 508.112C990.373 509.264 989.773 510.08 988.693 510.416L990.697 514.088H988.993L987.061 510.584H984.301V514.088H982.693ZM987.325 506.996H984.301V509.18H987.325C988.249 509.18 988.717 508.844 988.717 508.112C988.717 507.332 988.249 506.996 987.325 506.996ZM1000.92 514.088L996.404 510.188V514.088H994.796V505.568H996.404V509.396L1000.8 505.568H1002.96L998.192 509.708L1003.16 514.088H1000.92ZM1006.77 514.088V505.568H1013.67V506.96H1008.38V508.904H1011.53V510.308H1008.38V512.66H1014.15V514.088H1006.77ZM1017.34 507.008V505.568H1025.72V507.008H1022.34V514.088H1020.73V507.008H1017.34ZM1029.76 514.088V505.568H1031.38V514.088H1029.76ZM1044.13 505.568V514.124H1042.87L1037.7 507.596V514.088H1036.14V505.568H1038.01L1042.59 511.412V505.568H1044.13ZM1056.86 512.984C1056.29 513.5 1055.07 514.244 1053.1 514.244C1050.28 514.244 1048.43 512.432 1048.43 509.804C1048.43 507.26 1050.26 505.412 1052.81 505.412C1055.32 505.412 1056.38 506.84 1056.65 507.752H1054.95C1054.7 507.428 1054.07 506.84 1052.81 506.84C1051.13 506.852 1050.08 508.124 1050.08 509.804C1050.08 511.58 1051.25 512.816 1053.11 512.816C1054.22 512.816 1054.96 512.528 1055.31 512.288V510.548H1052.31V509.18H1056.86V512.984Z" fill="#E7D1A8"/>
<defs>
<filter id="filter0_f_0_776" x="839.284" y="299.101" width="815.682" height="815.682" filterUnits="userSpaceOnUse" color-interpolation-filters="sRGB">
<feFlood flood-opacity="0" result="BackgroundImageFix"/>
<feBlend mode="normal" in="SourceGraphic" in2="BackgroundImageFix" result="shape"/>
<feGaussianBlur stdDeviation="127.212" result="effect1_foregroundBlur_0_776"/>
</filter>
<filter id="filter1_f_0_776" x="408.009" y="32.3333" width="1625.4" height="1488.03" filterUnits="userSpaceOnUse" color-interpolation-filters="sRGB">
<feFlood flood-opacity="0" result="BackgroundImageFix"/>
<feBlend mode="normal" in="SourceGraphic" in2="BackgroundImageFix" result="shape"/>
<feGaussianBlur stdDeviation="272.399" result="effect1_foregroundBlur_0_776"/>
</filter>
<filter id="filter2_f_0_776" x="0.636169" y="383.408" width="1635.18" height="1673.26" filterUnits="userSpaceOnUse" color-interpolation-filters="sRGB">
<feFlood flood-opacity="0" result="BackgroundImageFix"/>
<feBlend mode="normal" in="SourceGraphic" in2="BackgroundImageFix" result="shape"/>
<feGaussianBlur stdDeviation="272.399" result="effect1_foregroundBlur_0_776"/>
</filter>
<filter id="filter3_f_0_776" x="1024.45" y="557.987" width="182.221" height="258.012" filterUnits="userSpaceOnUse" color-interpolation-filters="sRGB">
<feFlood flood-opacity="0" result="BackgroundImageFix"/>
<feBlend mode="normal" in="SourceGraphic" in2="BackgroundImageFix" result="shape"/>
<feGaussianBlur stdDeviation="30.4202" result="effect1_foregroundBlur_0_776"/>
</filter>
<filter id="filter4_f_0_776" x="1303.63" y="495.553" width="182.221" height="258.012" filterUnits="userSpaceOnUse" color-interpolation-filters="sRGB">
<feFlood flood-opacity="0" result="BackgroundImageFix"/>
<feBlend mode="normal" in="SourceGraphic" in2="BackgroundImageFix" result="shape"/>
<feGaussianBlur stdDeviation="30.4202" result="effect1_foregroundBlur_0_776"/>
</filter>
<filter id="filter5_f_0_776" x="1327.06" y="610.499" width="182.221" height="258.012" filterUnits="userSpaceOnUse" color-interpolation-filters="sRGB">
<feFlood flood-opacity="0" result="BackgroundImageFix"/>
<feBlend mode="normal" in="SourceGraphic" in2="BackgroundImageFix" result="shape"/>
<feGaussianBlur stdDeviation="30.4202" result="effect1_foregroundBlur_0_776"/>
</filter>
<filter id="filter6_f_0_776" x="1070.6" y="438.358" width="167.484" height="205.066" filterUnits="userSpaceOnUse" color-interpolation-filters="sRGB">
<feFlood flood-opacity="0" result="BackgroundImageFix"/>
<feBlend mode="normal" in="SourceGraphic" in2="BackgroundImageFix" result="shape"/>
<feGaussianBlur stdDeviation="30.4202" result="effect1_foregroundBlur_0_776"/>
</filter>
<filter id="filter7_f_0_776" x="1299.8" y="755.274" width="174.972" height="187.38" filterUnits="userSpaceOnUse" color-interpolation-filters="sRGB">
<feFlood flood-opacity="0" result="BackgroundImageFix"/>
<feBlend mode="normal" in="SourceGraphic" in2="BackgroundImageFix" result="shape"/>
<feGaussianBlur stdDeviation="30.4202" result="effect1_foregroundBlur_0_776"/>
</filter>
<filter id="filter8_dddddd_0_776" x="750.561" y="213.583" width="988.51" height="988.51" filterUnits="userSpaceOnUse" color-interpolation-filters="sRGB">
<feFlood flood-opacity="0" result="BackgroundImageFix"/>
<feColorMatrix in="SourceAlpha" type="matrix" values="0 0 0 0 0 0 0 0 0 0 0 0 0 0 0 0 0 0 127 0" result="hardAlpha"/>
<feOffset/>
<feGaussianBlur stdDeviation="3.26494"/>
<feColorMatrix type="matrix" values="0 0 0 0 0.988235 0 0 0 0 0.698039 0 0 0 0 0.2 0 0 0 1 0"/>
<feBlend mode="normal" in2="BackgroundImageFix" result="effect1_dropShadow_0_776"/>
<feColorMatrix in="SourceAlpha" type="matrix" values="0 0 0 0 0 0 0 0 0 0 0 0 0 0 0 0 0 0 127 0" result="hardAlpha"/>
<feOffset/>
<feGaussianBlur stdDeviation="6.52987"/>
<feColorMatrix type="matrix" values="0 0 0 0 0.988235 0 0 0 0 0.698039 0 0 0 0 0.2 0 0 0 1 0"/>
<feBlend mode="normal" in2="effect1_dropShadow_0_776" result="effect2_dropShadow_0_776"/>
<feColorMatrix in="SourceAlpha" type="matrix" values="0 0 0 0 0 0 0 0 0 0 0 0 0 0 0 0 0 0 127 0" result="hardAlpha"/>
<feOffset/>
<feGaussianBlur stdDeviation="22.8546"/>
<feColorMatrix type="matrix" values="0 0 0 0 0.988235 0 0 0 0 0.698039 0 0 0 0 0.2 0 0 0 1 0"/>
<feBlend mode="normal" in2="effect2_dropShadow_0_776" result="effect3_dropShadow_0_776"/>
<feColorMatrix in="SourceAlpha" type="matrix" values="0 0 0 0 0 0 0 0 0 0 0 0 0 0 0 0 0 0 127 0" result="hardAlpha"/>
<feOffset/>
<feGaussianBlur stdDeviation="45.7091"/>
<feColorMatrix type="matrix" values="0 0 0 0 0.988235 0 0 0 0 0.698039 0 0 0 0 0.2 0 0 0 1 0"/>
<feBlend mode="normal" in2="effect3_dropShadow_0_776" result="effect4_dropShadow_0_776"/>
<feColorMatrix in="SourceAlpha" type="matrix" values="0 0 0 0 0 0 0 0 0 0 0 0 0 0 0 0 0 0 127 0" result="hardAlpha"/>
<feOffset/>
<feGaussianBlur stdDeviation="78.3585"/>
<feColorMatrix type="matrix" values="0 0 0 0 0.988235 0 0 0 0 0.698039 0 0 0 0 0.2 0 0 0 1 0"/>
<feBlend mode="normal" in2="effect4_dropShadow_0_776" result="effect5_dropShadow_0_776"/>
<feColorMatrix in="SourceAlpha" type="matrix" values="0 0 0 0 0 0 0 0 0 0 0 0 0 0 0 0 0 0 127 0" result="hardAlpha"/>
<feOffset/>
<feGaussianBlur stdDeviation="137.127"/>
<feColorMatrix type="matrix" values="0 0 0 0 0.988235 0 0 0 0 0.698039 0 0 0 0 0.2 0 0 0 1 0"/>
<feBlend mode="normal" in2="effect5_dropShadow_0_776" result="effect6_dropShadow_0_776"/>
<feBlend mode="normal" in="SourceGraphic" in2="effect6_dropShadow_0_776" result="shape"/>
</filter>
<filter id="filter9_f_0_776" x="1003.9" y="467.171" width="499.569" height="563.897" filterUnits="userSpaceOnUse" color-interpolation-filters="sRGB">
<feFlood flood-opacity="0" result="BackgroundImageFix"/>
<feBlend mode="normal" in="SourceGraphic" in2="BackgroundImageFix" result="shape"/>
<feGaussianBlur stdDeviation="20.9492" result="effect1_foregroundBlur_0_776"/>
</filter>
<filter id="filter10_b_0_776" x="1020.26" y="723.568" width="466.85" height="291.124" filterUnits="userSpaceOnUse" color-interpolation-filters="sRGB">
<feFlood flood-opacity="0" result="BackgroundImageFix"/>
<feGaussianBlur in="BackgroundImageFix" stdDeviation="12.7697"/>
<feComposite in2="SourceAlpha" operator="in" result="effect1_backgroundBlur_0_776"/>
<feBlend mode="normal" in="SourceGraphic" in2="effect1_backgroundBlur_0_776" result="shape"/>
</filter>
<filter id="filter11_b_0_776" x="1228.15" y="483.53" width="258.964" height="411.146" filterUnits="userSpaceOnUse" color-interpolation-filters="sRGB">
<feFlood flood-opacity="0" result="BackgroundImageFix"/>
<feGaussianBlur in="BackgroundImageFix" stdDeviation="12.7697"/>
<feComposite in2="SourceAlpha" operator="in" result="effect1_backgroundBlur_0_776"/>
<feBlend mode="normal" in="SourceGraphic" in2="effect1_backgroundBlur_0_776" result="shape"/>
</filter>
<filter id="filter12_b_0_776" x="1020.35" y="483.531" width="258.964" height="411.146" filterUnits="userSpaceOnUse" color-interpolation-filters="sRGB">
<feFlood flood-opacity="0" result="BackgroundImageFix"/>
<feGaussianBlur in="BackgroundImageFix" stdDeviation="12.7697"/>
<feComposite in2="SourceAlpha" operator="in" result="effect1_backgroundBlur_0_776"/>
<feBlend mode="normal" in="SourceGraphic" in2="effect1_backgroundBlur_0_776" result="shape"/>
</filter>
<filter id="filter13_b_0_776" x="1020.26" y="483.54" width="466.85" height="291.124" filterUnits="userSpaceOnUse" color-interpolation-filters="sRGB">
<feFlood flood-opacity="0" result="BackgroundImageFix"/>
<feGaussianBlur in="BackgroundImageFix" stdDeviation="12.7697"/>
<feComposite in2="SourceAlpha" operator="in" result="effect1_backgroundBlur_0_776"/>
<feBlend mode="normal" in="SourceGraphic" in2="effect1_backgroundBlur_0_776" result="shape"/>
</filter>
<filter id="filter14_b_0_776" x="1228.15" y="603.562" width="258.964" height="411.146" filterUnits="userSpaceOnUse" color-interpolation-filters="sRGB">
<feFlood flood-opacity="0" result="BackgroundImageFix"/>
<feGaussianBlur in="BackgroundImageFix" stdDeviation="12.7697"/>
<feComposite in2="SourceAlpha" operator="in" result="effect1_backgroundBlur_0_776"/>
<feBlend mode="normal" in="SourceGraphic" in2="effect1_backgroundBlur_0_776" result="shape"/>
</filter>
<filter id="filter15_b_0_776" x="1020.35" y="603.558" width="258.964" height="411.146" filterUnits="userSpaceOnUse" color-interpolation-filters="sRGB">
<feFlood flood-opacity="0" result="BackgroundImageFix"/>
<feGaussianBlur in="BackgroundImageFix" stdDeviation="12.7697"/>
<feComposite in2="SourceAlpha" operator="in" result="effect1_backgroundBlur_0_776"/>
<feBlend mode="normal" in="SourceGraphic" in2="effect1_backgroundBlur_0_776" result="shape"/>
</filter>
<filter id="filter16_f_0_776" x="971.747" y="499.331" width="563.885" height="499.619" filterUnits="userSpaceOnUse" color-interpolation-filters="sRGB">
<feFlood flood-opacity="0" result="BackgroundImageFix"/>
<feBlend mode="normal" in="SourceGraphic" in2="BackgroundImageFix" result="shape"/>
<feGaussianBlur stdDeviation="20.9492" result="effect1_foregroundBlur_0_776"/>
</filter>
<filter id="filter17_b_0_776" x="988.106" y="723.569" width="411.148" height="258.964" filterUnits="userSpaceOnUse" color-interpolation-filters="sRGB">
<feFlood flood-opacity="0" result="BackgroundImageFix"/>
<feGaussianBlur in="BackgroundImageFix" stdDeviation="12.7697"/>
<feComposite in2="SourceAlpha" operator="in" result="effect1_backgroundBlur_0_776"/>
<feBlend mode="normal" in="SourceGraphic" in2="effect1_backgroundBlur_0_776" result="shape"/>
</filter>
<filter id="filter18_b_0_776" x="1228.15" y="515.69" width="291.124" height="466.849" filterUnits="userSpaceOnUse" color-interpolation-filters="sRGB">
<feFlood flood-opacity="0" result="BackgroundImageFix"/>
<feGaussianBlur in="BackgroundImageFix" stdDeviation="12.7697"/>
<feComposite in2="SourceAlpha" operator="in" result="effect1_backgroundBlur_0_776"/>
<feBlend mode="normal" in="SourceGraphic" in2="effect1_backgroundBlur_0_776" result="shape"/>
</filter>
<filter id="filter19_b_0_776" x="988.183" y="515.738" width="411.147" height="258.964" filterUnits="userSpaceOnUse" color-interpolation-filters="sRGB">
<feFlood flood-opacity="0" result="BackgroundImageFix"/>
<feGaussianBlur in="BackgroundImageFix" stdDeviation="12.7696"/>
<feComposite in2="SourceAlpha" operator="in" result="effect1_backgroundBlur_0_776"/>
<feBlend mode="normal" in="SourceGraphic" in2="effect1_backgroundBlur_0_776" result="shape"/>
</filter>
<filter id="filter20_b_0_776" x="1108.12" y="515.698" width="411.148" height="258.964" filterUnits="userSpaceOnUse" color-interpolation-filters="sRGB">
<feFlood flood-opacity="0" result="BackgroundImageFix"/>
<feGaussianBlur in="BackgroundImageFix" stdDeviation="12.7697"/>
<feComposite in2="SourceAlpha" operator="in" result="effect1_backgroundBlur_0_776"/>
<feBlend mode="normal" in="SourceGraphic" in2="effect1_backgroundBlur_0_776" result="shape"/>
</filter>
<filter id="filter21_b_0_776" x="1108.12" y="723.584" width="411.147" height="258.964" filterUnits="userSpaceOnUse" color-interpolation-filters="sRGB">
<feFlood flood-opacity="0" result="BackgroundImageFix"/>
<feGaussianBlur in="BackgroundImageFix" stdDeviation="12.7696"/>
<feComposite in2="SourceAlpha" operator="in" result="effect1_backgroundBlur_0_776"/>
<feBlend mode="normal" in="SourceGraphic" in2="effect1_backgroundBlur_0_776" result="shape"/>
</filter>
<filter id="filter22_b_0_776" x="988.181" y="515.741" width="291.124" height="466.849" filterUnits="userSpaceOnUse" color-interpolation-filters="sRGB">
<feFlood flood-opacity="0" result="BackgroundImageFix"/>
<feGaussianBlur in="BackgroundImageFix" stdDeviation="12.7697"/>
<feComposite in2="SourceAlpha" operator="in" result="effect1_backgroundBlur_0_776"/>
<feBlend mode="normal" in="SourceGraphic" in2="effect1_backgroundBlur_0_776" result="shape"/>
</filter>
<filter id="filter23_f_0_776" x="1035.99" y="447.163" width="563.885" height="499.619" filterUnits="userSpaceOnUse" color-interpolation-filters="sRGB">
<feFlood flood-opacity="0" result="BackgroundImageFix"/>
<feBlend mode="normal" in="SourceGraphic" in2="BackgroundImageFix" result="shape"/>
<feGaussianBlur stdDeviation="20.9492" result="effect1_foregroundBlur_0_776"/>
</filter>
<filter id="filter24_b_0_776" x="1052.35" y="671.401" width="411.148" height="258.964" filterUnits="userSpaceOnUse" color-interpolation-filters="sRGB">
<feFlood flood-opacity="0" result="BackgroundImageFix"/>
<feGaussianBlur in="BackgroundImageFix" stdDeviation="12.7697"/>
<feComposite in2="SourceAlpha" operator="in" result="effect1_backgroundBlur_0_776"/>
<feBlend mode="normal" in="SourceGraphic" in2="effect1_backgroundBlur_0_776" result="shape"/>
</filter>
<filter id="filter25_b_0_776" x="1292.39" y="463.522" width="291.124" height="466.849" filterUnits="userSpaceOnUse" color-interpolation-filters="sRGB">
<feFlood flood-opacity="0" result="BackgroundImageFix"/>
<feGaussianBlur in="BackgroundImageFix" stdDeviation="12.7697"/>
<feComposite in2="SourceAlpha" operator="in" result="effect1_backgroundBlur_0_776"/>
<feBlend mode="normal" in="SourceGraphic" in2="effect1_backgroundBlur_0_776" result="shape"/>
</filter>
<filter id="filter26_b_0_776" x="1052.42" y="463.57" width="411.147" height="258.964" filterUnits="userSpaceOnUse" color-interpolation-filters="sRGB">
<feFlood flood-opacity="0" result="BackgroundImageFix"/>
<feGaussianBlur in="BackgroundImageFix" stdDeviation="12.7696"/>
<feComposite in2="SourceAlpha" operator="in" result="effect1_backgroundBlur_0_776"/>
<feBlend mode="normal" in="SourceGraphic" in2="effect1_backgroundBlur_0_776" result="shape"/>
</filter>
<filter id="filter27_b_0_776" x="1172.36" y="463.53" width="411.148" height="258.964" filterUnits="userSpaceOnUse" color-interpolation-filters="sRGB">
<feFlood flood-opacity="0" result="BackgroundImageFix"/>
<feGaussianBlur in="BackgroundImageFix" stdDeviation="12.7697"/>
<feComposite in2="SourceAlpha" operator="in" result="effect1_backgroundBlur_0_776"/>
<feBlend mode="normal" in="SourceGraphic" in2="effect1_backgroundBlur_0_776" result="shape"/>
</filter>
<filter id="filter28_b_0_776" x="1172.36" y="671.416" width="411.147" height="258.964" filterUnits="userSpaceOnUse" color-interpolation-filters="sRGB">
<feFlood flood-opacity="0" result="BackgroundImageFix"/>
<feGaussianBlur in="BackgroundImageFix" stdDeviation="12.7696"/>
<feComposite in2="SourceAlpha" operator="in" result="effect1_backgroundBlur_0_776"/>
<feBlend mode="normal" in="SourceGraphic" in2="effect1_backgroundBlur_0_776" result="shape"/>
</filter>
<filter id="filter29_b_0_776" x="1052.42" y="463.573" width="291.124" height="466.849" filterUnits="userSpaceOnUse" color-interpolation-filters="sRGB">
<feFlood flood-opacity="0" result="BackgroundImageFix"/>
<feGaussianBlur in="BackgroundImageFix" stdDeviation="12.7697"/>
<feComposite in2="SourceAlpha" operator="in" result="effect1_backgroundBlur_0_776"/>
<feBlend mode="normal" in="SourceGraphic" in2="effect1_backgroundBlur_0_776" result="shape"/>
</filter>
<radialGradient id="paint0_radial_0_776" cx="0" cy="0" r="1" gradientUnits="userSpaceOnUse" gradientTransform="translate(1240.08 691.237) rotate(90) scale(160.297)">
<stop stop-color="#D18D0E"/>
<stop offset="1" stop-color="#FFC55A"/>
</radialGradient>
<radialGradient id="paint1_radial_0_776" cx="0" cy="0" r="1" gradientUnits="userSpaceOnUse" gradientTransform="translate(1237.12 684.624) rotate(90) scale(227.79)">
<stop stop-color="#D18D0E"/>
<stop offset="1" stop-color="#FFC55A"/>
</radialGradient>
<linearGradient id="paint2_linear_0_776" x1="1155.78" y1="818.069" x2="1360.04" y2="572.789" gradientUnits="userSpaceOnUse">
<stop stop-color="#B87526"/>
<stop offset="1" stop-color="#FFC368"/>
</linearGradient>
<linearGradient id="paint3_linear_0_776" x1="1155.78" y1="818.069" x2="1360.04" y2="572.789" gradientUnits="userSpaceOnUse">
<stop stop-color="#B87526"/>
<stop offset="1" stop-color="#FFC368"/>
</linearGradient>
<linearGradient id="paint4_linear_0_776" x1="239.99" y1="-0.0554954" x2="-11.3076" y2="-0.0555097" gradientUnits="userSpaceOnUse">
<stop stop-color="white"/>
<stop offset="1" stop-color="white" stop-opacity="0"/>
</linearGradient>
<linearGradient id="paint5_linear_0_776" x1="12.9929" y1="238.8" x2="253.192" y2="224.719" gradientUnits="userSpaceOnUse">
<stop stop-color="white"/>
<stop offset="1" stop-color="white" stop-opacity="0"/>
</linearGradient>
<linearGradient id="paint6_linear_0_776" x1="239.935" y1="245.241" x2="-24.7492" y2="233.388" gradientUnits="userSpaceOnUse">
<stop stop-color="white"/>
<stop offset="1" stop-color="white" stop-opacity="0"/>
</linearGradient>
<linearGradient id="paint7_linear_0_776" x1="1437.11" y1="1175.84" x2="1633.58" y2="940.795" gradientUnits="userSpaceOnUse">
<stop stop-color="#B87526"/>
<stop offset="1" stop-color="#FFC368"/>
</linearGradient>
<linearGradient id="paint8_linear_0_776" x1="1207.77" y1="1167.56" x2="1400.76" y2="936.68" gradientUnits="userSpaceOnUse">
<stop stop-color="#B87526"/>
<stop offset="1" stop-color="#FFC368"/>
</linearGradient>
<linearGradient id="paint9_linear_0_776" x1="239.99" y1="-0.0554954" x2="-11.3076" y2="-0.0555097" gradientUnits="userSpaceOnUse">
<stop stop-color="white"/>
<stop offset="1" stop-color="white" stop-opacity="0"/>
</linearGradient>
<linearGradient id="paint10_linear_0_776" x1="12.9929" y1="238.8" x2="253.192" y2="224.719" gradientUnits="userSpaceOnUse">
<stop stop-color="white"/>
<stop offset="1" stop-color="white" stop-opacity="0"/>
</linearGradient>
<linearGradient id="paint11_linear_0_776" x1="239.935" y1="245.241" x2="-24.7492" y2="233.388" gradientUnits="userSpaceOnUse">
<stop stop-color="white"/>
<stop offset="1" stop-color="white" stop-opacity="0"/>
</linearGradient>
<linearGradient id="paint12_linear_0_776" x1="1207.77" y1="1167.56" x2="1400.76" y2="936.679" gradientUnits="userSpaceOnUse">
<stop stop-color="#B87526"/>
<stop offset="1" stop-color="#FFC368"/>
</linearGradient>
<linearGradient id="paint13_linear_0_776" x1="239.99" y1="-0.0554954" x2="-11.3076" y2="-0.0555097" gradientUnits="userSpaceOnUse">
<stop stop-color="white"/>
<stop offset="1" stop-color="white" stop-opacity="0"/>
</linearGradient>
<linearGradient id="paint14_linear_0_776" x1="12.9929" y1="238.8" x2="253.192" y2="224.719" gradientUnits="userSpaceOnUse">
<stop stop-color="white"/>
<stop offset="1" stop-color="white" stop-opacity="0"/>
</linearGradient>
<linearGradient id="paint15_linear_0_776" x1="239.935" y1="245.241" x2="-24.7492" y2="233.388" gradientUnits="userSpaceOnUse">
<stop stop-color="white"/>
<stop offset="1" stop-color="white" stop-opacity="0"/>
</linearGradient>
<clipPath id="clip0_0_776">
<rect width="1411.77" height="1377.21" fill="white" transform="translate(541.047 0.651123)"/>
</clipPath>
<clipPath id="clip1_0_776">
<rect width="440" height="440" fill="white" transform="translate(1024.82 487.838)"/>
</clipPath>
<clipPath id="clip2_0_776">
<rect width="440" height="440" fill="white" transform="translate(1024.82 487.838)"/>
</clipPath>
</defs>
</svg>
