<svg width="1496" height="615" viewBox="0 0 1496 615" fill="none" xmlns="http://www.w3.org/2000/svg">
<g clip-path="url(#clip0_0_775)">
<rect width="1496" height="614" transform="translate(0 0.750488)" fill="#1E1E1E"/>
<g clip-path="url(#clip1_0_775)">
<circle opacity="0.3" cx="1048.31" cy="318.854" r="384.772" stroke="#D18D0E" stroke-width="1.38274"/>
<g opacity="0.75" filter="url(#filter0_f_0_775)">
<circle cx="1048.31" cy="318.854" r="153.418" fill="#D18D0E"/>
<circle cx="1048.31" cy="318.854" r="153.418" fill="url(#paint0_radial_0_775)"/>
<circle cx="1048.31" cy="318.854" r="152.726" stroke="#D18D0E" stroke-width="1.38274"/>
</g>
<g opacity="0.75">
<circle cx="1048.31" cy="318.854" r="217.323" fill="#D18D0E"/>
<circle cx="1048.31" cy="318.854" r="217.323" fill="url(#paint1_radial_0_775)"/>
<circle cx="1048.31" cy="318.854" r="217.323" stroke="#D18D0E" stroke-width="1.38274"/>
</g>
<circle opacity="0.15" cx="1048.31" cy="318.854" r="524.62" stroke="#D18D0E" stroke-width="1.38274"/>
<circle opacity="0.5" cx="1048.31" cy="318.854" r="705.599" stroke="#D18D0E" stroke-opacity="0.1" stroke-width="1.38274"/>
</g>
<g opacity="0.75" filter="url(#filter1_f_0_775)">
<ellipse cx="1021.89" cy="388.262" rx="271.513" ry="194.153" transform="rotate(13.5265 1021.89 388.262)" fill="#D18D0E"/>
<path d="M1285.2 451.605C1272.73 503.459 1232.03 543.396 1176.19 566.005C1120.35 588.613 1049.42 593.864 976.645 576.357C903.872 558.851 843.092 521.915 803.643 476.383C764.193 430.85 746.11 376.772 758.585 324.918C771.059 273.064 811.759 233.127 867.601 210.518C923.442 187.91 994.372 182.659 1067.14 200.166C1139.92 217.673 1200.7 254.609 1240.15 300.14C1279.6 345.673 1297.68 399.752 1285.2 451.605Z" stroke="#D18D0E" stroke-width="1.38274"/>
</g>
<g style="mix-blend-mode:difference" opacity="0.25" filter="url(#filter2_f_0_775)">
<ellipse cx="619.411" cy="831.951" rx="271.513" ry="292.899" transform="rotate(13.5265 619.411 831.951)" fill="#D18D0E"/>
<path d="M882.721 895.295C844.963 1052.25 696.44 1151.03 551.066 1116.05C405.691 1081.08 318.344 925.562 356.102 768.608C393.86 611.653 542.382 512.876 687.757 547.849C833.132 582.821 920.479 738.34 882.721 895.295Z" stroke="#D18D0E" stroke-width="1.38274"/>
</g>
<g opacity="0.65" filter="url(#filter3_f_0_775)">
<ellipse cx="916.74" cy="298.905" rx="26.2097" ry="69.8216" transform="rotate(13.5265 916.74 298.905)" fill="#D18D0E"/>
<path d="M941.55 304.874C937.055 323.56 930.148 339.764 922.639 350.854C918.883 356.402 914.997 360.638 911.216 363.275C907.434 365.911 903.828 366.902 900.571 366.118C897.313 365.334 894.552 362.812 892.383 358.744C890.215 354.677 888.682 349.137 887.859 342.488C886.216 329.195 887.434 311.623 891.929 292.937C896.425 274.25 903.332 258.047 910.841 246.956C914.597 241.409 918.483 237.172 922.264 234.536C926.046 231.899 929.652 230.909 932.909 231.693C936.167 232.476 938.928 234.998 941.096 239.067C943.265 243.134 944.798 248.674 945.62 255.323C947.264 268.616 946.046 286.187 941.55 304.874Z" stroke="#D18D0E" stroke-width="1.38274"/>
</g>
<g opacity="0.75" filter="url(#filter4_f_0_775)">
<ellipse cx="1195.92" cy="236.471" rx="26.2097" ry="69.8216" transform="rotate(13.5265 1195.92 236.471)" fill="#D18D0E"/>
<path d="M1220.73 242.44C1216.24 261.127 1209.33 277.33 1201.82 288.421C1198.06 293.968 1194.18 298.205 1190.4 300.841C1186.61 303.477 1183.01 304.468 1179.75 303.684C1176.49 302.901 1173.73 300.378 1171.56 296.31C1169.4 292.243 1167.86 286.703 1167.04 280.054C1165.4 266.761 1166.61 249.189 1171.11 230.503C1175.61 211.816 1182.51 195.613 1190.02 184.522C1193.78 178.975 1197.66 174.738 1201.44 172.102C1205.23 169.466 1208.83 168.475 1212.09 169.259C1215.35 170.042 1218.11 172.565 1220.28 176.633C1222.45 180.7 1223.98 186.24 1224.8 192.889C1226.44 206.182 1225.23 223.754 1220.73 242.44Z" stroke="#D18D0E" stroke-width="1.38274"/>
</g>
<g opacity="0.55" filter="url(#filter5_f_0_775)">
<ellipse cx="1219.36" cy="351.417" rx="26.2097" ry="69.8216" transform="rotate(13.5265 1219.36 351.417)" fill="#D18D0E"/>
<path d="M1244.17 357.385C1239.67 376.072 1232.76 392.275 1225.25 403.366C1221.5 408.913 1217.61 413.15 1213.83 415.786C1210.05 418.423 1206.44 419.413 1203.19 418.63C1199.93 417.846 1197.17 415.324 1195 411.256C1192.83 407.188 1191.3 401.648 1190.47 394.999C1188.83 381.707 1190.05 364.135 1194.54 345.448C1199.04 326.762 1205.95 310.558 1213.46 299.468C1217.21 293.92 1221.1 289.684 1224.88 287.048C1228.66 284.411 1232.27 283.42 1235.52 284.204C1238.78 284.988 1241.54 287.51 1243.71 291.578C1245.88 295.645 1247.41 301.186 1248.24 307.835C1249.88 321.127 1248.66 338.699 1244.17 357.385Z" stroke="#D18D0E" stroke-width="1.38274"/>
</g>
<g opacity="0.35" filter="url(#filter6_f_0_775)">
<ellipse cx="955.524" cy="152.803" rx="21.2058" ry="42.573" transform="rotate(13.5265 955.524 152.803)" fill="#D18D0E"/>
<path d="M975.469 157.602C972.739 168.95 967.983 178.64 962.532 185.135C957.051 191.666 951.028 194.798 945.728 193.523C940.428 192.248 936.489 186.719 934.578 178.41C932.677 170.147 932.848 159.354 935.578 148.005C938.309 136.656 943.065 126.967 948.516 120.472C953.997 113.941 960.019 110.808 965.32 112.084C970.62 113.359 974.559 118.888 976.47 127.197C978.37 135.46 978.199 146.253 975.469 157.602Z" stroke="#D18D0E" stroke-width="1.38274"/>
</g>
<g opacity="0.45" filter="url(#filter7_f_0_775)">
<ellipse cx="1188.47" cy="460.876" rx="26.2097" ry="33.187" transform="rotate(13.5265 1188.47 460.876)" fill="#D18D0E"/>
<path d="M1213.28 466.845C1209.04 484.45 1194.43 495.733 1180.87 492.471C1167.3 489.208 1159.42 472.513 1163.66 454.908C1167.89 437.302 1182.5 426.019 1196.07 429.282C1209.63 432.545 1217.51 449.239 1213.28 466.845Z" stroke="#D18D0E" stroke-width="1.38274"/>
</g>
<g opacity="0.21">
<g clip-path="url(#clip2_0_775)" filter="url(#filter8_dddddd_0_775)">
<path d="M1046 99.7505C1093.28 99.7505 1139.31 114.984 1177.25 143.192C1215.2 171.401 1243.05 211.084 1256.67 256.361C1270.29 301.638 1268.97 350.1 1252.89 394.564C1236.81 439.029 1206.83 477.13 1167.4 503.221L1046 319.75V99.7505Z" fill="#D18D0E"/>
<path d="M1167.4 503.22C1133.68 525.533 1094.46 538.122 1054.05 539.602C1013.65 541.082 973.611 531.397 938.348 511.611C903.084 491.825 873.956 462.703 854.162 427.444C834.368 392.184 824.674 352.152 826.146 311.743L1046 319.749L1167.4 503.22Z" fill="#FCB232"/>
<path d="M826.146 311.744C827.32 279.491 835.577 247.891 850.33 219.185L1046 319.75L826.146 311.744Z" fill="#FB892B"/>
<path d="M850.331 219.186C862.61 195.294 879.161 173.853 899.165 155.924L1046 319.751L850.331 219.186Z" fill="#FC9F2F"/>
<path d="M899.165 155.922C919.169 137.993 942.287 123.879 967.376 114.279L1046 319.75L899.165 155.922Z" fill="#FBB767"/>
<path d="M967.375 114.28C992.464 104.68 1019.1 99.7552 1045.96 99.7505L1046 319.75L967.375 114.28Z" fill="#FBC78B"/>
</g>
</g>
<g clip-path="url(#clip3_0_775)">
<path d="M1102.94 107.247C1148.61 119.484 1189.12 146.11 1218.48 183.179C1247.83 220.248 1264.46 265.786 1265.9 313.047C1267.34 360.307 1253.52 406.774 1226.48 445.562C1199.44 484.349 1160.62 513.394 1115.78 528.391L1046 319.751L1102.94 107.247Z" fill="#D18D0E"/>
<path d="M1115.78 528.39C1077.43 541.215 1036.29 543.224 996.878 534.195C957.463 525.167 921.299 505.45 892.358 477.211C863.417 448.972 842.819 413.304 832.825 374.123C822.832 334.942 823.83 293.765 835.709 255.114L1046 319.749L1115.78 528.39Z" fill="#FCB232"/>
<path d="M835.709 255.115C845.191 224.264 861.345 195.878 883.025 171.969L1046 319.75L835.709 255.115Z" fill="#FB892B"/>
<path d="M883.026 171.97C901.07 152.07 922.607 135.643 946.569 123.503L1046 319.751L883.026 171.97Z" fill="#FC9F2F"/>
<path d="M946.57 123.501C970.532 111.36 996.516 103.711 1023.23 100.931L1046 319.75L946.57 123.501Z" fill="#FBB767"/>
<path d="M1023.23 100.932C1049.95 98.1517 1076.95 100.289 1102.9 107.237L1046 319.75L1023.23 100.932Z" fill="#FBC78B"/>
<rect x="858" y="132" width="376" height="376" rx="188" fill="#242424"/>
<rect x="876.254" y="150.588" width="339.673" height="338.396" rx="169.198" fill="#BF7B15"/>
<rect x="876.254" y="150.588" width="339.673" height="338.396" rx="169.198" fill="url(#paint2_linear_0_775)" fill-opacity="0.5"/>
<mask id="mask0_0_775" style="mask-type:alpha" maskUnits="userSpaceOnUse" x="876" y="150" width="340" height="339">
<rect x="876.254" y="150.588" width="339.673" height="338.396" rx="169.198" fill="#BF7B15"/>
<rect x="876.254" y="150.588" width="339.673" height="338.396" rx="169.198" fill="url(#paint3_linear_0_775)" fill-opacity="0.5"/>
</mask>
<g mask="url(#mask0_0_775)">
<g filter="url(#filter9_f_0_775)">
<g filter="url(#filter10_b_0_775)">
<rect width="240.046" height="240.046" transform="matrix(-0.866026 -0.499999 -0.866026 0.499999 1262.76 481.042)" fill="#523A15"/>
</g>
<g filter="url(#filter11_b_0_775)">
<rect width="240.046" height="240.045" transform="matrix(-0.866026 -0.499999 -2.76993e-08 1 1262.76 241.004)" fill="#F98600" fill-opacity="0.8"/>
</g>
<g filter="url(#filter12_b_0_775)">
<rect width="240.046" height="240.045" transform="matrix(-0.866026 0.499999 2.76993e-08 1 1054.96 120.983)" fill="#FFAA29"/>
</g>
<g filter="url(#filter13_b_0_775)">
<rect width="240.046" height="240.046" transform="matrix(-0.866026 -0.499999 -0.866026 0.499999 1262.76 241.014)" fill="url(#paint4_linear_0_775)" fill-opacity="0.6"/>
</g>
<g filter="url(#filter14_b_0_775)">
<rect width="240.046" height="240.045" transform="matrix(-0.866026 0.499999 2.76993e-08 1 1262.76 241.014)" fill="url(#paint5_linear_0_775)" fill-opacity="0.6"/>
</g>
<g filter="url(#filter15_b_0_775)">
<rect width="240.046" height="240.045" transform="matrix(-0.866026 -0.499999 -2.76993e-08 1 1054.96 361.032)" fill="url(#paint6_linear_0_775)" fill-opacity="0.4"/>
</g>
</g>
</g>
<rect x="1161" y="519.188" width="325.277" height="325.277" rx="162.638" transform="rotate(-165 1161 519.188)" fill="#BF7B15"/>
<rect x="1161" y="519.188" width="325.277" height="325.277" rx="162.638" transform="rotate(-165 1161 519.188)" fill="url(#paint7_linear_0_775)" fill-opacity="0.5"/>
<mask id="mask1_0_775" style="mask-type:alpha" maskUnits="userSpaceOnUse" x="886" y="160" width="320" height="320">
<rect x="933.032" y="515.666" width="319.523" height="319.523" rx="159.762" transform="rotate(-105 933.032 515.666)" fill="#BF7B15"/>
<rect x="933.032" y="515.666" width="319.523" height="319.523" rx="159.762" transform="rotate(-105 933.032 515.666)" fill="url(#paint8_linear_0_775)" fill-opacity="0.5"/>
</mask>
<g mask="url(#mask1_0_775)">
<g filter="url(#filter16_f_0_775)">
<g filter="url(#filter17_b_0_775)">
<rect width="240.046" height="240.046" transform="matrix(-0.500001 -0.866025 -1 -1.41582e-06 1174.9 568.906)" fill="#523A15"/>
</g>
<g filter="url(#filter18_b_0_775)">
<rect width="240.046" height="240.045" transform="matrix(-0.500001 -0.866025 -0.5 0.866025 1294.92 361.027)" fill="#F98600" fill-opacity="0.8"/>
</g>
<g filter="url(#filter19_b_0_775)">
<rect width="240.046" height="240.045" transform="matrix(-1 -1.41582e-06 -0.5 0.866025 1174.98 153.19)" fill="#FFAA29"/>
</g>
<g filter="url(#filter20_b_0_775)">
<rect width="240.046" height="240.046" transform="matrix(-0.500001 -0.866025 -1 -1.41582e-06 1294.91 361.036)" fill="url(#paint9_linear_0_775)" fill-opacity="0.6"/>
</g>
<g filter="url(#filter21_b_0_775)">
<rect width="240.046" height="240.045" transform="matrix(-1 -1.41582e-06 -0.5 0.866025 1294.91 361.036)" fill="url(#paint10_linear_0_775)" fill-opacity="0.6"/>
</g>
<g filter="url(#filter22_b_0_775)">
<rect width="240.046" height="240.045" transform="matrix(-0.500001 -0.866025 -0.5 0.866025 1054.95 361.078)" fill="url(#paint11_linear_0_775)" fill-opacity="0.4"/>
</g>
</g>
</g>
<g opacity="0.7">
<rect x="933.032" y="515.665" width="319.523" height="319.523" rx="159.762" transform="rotate(-105 933.032 515.665)" fill="#BF7B15"/>
<rect x="933.032" y="515.665" width="319.523" height="319.523" rx="159.762" transform="rotate(-105 933.032 515.665)" fill="url(#paint12_linear_0_775)" fill-opacity="0.5"/>
</g>
<path d="M1140.57 289.674H1169.95V299.466H1160.16V348.426H1169.95V358.218H1140.57V348.426H1150.36V299.466H1140.57V289.674Z" fill="#1C1C1C"/>
<path d="M1069.95 289.674H1118.92V299.466H1079.75V319.05H1109.12V328.842H1079.75V358.218H1069.95V289.674Z" fill="#1C1C1C"/>
<path d="M1033.04 348.426V328.842H1003.76V348.426H1033.04ZM1033.04 318.854V299.466H1003.76V318.854H1033.04ZM993.969 358.218V289.674H1033.14V299.466H1042.93V319.05H1033.14V328.842H1042.93V348.426H1033.14V358.218H993.969Z" fill="#1C1C1C"/>
<path d="M947.359 348.426V358.218H937.567V348.426H917.983V338.634H937.567V328.842H927.775V319.05H917.983V309.258H927.775V299.466H937.567V289.674H947.359V299.466H966.943V309.258H947.359V319.05H957.151V328.842H966.943V338.634H957.151V348.426H947.359ZM937.567 319.05V309.258H927.775V319.05H937.567ZM957.151 338.634V328.842H947.359V338.634H957.151Z" fill="#1C1C1C"/>
<g style="mix-blend-mode:color-dodge">
<path d="M1137.08 291.42H1166.46V301.212H1156.67V350.172H1166.46V359.964H1137.08V350.172H1146.87V301.212H1137.08V291.42Z" fill="#1C1C1C"/>
<path d="M1066.46 291.42H1115.42V301.212H1076.26V320.796H1105.63V330.588H1076.26V359.964H1066.46V291.42Z" fill="#1C1C1C"/>
<path d="M1029.55 350.172V330.588H1000.27V350.172H1029.55ZM1029.55 320.6V301.212H1000.27V320.6H1029.55ZM990.477 359.964V291.42H1029.65V301.212H1039.44V320.796H1029.65V330.588H1039.44V350.172H1029.65V359.964H990.477Z" fill="#1C1C1C"/>
<path d="M943.867 350.172V359.964H934.075V350.172H914.491V340.38H934.075V330.588H924.283V320.796H914.491V311.004H924.283V301.212H934.075V291.42H943.867V301.212H963.451V311.004H943.867V320.796H953.659V330.588H963.451V340.38H953.659V350.172H943.867ZM934.075 320.796V311.004H924.283V320.796H934.075ZM953.659 340.38V330.588H943.867V340.38H953.659Z" fill="#1C1C1C"/>
</g>
<g opacity="0.2">
<mask id="mask2_0_775" style="mask-type:alpha" maskUnits="userSpaceOnUse" x="917" y="289" width="253" height="70">
<path d="M1140.57 289.674H1169.95V299.466H1160.16V348.426H1169.95V358.218H1140.57V348.426H1150.36V299.466H1140.57V289.674Z" fill="#1C1C1C"/>
<path d="M1069.95 289.674H1118.92V299.466H1079.75V319.05H1109.12V328.842H1079.75V358.218H1069.95V289.674Z" fill="#1C1C1C"/>
<path d="M1033.04 348.426V328.842H1003.76V348.426H1033.04ZM1033.04 318.854V299.466H1003.76V318.854H1033.04ZM993.969 358.218V289.674H1033.14V299.466H1042.93V319.05H1033.14V328.842H1042.93V348.426H1033.14V358.218H993.969Z" fill="#1C1C1C"/>
<path d="M947.359 348.426V358.218H937.567V348.426H917.983V338.634H937.567V328.842H927.775V319.05H917.983V309.258H927.775V299.466H937.567V289.674H947.359V299.466H966.943V309.258H947.359V319.05H957.151V328.842H966.943V338.634H957.151V348.426H947.359ZM937.567 319.05V309.258H927.775V319.05H937.567ZM957.151 338.634V328.842H947.359V338.634H957.151Z" fill="#1C1C1C"/>
</mask>
<g mask="url(#mask2_0_775)">
<g filter="url(#filter23_f_0_775)">
<g filter="url(#filter24_b_0_775)">
<rect width="240.046" height="240.046" transform="matrix(-0.500001 -0.866025 -1 -1.41582e-06 1239.14 516.738)" fill="#523A15"/>
</g>
<g filter="url(#filter25_b_0_775)">
<rect width="240.046" height="240.045" transform="matrix(-0.500001 -0.866025 -0.5 0.866025 1359.16 308.859)" fill="#F98600" fill-opacity="0.8"/>
</g>
<g filter="url(#filter26_b_0_775)">
<rect width="240.046" height="240.045" transform="matrix(-1 -1.41582e-06 -0.5 0.866025 1239.22 101.022)" fill="#FFAA29"/>
</g>
<g filter="url(#filter27_b_0_775)">
<rect width="240.046" height="240.046" transform="matrix(-0.500001 -0.866025 -1 -1.41582e-06 1359.15 308.868)" fill="url(#paint13_linear_0_775)" fill-opacity="0.6"/>
</g>
<g filter="url(#filter28_b_0_775)">
<rect width="240.046" height="240.045" transform="matrix(-1 -1.41582e-06 -0.5 0.866025 1359.15 308.868)" fill="url(#paint14_linear_0_775)" fill-opacity="0.6"/>
</g>
<g filter="url(#filter29_b_0_775)">
<rect width="240.046" height="240.045" transform="matrix(-0.500001 -0.866025 -0.5 0.866025 1119.19 308.91)" fill="url(#paint15_linear_0_775)" fill-opacity="0.4"/>
</g>
</g>
</g>
</g>
</g>
<path d="M1099.33 75.25C1099.33 73.7772 1100.53 72.5833 1102 72.5833C1103.47 72.5833 1104.67 73.7772 1104.67 75.25C1104.67 76.7228 1103.47 77.9167 1102 77.9167C1100.53 77.9167 1099.33 76.7228 1099.33 75.25ZM1081.5 75.25L1081.15 74.8964L1081.29 74.75H1081.5V75.25ZM1102 75.75H1081.5V74.75H1102V75.75ZM1081.85 75.6036L1070.35 87.1036L1069.65 86.3964L1081.15 74.8964L1081.85 75.6036Z" fill="#E7D1A8"/>
<path d="M1303.83 319C1303.83 320.473 1305.03 321.667 1306.5 321.667C1307.97 321.667 1309.17 320.473 1309.17 319C1309.17 317.527 1307.97 316.333 1306.5 316.333C1305.03 316.333 1303.83 317.527 1303.83 319ZM1306.5 318.5H1286V319.5H1306.5V318.5Z" fill="#E7D1A8"/>
<path d="M1315.68 315V306.48H1320.38C1322.29 306.48 1323.36 307.404 1323.36 309.084C1323.36 310.728 1322.29 311.736 1320.38 311.736H1317.28V315H1315.68ZM1320.3 307.92H1317.28V310.296H1320.3C1321.23 310.296 1321.7 309.816 1321.7 309.108C1321.7 308.34 1321.24 307.92 1320.3 307.92ZM1327.56 315V306.48H1332.32C1334.18 306.48 1335.24 307.356 1335.24 309.024C1335.24 310.176 1334.64 310.992 1333.56 311.328L1335.56 315H1333.86L1331.92 311.496H1329.16V315H1327.56ZM1332.19 307.908H1329.16V310.092H1332.19C1333.11 310.092 1333.58 309.756 1333.58 309.024C1333.58 308.244 1333.11 307.908 1332.19 307.908ZM1343.67 315.144C1341.11 315.144 1339.2 313.296 1339.2 310.74C1339.2 308.184 1341.14 306.336 1343.67 306.336C1346.2 306.336 1348.13 308.184 1348.13 310.74C1348.13 313.284 1346.2 315.144 1343.67 315.144ZM1343.67 313.68C1345.37 313.68 1346.49 312.372 1346.49 310.74C1346.49 309.12 1345.37 307.8 1343.67 307.8C1341.98 307.8 1340.86 309.12 1340.86 310.74C1340.86 312.384 1341.96 313.68 1343.67 313.68ZM1351.39 307.92V306.48H1359.77V307.92H1356.39V315H1354.78V307.92H1351.39ZM1367.5 315.144C1364.94 315.144 1363.03 313.296 1363.03 310.74C1363.03 308.184 1364.97 306.336 1367.5 306.336C1370.03 306.336 1371.96 308.184 1371.96 310.74C1371.96 313.284 1370.03 315.144 1367.5 315.144ZM1367.5 313.68C1369.2 313.68 1370.32 312.372 1370.32 310.74C1370.32 309.12 1369.2 307.8 1367.5 307.8C1365.81 307.8 1364.69 309.12 1364.69 310.74C1364.69 312.384 1365.79 313.68 1367.5 313.68ZM1380.1 315.144C1377.61 315.144 1375.81 313.236 1375.81 310.74C1375.81 308.244 1377.61 306.336 1380.1 306.336C1382.73 306.336 1383.85 308.1 1384.07 309.096H1382.42C1382.18 308.64 1381.46 307.812 1380.1 307.812C1378.49 307.812 1377.47 309.144 1377.47 310.74C1377.47 312.336 1378.49 313.668 1380.1 313.668C1381.59 313.668 1382.21 312.804 1382.44 312.372H1384.07C1383.87 313.272 1382.84 315.144 1380.1 315.144ZM1392.24 315.144C1389.69 315.144 1387.78 313.296 1387.78 310.74C1387.78 308.184 1389.71 306.336 1392.24 306.336C1394.78 306.336 1396.71 308.184 1396.71 310.74C1396.71 313.284 1394.78 315.144 1392.24 315.144ZM1392.24 313.68C1393.95 313.68 1395.06 312.372 1395.06 310.74C1395.06 309.12 1393.95 307.8 1392.24 307.8C1390.55 307.8 1389.44 309.12 1389.44 310.74C1389.44 312.384 1390.54 313.68 1392.24 313.68ZM1407.88 313.548V315H1401.01V306.48H1402.62V313.548H1407.88ZM1415.06 306.432L1411.87 315H1410.84L1414.03 306.432H1415.06ZM1315.68 329V320.48H1322.58V321.872H1317.28V323.816H1320.44V325.22H1317.28V327.572H1323.06V329H1315.68ZM1330.58 329.144C1328.08 329.144 1326.28 327.236 1326.28 324.74C1326.28 322.244 1328.08 320.336 1330.58 320.336C1333.2 320.336 1334.32 322.1 1334.55 323.096H1332.89C1332.65 322.64 1331.93 321.812 1330.58 321.812C1328.97 321.812 1327.95 323.144 1327.95 324.74C1327.95 326.336 1328.97 327.668 1330.58 327.668C1332.06 327.668 1332.69 326.804 1332.92 326.372H1334.55C1334.34 327.272 1333.31 329.144 1330.58 329.144ZM1342.72 329.144C1340.16 329.144 1338.25 327.296 1338.25 324.74C1338.25 322.184 1340.19 320.336 1342.72 320.336C1345.25 320.336 1347.18 322.184 1347.18 324.74C1347.18 327.284 1345.25 329.144 1342.72 329.144ZM1342.72 327.68C1344.42 327.68 1345.54 326.372 1345.54 324.74C1345.54 323.12 1344.42 321.8 1342.72 321.8C1341.03 321.8 1339.91 323.12 1339.91 324.74C1339.91 326.384 1341.01 327.68 1342.72 327.68ZM1354.51 321.692C1353.34 321.692 1352.73 322.088 1352.73 322.712C1352.73 323.288 1353.23 323.624 1354.12 323.732C1354.65 323.78 1355.05 323.828 1355.62 323.888C1357.33 324.056 1358.63 324.704 1358.63 326.504C1358.63 328.04 1357.42 329.156 1355.01 329.156C1352.23 329.156 1351.16 327.752 1350.82 326.528H1352.54C1352.77 327.068 1353.45 327.788 1355.01 327.788C1356.31 327.788 1356.99 327.296 1356.99 326.612C1356.99 325.796 1356.39 325.532 1355.51 325.424L1354 325.268C1352.3 325.1 1351.1 324.296 1351.1 322.76C1351.1 321.236 1352.48 320.324 1354.51 320.324C1357.18 320.324 1358.17 321.608 1358.43 322.688H1356.79C1356.55 322.256 1355.9 321.692 1354.51 321.692ZM1366.86 325.4V329H1365.21V325.412L1361.38 320.48H1363.43L1366.08 323.948L1368.72 320.48H1370.57L1366.86 325.4ZM1377.15 321.692C1375.99 321.692 1375.38 322.088 1375.38 322.712C1375.38 323.288 1375.88 323.624 1376.77 323.732C1377.3 323.78 1377.69 323.828 1378.27 323.888C1379.97 324.056 1381.28 324.704 1381.28 326.504C1381.28 328.04 1380.07 329.156 1377.66 329.156C1374.87 329.156 1373.81 327.752 1373.47 326.528H1375.19C1375.41 327.068 1376.1 327.788 1377.66 327.788C1378.95 327.788 1379.64 327.296 1379.64 326.612C1379.64 325.796 1379.04 325.532 1378.16 325.424L1376.65 325.268C1374.95 325.1 1373.75 324.296 1373.75 322.76C1373.75 321.236 1375.13 320.324 1377.15 320.324C1379.83 320.324 1380.81 321.608 1381.08 322.688H1379.43C1379.19 322.256 1378.55 321.692 1377.15 321.692ZM1384.62 321.92V320.48H1393V321.92H1389.61V329H1388.01V321.92H1384.62ZM1397.02 329V320.48H1403.92V321.872H1398.63V323.816H1401.79V325.22H1398.63V327.572H1404.4V329H1397.02ZM1410.86 320.48L1413.4 326.684L1415.96 320.48H1418.27V329H1416.71V322.016L1413.86 329.036H1412.77L1409.93 322.076V329H1408.45V320.48H1410.86Z" fill="#E7D1A8"/>
<path d="M745.41 211V202.48H749.97C751.818 202.48 752.826 203.356 752.826 204.784C752.826 205.696 752.19 206.296 751.542 206.512C752.334 206.752 753.018 207.448 753.018 208.564C753.018 210.052 752.01 211 750.042 211H745.41ZM749.79 203.848H746.994V205.936H749.79C750.69 205.936 751.17 205.576 751.17 204.892C751.17 204.172 750.702 203.848 749.79 203.848ZM749.85 207.292H746.994V209.632H749.85C750.882 209.632 751.374 209.212 751.374 208.456C751.374 207.7 750.882 207.292 749.85 207.292ZM757.338 211V202.48H762.102C763.962 202.48 765.018 203.356 765.018 205.024C765.018 206.176 764.418 206.992 763.338 207.328L765.342 211H763.638L761.706 207.496H758.946V211H757.338ZM761.97 203.908H758.946V206.092H761.97C762.894 206.092 763.362 205.756 763.362 205.024C763.362 204.244 762.894 203.908 761.97 203.908ZM773.281 211.144C770.785 211.144 768.985 209.236 768.985 206.74C768.985 204.244 770.785 202.336 773.281 202.336C775.909 202.336 777.025 204.1 777.253 205.096H775.597C775.357 204.64 774.637 203.812 773.281 203.812C771.673 203.812 770.653 205.144 770.653 206.74C770.653 208.336 771.673 209.668 773.281 209.668C774.769 209.668 775.393 208.804 775.621 208.372H777.253C777.049 209.272 776.017 211.144 773.281 211.144ZM787.402 209.596V211H781.102V209.968L784.126 207.112C784.918 206.356 785.338 205.84 785.338 205.072C785.338 204.304 784.858 203.764 784.018 203.764C783.19 203.764 782.686 204.352 782.686 205.18V205.684H781.126V205.144C781.126 203.56 782.182 202.336 784.018 202.336C785.866 202.336 786.946 203.464 786.946 205.036C786.946 206.368 786.154 207.184 785.098 208.168L783.586 209.596H787.402ZM794.432 202.324C796.352 202.324 797.564 203.512 797.564 205.48V208C797.564 210.016 796.328 211.156 794.432 211.156C792.536 211.156 791.3 210.016 791.3 208V205.48C791.3 203.512 792.512 202.324 794.432 202.324ZM794.432 209.716C795.452 209.716 795.98 208.984 795.98 207.976V205.504C795.98 204.496 795.452 203.764 794.432 203.764C793.4 203.764 792.884 204.496 792.884 205.504V207.976C792.884 208.984 793.4 209.716 794.432 209.716ZM727.267 225V221.436H722.587V225H720.979V216.48H722.587V219.996H727.267V216.48H728.887V225H727.267ZM737.629 225.144C735.073 225.144 733.165 223.296 733.165 220.74C733.165 218.184 735.097 216.336 737.629 216.336C740.161 216.336 742.093 218.184 742.093 220.74C742.093 223.284 740.161 225.144 737.629 225.144ZM737.629 223.68C739.333 223.68 740.449 222.372 740.449 220.74C740.449 219.12 739.333 217.8 737.629 217.8C735.937 217.8 734.821 219.12 734.821 220.74C734.821 222.384 735.925 223.68 737.629 223.68ZM753.268 223.548V225H746.392V216.48H748V223.548H753.268ZM757.277 225V216.48H760.721C763.445 216.48 765.281 218.04 765.281 220.74C765.281 223.392 763.457 225 760.721 225H757.277ZM760.697 217.896H758.885V223.584H760.697C762.485 223.584 763.637 222.492 763.637 220.74C763.637 218.928 762.485 217.896 760.697 217.896ZM769.591 225V216.48H776.491V217.872H771.199V219.816H774.355V221.22H771.199V223.572H776.971V225H769.591ZM781.014 225V216.48H785.778C787.638 216.48 788.694 217.356 788.694 219.024C788.694 220.176 788.094 220.992 787.014 221.328L789.018 225H787.314L785.382 221.496H782.622V225H781.014ZM785.646 217.908H782.622V220.092H785.646C786.57 220.092 787.038 219.756 787.038 219.024C787.038 218.244 786.57 217.908 785.646 217.908ZM796.141 217.692C794.977 217.692 794.365 218.088 794.365 218.712C794.365 219.288 794.869 219.624 795.757 219.732C796.285 219.78 796.681 219.828 797.257 219.888C798.961 220.056 800.269 220.704 800.269 222.504C800.269 224.04 799.057 225.156 796.645 225.156C793.861 225.156 792.793 223.752 792.457 222.528H794.173C794.401 223.068 795.085 223.788 796.645 223.788C797.941 223.788 798.625 223.296 798.625 222.612C798.625 221.796 798.025 221.532 797.149 221.424L795.637 221.268C793.933 221.1 792.733 220.296 792.733 218.76C792.733 217.236 794.113 216.324 796.141 216.324C798.817 216.324 799.801 217.608 800.065 218.688H798.421C798.181 218.256 797.533 217.692 796.141 217.692Z" fill="#E7D1A8"/>
<path d="M806.333 215C806.333 216.473 807.527 217.667 809 217.667C810.473 217.667 811.667 216.473 811.667 215C811.667 213.527 810.473 212.333 809 212.333C807.527 212.333 806.333 213.527 806.333 215ZM829.5 214.5H809V215.5H829.5V214.5Z" fill="#E7D1A8"/>
<path d="M849.667 521.5C849.667 522.973 848.473 524.167 847 524.167C845.527 524.167 844.333 522.973 844.333 521.5C844.333 520.027 845.527 518.833 847 518.833C848.473 518.833 849.667 520.027 849.667 521.5ZM867.5 521.5L867.854 521.854L867.707 522H867.5V521.5ZM847 521H867.5V522H847V521ZM867.146 521.146L878.646 509.646L879.354 510.354L867.854 521.854L867.146 521.146Z" fill="#E7D1A8"/>
<path d="M767.171 524.894C764.615 524.894 762.707 523.046 762.707 520.49C762.707 517.934 764.639 516.086 767.171 516.086C769.703 516.086 771.635 517.934 771.635 520.49C771.635 523.034 769.703 524.894 767.171 524.894ZM767.171 523.43C768.875 523.43 769.991 522.122 769.991 520.49C769.991 518.87 768.875 517.55 767.171 517.55C765.479 517.55 764.363 518.87 764.363 520.49C764.363 522.134 765.467 523.43 767.171 523.43ZM775.934 524.75V516.23H780.698C782.558 516.23 783.614 517.106 783.614 518.774C783.614 519.926 783.014 520.742 781.934 521.078L783.938 524.75H782.234L780.302 521.246H777.542V524.75H775.934ZM780.566 517.658H777.542V519.842H780.566C781.49 519.842 781.958 519.506 781.958 518.774C781.958 517.994 781.49 517.658 780.566 517.658ZM788.037 524.75V516.23H791.481C794.205 516.23 796.041 517.79 796.041 520.49C796.041 523.142 794.217 524.75 791.481 524.75H788.037ZM791.457 517.646H789.645V523.334H791.457C793.245 523.334 794.397 522.242 794.397 520.49C794.397 518.678 793.245 517.646 791.457 517.646ZM800.363 524.75V516.23H801.983V524.75H800.363ZM814.739 516.23V524.786H813.479L808.307 518.258V524.75H806.747V516.23H808.619L813.191 522.074V516.23H814.739ZM826.095 524.75L825.315 522.998H821.019L820.239 524.75H818.619L822.447 516.194H823.971L827.811 524.75H826.095ZM821.631 521.606H824.703L823.167 518.162L821.631 521.606ZM838.568 523.298V524.75H831.692V516.23H833.3V523.298H838.568ZM765.267 538.75V535.186H760.587V538.75H758.979V530.23H760.587V533.746H765.267V530.23H766.887V538.75H765.267ZM775.629 538.894C773.073 538.894 771.165 537.046 771.165 534.49C771.165 531.934 773.097 530.086 775.629 530.086C778.161 530.086 780.093 531.934 780.093 534.49C780.093 537.034 778.161 538.894 775.629 538.894ZM775.629 537.43C777.333 537.43 778.449 536.122 778.449 534.49C778.449 532.87 777.333 531.55 775.629 531.55C773.937 531.55 772.821 532.87 772.821 534.49C772.821 536.134 773.925 537.43 775.629 537.43ZM791.268 537.298V538.75H784.392V530.23H786V537.298H791.268ZM795.277 538.75V530.23H798.721C801.445 530.23 803.281 531.79 803.281 534.49C803.281 537.142 801.457 538.75 798.721 538.75H795.277ZM798.697 531.646H796.885V537.334H798.697C800.485 537.334 801.637 536.242 801.637 534.49C801.637 532.678 800.485 531.646 798.697 531.646ZM807.591 538.75V530.23H814.491V531.622H809.199V533.566H812.355V534.97H809.199V537.322H814.971V538.75H807.591ZM819.014 538.75V530.23H823.778C825.638 530.23 826.694 531.106 826.694 532.774C826.694 533.926 826.094 534.742 825.014 535.078L827.018 538.75H825.314L823.382 535.246H820.622V538.75H819.014ZM823.646 531.658H820.622V533.842H823.646C824.57 533.842 825.038 533.506 825.038 532.774C825.038 531.994 824.57 531.658 823.646 531.658ZM834.141 531.442C832.977 531.442 832.365 531.838 832.365 532.462C832.365 533.038 832.869 533.374 833.757 533.482C834.285 533.53 834.681 533.578 835.257 533.638C836.961 533.806 838.269 534.454 838.269 536.254C838.269 537.79 837.057 538.906 834.645 538.906C831.861 538.906 830.793 537.502 830.457 536.278H832.173C832.401 536.818 833.085 537.538 834.645 537.538C835.941 537.538 836.625 537.046 836.625 536.362C836.625 535.546 836.025 535.282 835.149 535.174L833.637 535.018C831.933 534.85 830.733 534.046 830.733 532.51C830.733 530.986 832.113 530.074 834.141 530.074C836.817 530.074 837.801 531.358 838.065 532.438H836.421C836.181 532.006 835.533 531.442 834.141 531.442Z" fill="#E7D1A8"/>
<path d="M948.667 84.25C948.667 82.7772 947.473 81.5833 946 81.5833C944.527 81.5833 943.333 82.7772 943.333 84.25C943.333 85.7228 944.527 86.9167 946 86.9167C947.473 86.9167 948.667 85.7228 948.667 84.25ZM966.5 84.25L966.854 83.8964L966.707 83.75H966.5V84.25ZM946 84.75H966.5V83.75H946V84.75ZM966.146 84.6036L977.646 96.1036L978.354 95.3964L966.854 83.8964L966.146 84.6036Z" fill="#E7D1A8"/>
<path d="M912.265 87L911.485 85.248H907.189L906.409 87H904.789L908.617 78.444H910.141L913.981 87H912.265ZM907.801 83.856H910.873L909.337 80.412L907.801 83.856ZM917.862 87V78.48H922.626C924.486 78.48 925.542 79.356 925.542 81.024C925.542 82.176 924.942 82.992 923.862 83.328L925.866 87H924.162L922.23 83.496H919.47V87H917.862ZM922.494 79.908H919.47V82.092H922.494C923.418 82.092 923.886 81.756 923.886 81.024C923.886 80.244 923.418 79.908 922.494 79.908ZM929.174 79.92V78.48H937.55V79.92H934.166V87H932.558V79.92H929.174Z" fill="#E7D1A8"/>
<path d="M1119.14 76.896C1118.58 77.412 1117.36 78.156 1115.39 78.156C1112.57 78.156 1110.72 76.344 1110.72 73.716C1110.72 71.172 1112.54 69.324 1115.1 69.324C1117.61 69.324 1118.66 70.752 1118.94 71.664H1117.24C1116.98 71.34 1116.36 70.752 1115.1 70.752C1113.42 70.764 1112.36 72.036 1112.36 73.716C1112.36 75.492 1113.54 76.728 1115.4 76.728C1116.5 76.728 1117.25 76.44 1117.6 76.2V74.46H1114.6V73.092H1119.14V76.896ZM1123.69 78V69.48H1125.31V78H1123.69ZM1138.26 69.48L1134.61 78.024H1133L1129.25 69.48H1131.09L1133.84 76.008L1136.6 69.48H1138.26ZM1142.18 78V69.48H1149.08V70.872H1143.78V72.816H1146.94V74.22H1143.78V76.572H1149.56V78H1142.18ZM1160.26 78L1159.48 76.248H1155.18L1154.4 78H1152.78L1156.61 69.444H1158.13L1161.97 78H1160.26ZM1155.79 74.856H1158.87L1157.33 71.412L1155.79 74.856ZM1172.98 78.036L1170.82 71.844L1168.64 78.036H1167.25L1164.36 69.48H1166.11L1168.07 75.588L1170.16 69.444H1171.58L1173.68 75.6L1175.64 69.48H1177.22L1174.42 78.036H1172.98ZM1187.08 78L1186.3 76.248H1182L1181.22 78H1179.6L1183.43 69.444H1184.95L1188.79 78H1187.08ZM1182.61 74.856H1185.69L1184.15 71.412L1182.61 74.856ZM1195.94 74.4V78H1194.29V74.412L1190.46 69.48H1192.51L1195.16 72.948L1197.8 69.48H1199.65L1195.94 74.4ZM1206.23 70.692C1205.07 70.692 1204.46 71.088 1204.46 71.712C1204.46 72.288 1204.96 72.624 1205.85 72.732C1206.38 72.78 1206.77 72.828 1207.35 72.888C1209.05 73.056 1210.36 73.704 1210.36 75.504C1210.36 77.04 1209.15 78.156 1206.74 78.156C1203.95 78.156 1202.88 76.752 1202.55 75.528H1204.26C1204.49 76.068 1205.18 76.788 1206.74 76.788C1208.03 76.788 1208.72 76.296 1208.72 75.612C1208.72 74.796 1208.12 74.532 1207.24 74.424L1205.73 74.268C1204.02 74.1 1202.82 73.296 1202.82 71.76C1202.82 70.236 1204.2 69.324 1206.23 69.324C1208.91 69.324 1209.89 70.608 1210.16 71.688H1208.51C1208.27 71.256 1207.62 70.692 1206.23 70.692Z" fill="#E7D1A8"/>
<path d="M869.667 123.25C869.667 121.777 868.473 120.583 867 120.583C865.527 120.583 864.333 121.777 864.333 123.25C864.333 124.723 865.527 125.917 867 125.917C868.473 125.917 869.667 124.723 869.667 123.25ZM887.5 123.25L887.854 122.896L887.707 122.75H887.5V123.25ZM867 123.75H887.5V122.75H867V123.75ZM887.146 123.604L898.646 135.104L899.354 134.396L887.854 122.896L887.146 123.604Z" fill="#E7D1A8"/>
<path d="M759.517 117.48L762.061 123.684L764.617 117.48H766.933V126H765.373V119.016L762.517 126.036H761.425L758.593 119.076V126H757.105V117.48H759.517ZM778.281 126L777.501 124.248H773.205L772.425 126H770.805L774.633 117.444H776.157L779.997 126H778.281ZM773.817 122.856H776.889L775.353 119.412L773.817 122.856ZM783.878 126V117.48H788.642C790.502 117.48 791.558 118.356 791.558 120.024C791.558 121.176 790.958 121.992 789.878 122.328L791.882 126H790.178L788.246 122.496H785.486V126H783.878ZM788.51 118.908H785.486V121.092H788.51C789.434 121.092 789.902 120.756 789.902 120.024C789.902 119.244 789.434 118.908 788.51 118.908ZM802.101 126L797.589 122.1V126H795.981V117.48H797.589V121.308L801.981 117.48H804.141L799.377 121.62L804.345 126H802.101ZM807.955 126V117.48H814.855V118.872H809.563V120.816H812.719V122.22H809.563V124.572H815.335V126H807.955ZM818.529 118.92V117.48H826.905V118.92H823.521V126H821.913V118.92H818.529ZM830.943 126V117.48H832.563V126H830.943ZM845.319 117.48V126.036H844.059L838.887 119.508V126H837.327V117.48H839.199L843.771 123.324V117.48H845.319ZM858.042 124.896C857.478 125.412 856.254 126.156 854.286 126.156C851.466 126.156 849.618 124.344 849.618 121.716C849.618 119.172 851.442 117.324 853.998 117.324C856.506 117.324 857.562 118.752 857.838 119.664H856.134C855.882 119.34 855.258 118.752 853.998 118.752C852.318 118.764 851.262 120.036 851.262 121.716C851.262 123.492 852.438 124.728 854.298 124.728C855.402 124.728 856.146 124.44 856.494 124.2V122.46H853.494V121.092H858.042V124.896Z" fill="#E7D1A8"/>
</g>
<defs>
<filter id="filter0_f_0_775" x="640.468" y="-88.9869" width="815.682" height="815.682" filterUnits="userSpaceOnUse" color-interpolation-filters="sRGB">
<feFlood flood-opacity="0" result="BackgroundImageFix"/>
<feBlend mode="normal" in="SourceGraphic" in2="BackgroundImageFix" result="shape"/>
<feGaussianBlur stdDeviation="127.212" result="effect1_foregroundBlur_0_775"/>
</filter>
<filter id="filter1_f_0_775" x="209.194" y="-355.754" width="1625.4" height="1488.03" filterUnits="userSpaceOnUse" color-interpolation-filters="sRGB">
<feFlood flood-opacity="0" result="BackgroundImageFix"/>
<feBlend mode="normal" in="SourceGraphic" in2="BackgroundImageFix" result="shape"/>
<feGaussianBlur stdDeviation="272.399" result="effect1_foregroundBlur_0_775"/>
</filter>
<filter id="filter2_f_0_775" x="-198.18" y="-4.6792" width="1635.18" height="1673.26" filterUnits="userSpaceOnUse" color-interpolation-filters="sRGB">
<feFlood flood-opacity="0" result="BackgroundImageFix"/>
<feBlend mode="normal" in="SourceGraphic" in2="BackgroundImageFix" result="shape"/>
<feGaussianBlur stdDeviation="272.399" result="effect1_foregroundBlur_0_775"/>
</filter>
<filter id="filter3_f_0_775" x="825.629" y="169.9" width="182.221" height="258.012" filterUnits="userSpaceOnUse" color-interpolation-filters="sRGB">
<feFlood flood-opacity="0" result="BackgroundImageFix"/>
<feBlend mode="normal" in="SourceGraphic" in2="BackgroundImageFix" result="shape"/>
<feGaussianBlur stdDeviation="30.4202" result="effect1_foregroundBlur_0_775"/>
</filter>
<filter id="filter4_f_0_775" x="1104.81" y="107.466" width="182.221" height="258.012" filterUnits="userSpaceOnUse" color-interpolation-filters="sRGB">
<feFlood flood-opacity="0" result="BackgroundImageFix"/>
<feBlend mode="normal" in="SourceGraphic" in2="BackgroundImageFix" result="shape"/>
<feGaussianBlur stdDeviation="30.4202" result="effect1_foregroundBlur_0_775"/>
</filter>
<filter id="filter5_f_0_775" x="1128.24" y="222.411" width="182.221" height="258.012" filterUnits="userSpaceOnUse" color-interpolation-filters="sRGB">
<feFlood flood-opacity="0" result="BackgroundImageFix"/>
<feBlend mode="normal" in="SourceGraphic" in2="BackgroundImageFix" result="shape"/>
<feGaussianBlur stdDeviation="30.4202" result="effect1_foregroundBlur_0_775"/>
</filter>
<filter id="filter6_f_0_775" x="871.782" y="50.2707" width="167.484" height="205.066" filterUnits="userSpaceOnUse" color-interpolation-filters="sRGB">
<feFlood flood-opacity="0" result="BackgroundImageFix"/>
<feBlend mode="normal" in="SourceGraphic" in2="BackgroundImageFix" result="shape"/>
<feGaussianBlur stdDeviation="30.4202" result="effect1_foregroundBlur_0_775"/>
</filter>
<filter id="filter7_f_0_775" x="1100.98" y="367.186" width="174.972" height="187.38" filterUnits="userSpaceOnUse" color-interpolation-filters="sRGB">
<feFlood flood-opacity="0" result="BackgroundImageFix"/>
<feBlend mode="normal" in="SourceGraphic" in2="BackgroundImageFix" result="shape"/>
<feGaussianBlur stdDeviation="30.4202" result="effect1_foregroundBlur_0_775"/>
</filter>
<filter id="filter8_dddddd_0_775" x="551.745" y="-174.504" width="988.51" height="988.51" filterUnits="userSpaceOnUse" color-interpolation-filters="sRGB">
<feFlood flood-opacity="0" result="BackgroundImageFix"/>
<feColorMatrix in="SourceAlpha" type="matrix" values="0 0 0 0 0 0 0 0 0 0 0 0 0 0 0 0 0 0 127 0" result="hardAlpha"/>
<feOffset/>
<feGaussianBlur stdDeviation="3.26494"/>
<feColorMatrix type="matrix" values="0 0 0 0 0.988235 0 0 0 0 0.698039 0 0 0 0 0.2 0 0 0 1 0"/>
<feBlend mode="normal" in2="BackgroundImageFix" result="effect1_dropShadow_0_775"/>
<feColorMatrix in="SourceAlpha" type="matrix" values="0 0 0 0 0 0 0 0 0 0 0 0 0 0 0 0 0 0 127 0" result="hardAlpha"/>
<feOffset/>
<feGaussianBlur stdDeviation="6.52987"/>
<feColorMatrix type="matrix" values="0 0 0 0 0.988235 0 0 0 0 0.698039 0 0 0 0 0.2 0 0 0 1 0"/>
<feBlend mode="normal" in2="effect1_dropShadow_0_775" result="effect2_dropShadow_0_775"/>
<feColorMatrix in="SourceAlpha" type="matrix" values="0 0 0 0 0 0 0 0 0 0 0 0 0 0 0 0 0 0 127 0" result="hardAlpha"/>
<feOffset/>
<feGaussianBlur stdDeviation="22.8546"/>
<feColorMatrix type="matrix" values="0 0 0 0 0.988235 0 0 0 0 0.698039 0 0 0 0 0.2 0 0 0 1 0"/>
<feBlend mode="normal" in2="effect2_dropShadow_0_775" result="effect3_dropShadow_0_775"/>
<feColorMatrix in="SourceAlpha" type="matrix" values="0 0 0 0 0 0 0 0 0 0 0 0 0 0 0 0 0 0 127 0" result="hardAlpha"/>
<feOffset/>
<feGaussianBlur stdDeviation="45.7091"/>
<feColorMatrix type="matrix" values="0 0 0 0 0.988235 0 0 0 0 0.698039 0 0 0 0 0.2 0 0 0 1 0"/>
<feBlend mode="normal" in2="effect3_dropShadow_0_775" result="effect4_dropShadow_0_775"/>
<feColorMatrix in="SourceAlpha" type="matrix" values="0 0 0 0 0 0 0 0 0 0 0 0 0 0 0 0 0 0 127 0" result="hardAlpha"/>
<feOffset/>
<feGaussianBlur stdDeviation="78.3585"/>
<feColorMatrix type="matrix" values="0 0 0 0 0.988235 0 0 0 0 0.698039 0 0 0 0 0.2 0 0 0 1 0"/>
<feBlend mode="normal" in2="effect4_dropShadow_0_775" result="effect5_dropShadow_0_775"/>
<feColorMatrix in="SourceAlpha" type="matrix" values="0 0 0 0 0 0 0 0 0 0 0 0 0 0 0 0 0 0 127 0" result="hardAlpha"/>
<feOffset/>
<feGaussianBlur stdDeviation="137.127"/>
<feColorMatrix type="matrix" values="0 0 0 0 0.988235 0 0 0 0 0.698039 0 0 0 0 0.2 0 0 0 1 0"/>
<feBlend mode="normal" in2="effect5_dropShadow_0_775" result="effect6_dropShadow_0_775"/>
<feBlend mode="normal" in="SourceGraphic" in2="effect6_dropShadow_0_775" result="shape"/>
</filter>
<filter id="filter9_f_0_775" x="805.085" y="79.0829" width="499.568" height="563.897" filterUnits="userSpaceOnUse" color-interpolation-filters="sRGB">
<feFlood flood-opacity="0" result="BackgroundImageFix"/>
<feBlend mode="normal" in="SourceGraphic" in2="BackgroundImageFix" result="shape"/>
<feGaussianBlur stdDeviation="20.9492" result="effect1_foregroundBlur_0_775"/>
</filter>
<filter id="filter10_b_0_775" x="821.444" y="335.481" width="466.85" height="291.124" filterUnits="userSpaceOnUse" color-interpolation-filters="sRGB">
<feFlood flood-opacity="0" result="BackgroundImageFix"/>
<feGaussianBlur in="BackgroundImageFix" stdDeviation="12.7697"/>
<feComposite in2="SourceAlpha" operator="in" result="effect1_backgroundBlur_0_775"/>
<feBlend mode="normal" in="SourceGraphic" in2="effect1_backgroundBlur_0_775" result="shape"/>
</filter>
<filter id="filter11_b_0_775" x="1029.33" y="95.4419" width="258.964" height="411.146" filterUnits="userSpaceOnUse" color-interpolation-filters="sRGB">
<feFlood flood-opacity="0" result="BackgroundImageFix"/>
<feGaussianBlur in="BackgroundImageFix" stdDeviation="12.7697"/>
<feComposite in2="SourceAlpha" operator="in" result="effect1_backgroundBlur_0_775"/>
<feBlend mode="normal" in="SourceGraphic" in2="effect1_backgroundBlur_0_775" result="shape"/>
</filter>
<filter id="filter12_b_0_775" x="821.538" y="95.4439" width="258.964" height="411.146" filterUnits="userSpaceOnUse" color-interpolation-filters="sRGB">
<feFlood flood-opacity="0" result="BackgroundImageFix"/>
<feGaussianBlur in="BackgroundImageFix" stdDeviation="12.7697"/>
<feComposite in2="SourceAlpha" operator="in" result="effect1_backgroundBlur_0_775"/>
<feBlend mode="normal" in="SourceGraphic" in2="effect1_backgroundBlur_0_775" result="shape"/>
</filter>
<filter id="filter13_b_0_775" x="821.444" y="95.4519" width="466.85" height="291.124" filterUnits="userSpaceOnUse" color-interpolation-filters="sRGB">
<feFlood flood-opacity="0" result="BackgroundImageFix"/>
<feGaussianBlur in="BackgroundImageFix" stdDeviation="12.7697"/>
<feComposite in2="SourceAlpha" operator="in" result="effect1_backgroundBlur_0_775"/>
<feBlend mode="normal" in="SourceGraphic" in2="effect1_backgroundBlur_0_775" result="shape"/>
</filter>
<filter id="filter14_b_0_775" x="1029.33" y="215.474" width="258.964" height="411.146" filterUnits="userSpaceOnUse" color-interpolation-filters="sRGB">
<feFlood flood-opacity="0" result="BackgroundImageFix"/>
<feGaussianBlur in="BackgroundImageFix" stdDeviation="12.7697"/>
<feComposite in2="SourceAlpha" operator="in" result="effect1_backgroundBlur_0_775"/>
<feBlend mode="normal" in="SourceGraphic" in2="effect1_backgroundBlur_0_775" result="shape"/>
</filter>
<filter id="filter15_b_0_775" x="821.538" y="215.47" width="258.964" height="411.146" filterUnits="userSpaceOnUse" color-interpolation-filters="sRGB">
<feFlood flood-opacity="0" result="BackgroundImageFix"/>
<feGaussianBlur in="BackgroundImageFix" stdDeviation="12.7697"/>
<feComposite in2="SourceAlpha" operator="in" result="effect1_backgroundBlur_0_775"/>
<feBlend mode="normal" in="SourceGraphic" in2="effect1_backgroundBlur_0_775" result="shape"/>
</filter>
<filter id="filter16_f_0_775" x="772.931" y="111.243" width="563.885" height="499.619" filterUnits="userSpaceOnUse" color-interpolation-filters="sRGB">
<feFlood flood-opacity="0" result="BackgroundImageFix"/>
<feBlend mode="normal" in="SourceGraphic" in2="BackgroundImageFix" result="shape"/>
<feGaussianBlur stdDeviation="20.9492" result="effect1_foregroundBlur_0_775"/>
</filter>
<filter id="filter17_b_0_775" x="789.29" y="335.481" width="411.148" height="258.964" filterUnits="userSpaceOnUse" color-interpolation-filters="sRGB">
<feFlood flood-opacity="0" result="BackgroundImageFix"/>
<feGaussianBlur in="BackgroundImageFix" stdDeviation="12.7697"/>
<feComposite in2="SourceAlpha" operator="in" result="effect1_backgroundBlur_0_775"/>
<feBlend mode="normal" in="SourceGraphic" in2="effect1_backgroundBlur_0_775" result="shape"/>
</filter>
<filter id="filter18_b_0_775" x="1029.33" y="127.602" width="291.124" height="466.849" filterUnits="userSpaceOnUse" color-interpolation-filters="sRGB">
<feFlood flood-opacity="0" result="BackgroundImageFix"/>
<feGaussianBlur in="BackgroundImageFix" stdDeviation="12.7697"/>
<feComposite in2="SourceAlpha" operator="in" result="effect1_backgroundBlur_0_775"/>
<feBlend mode="normal" in="SourceGraphic" in2="effect1_backgroundBlur_0_775" result="shape"/>
</filter>
<filter id="filter19_b_0_775" x="789.368" y="127.65" width="411.147" height="258.964" filterUnits="userSpaceOnUse" color-interpolation-filters="sRGB">
<feFlood flood-opacity="0" result="BackgroundImageFix"/>
<feGaussianBlur in="BackgroundImageFix" stdDeviation="12.7696"/>
<feComposite in2="SourceAlpha" operator="in" result="effect1_backgroundBlur_0_775"/>
<feBlend mode="normal" in="SourceGraphic" in2="effect1_backgroundBlur_0_775" result="shape"/>
</filter>
<filter id="filter20_b_0_775" x="909.304" y="127.611" width="411.148" height="258.964" filterUnits="userSpaceOnUse" color-interpolation-filters="sRGB">
<feFlood flood-opacity="0" result="BackgroundImageFix"/>
<feGaussianBlur in="BackgroundImageFix" stdDeviation="12.7697"/>
<feComposite in2="SourceAlpha" operator="in" result="effect1_backgroundBlur_0_775"/>
<feBlend mode="normal" in="SourceGraphic" in2="effect1_backgroundBlur_0_775" result="shape"/>
</filter>
<filter id="filter21_b_0_775" x="909.305" y="335.496" width="411.147" height="258.964" filterUnits="userSpaceOnUse" color-interpolation-filters="sRGB">
<feFlood flood-opacity="0" result="BackgroundImageFix"/>
<feGaussianBlur in="BackgroundImageFix" stdDeviation="12.7696"/>
<feComposite in2="SourceAlpha" operator="in" result="effect1_backgroundBlur_0_775"/>
<feBlend mode="normal" in="SourceGraphic" in2="effect1_backgroundBlur_0_775" result="shape"/>
</filter>
<filter id="filter22_b_0_775" x="789.366" y="127.654" width="291.124" height="466.849" filterUnits="userSpaceOnUse" color-interpolation-filters="sRGB">
<feFlood flood-opacity="0" result="BackgroundImageFix"/>
<feGaussianBlur in="BackgroundImageFix" stdDeviation="12.7697"/>
<feComposite in2="SourceAlpha" operator="in" result="effect1_backgroundBlur_0_775"/>
<feBlend mode="normal" in="SourceGraphic" in2="effect1_backgroundBlur_0_775" result="shape"/>
</filter>
<filter id="filter23_f_0_775" x="837.172" y="59.0751" width="563.885" height="499.619" filterUnits="userSpaceOnUse" color-interpolation-filters="sRGB">
<feFlood flood-opacity="0" result="BackgroundImageFix"/>
<feBlend mode="normal" in="SourceGraphic" in2="BackgroundImageFix" result="shape"/>
<feGaussianBlur stdDeviation="20.9492" result="effect1_foregroundBlur_0_775"/>
</filter>
<filter id="filter24_b_0_775" x="853.531" y="283.313" width="411.148" height="258.964" filterUnits="userSpaceOnUse" color-interpolation-filters="sRGB">
<feFlood flood-opacity="0" result="BackgroundImageFix"/>
<feGaussianBlur in="BackgroundImageFix" stdDeviation="12.7697"/>
<feComposite in2="SourceAlpha" operator="in" result="effect1_backgroundBlur_0_775"/>
<feBlend mode="normal" in="SourceGraphic" in2="effect1_backgroundBlur_0_775" result="shape"/>
</filter>
<filter id="filter25_b_0_775" x="1093.57" y="75.4341" width="291.124" height="466.849" filterUnits="userSpaceOnUse" color-interpolation-filters="sRGB">
<feFlood flood-opacity="0" result="BackgroundImageFix"/>
<feGaussianBlur in="BackgroundImageFix" stdDeviation="12.7697"/>
<feComposite in2="SourceAlpha" operator="in" result="effect1_backgroundBlur_0_775"/>
<feBlend mode="normal" in="SourceGraphic" in2="effect1_backgroundBlur_0_775" result="shape"/>
</filter>
<filter id="filter26_b_0_775" x="853.609" y="75.4824" width="411.147" height="258.964" filterUnits="userSpaceOnUse" color-interpolation-filters="sRGB">
<feFlood flood-opacity="0" result="BackgroundImageFix"/>
<feGaussianBlur in="BackgroundImageFix" stdDeviation="12.7696"/>
<feComposite in2="SourceAlpha" operator="in" result="effect1_backgroundBlur_0_775"/>
<feBlend mode="normal" in="SourceGraphic" in2="effect1_backgroundBlur_0_775" result="shape"/>
</filter>
<filter id="filter27_b_0_775" x="973.545" y="75.4426" width="411.148" height="258.964" filterUnits="userSpaceOnUse" color-interpolation-filters="sRGB">
<feFlood flood-opacity="0" result="BackgroundImageFix"/>
<feGaussianBlur in="BackgroundImageFix" stdDeviation="12.7697"/>
<feComposite in2="SourceAlpha" operator="in" result="effect1_backgroundBlur_0_775"/>
<feBlend mode="normal" in="SourceGraphic" in2="effect1_backgroundBlur_0_775" result="shape"/>
</filter>
<filter id="filter28_b_0_775" x="973.546" y="283.328" width="411.147" height="258.964" filterUnits="userSpaceOnUse" color-interpolation-filters="sRGB">
<feFlood flood-opacity="0" result="BackgroundImageFix"/>
<feGaussianBlur in="BackgroundImageFix" stdDeviation="12.7696"/>
<feComposite in2="SourceAlpha" operator="in" result="effect1_backgroundBlur_0_775"/>
<feBlend mode="normal" in="SourceGraphic" in2="effect1_backgroundBlur_0_775" result="shape"/>
</filter>
<filter id="filter29_b_0_775" x="853.607" y="75.4856" width="291.124" height="466.849" filterUnits="userSpaceOnUse" color-interpolation-filters="sRGB">
<feFlood flood-opacity="0" result="BackgroundImageFix"/>
<feGaussianBlur in="BackgroundImageFix" stdDeviation="12.7697"/>
<feComposite in2="SourceAlpha" operator="in" result="effect1_backgroundBlur_0_775"/>
<feBlend mode="normal" in="SourceGraphic" in2="effect1_backgroundBlur_0_775" result="shape"/>
</filter>
<radialGradient id="paint0_radial_0_775" cx="0" cy="0" r="1" gradientUnits="userSpaceOnUse" gradientTransform="translate(1041.27 303.149) rotate(90) scale(160.297)">
<stop stop-color="#D18D0E"/>
<stop offset="1" stop-color="#FFC55A"/>
</radialGradient>
<radialGradient id="paint1_radial_0_775" cx="0" cy="0" r="1" gradientUnits="userSpaceOnUse" gradientTransform="translate(1038.3 296.536) rotate(90) scale(227.79)">
<stop stop-color="#D18D0E"/>
<stop offset="1" stop-color="#FFC55A"/>
</radialGradient>
<linearGradient id="paint2_linear_0_775" x1="956.966" y1="429.981" x2="1161.22" y2="184.702" gradientUnits="userSpaceOnUse">
<stop stop-color="#B87526"/>
<stop offset="1" stop-color="#FFC368"/>
</linearGradient>
<linearGradient id="paint3_linear_0_775" x1="956.966" y1="429.981" x2="1161.22" y2="184.702" gradientUnits="userSpaceOnUse">
<stop stop-color="#B87526"/>
<stop offset="1" stop-color="#FFC368"/>
</linearGradient>
<linearGradient id="paint4_linear_0_775" x1="239.99" y1="-0.0554954" x2="-11.3076" y2="-0.0555097" gradientUnits="userSpaceOnUse">
<stop stop-color="white"/>
<stop offset="1" stop-color="white" stop-opacity="0"/>
</linearGradient>
<linearGradient id="paint5_linear_0_775" x1="12.9929" y1="238.8" x2="253.192" y2="224.719" gradientUnits="userSpaceOnUse">
<stop stop-color="white"/>
<stop offset="1" stop-color="white" stop-opacity="0"/>
</linearGradient>
<linearGradient id="paint6_linear_0_775" x1="239.935" y1="245.241" x2="-24.7492" y2="233.388" gradientUnits="userSpaceOnUse">
<stop stop-color="white"/>
<stop offset="1" stop-color="white" stop-opacity="0"/>
</linearGradient>
<linearGradient id="paint7_linear_0_775" x1="1238.29" y1="787.75" x2="1434.76" y2="552.707" gradientUnits="userSpaceOnUse">
<stop stop-color="#B87526"/>
<stop offset="1" stop-color="#FFC368"/>
</linearGradient>
<linearGradient id="paint8_linear_0_775" x1="1008.96" y1="779.477" x2="1201.95" y2="548.592" gradientUnits="userSpaceOnUse">
<stop stop-color="#B87526"/>
<stop offset="1" stop-color="#FFC368"/>
</linearGradient>
<linearGradient id="paint9_linear_0_775" x1="239.99" y1="-0.0554954" x2="-11.3076" y2="-0.0555097" gradientUnits="userSpaceOnUse">
<stop stop-color="white"/>
<stop offset="1" stop-color="white" stop-opacity="0"/>
</linearGradient>
<linearGradient id="paint10_linear_0_775" x1="12.9929" y1="238.8" x2="253.192" y2="224.719" gradientUnits="userSpaceOnUse">
<stop stop-color="white"/>
<stop offset="1" stop-color="white" stop-opacity="0"/>
</linearGradient>
<linearGradient id="paint11_linear_0_775" x1="239.935" y1="245.241" x2="-24.7492" y2="233.388" gradientUnits="userSpaceOnUse">
<stop stop-color="white"/>
<stop offset="1" stop-color="white" stop-opacity="0"/>
</linearGradient>
<linearGradient id="paint12_linear_0_775" x1="1008.96" y1="779.476" x2="1201.95" y2="548.592" gradientUnits="userSpaceOnUse">
<stop stop-color="#B87526"/>
<stop offset="1" stop-color="#FFC368"/>
</linearGradient>
<linearGradient id="paint13_linear_0_775" x1="239.99" y1="-0.0554954" x2="-11.3076" y2="-0.0555097" gradientUnits="userSpaceOnUse">
<stop stop-color="white"/>
<stop offset="1" stop-color="white" stop-opacity="0"/>
</linearGradient>
<linearGradient id="paint14_linear_0_775" x1="12.9929" y1="238.8" x2="253.192" y2="224.719" gradientUnits="userSpaceOnUse">
<stop stop-color="white"/>
<stop offset="1" stop-color="white" stop-opacity="0"/>
</linearGradient>
<linearGradient id="paint15_linear_0_775" x1="239.935" y1="245.241" x2="-24.7492" y2="233.388" gradientUnits="userSpaceOnUse">
<stop stop-color="white"/>
<stop offset="1" stop-color="white" stop-opacity="0"/>
</linearGradient>
<clipPath id="clip0_0_775">
<rect width="1496" height="614" fill="white" transform="translate(0 0.750488)"/>
</clipPath>
<clipPath id="clip1_0_775">
<rect width="1411.77" height="1377.21" fill="white" transform="translate(342.231 -387.437)"/>
</clipPath>
<clipPath id="clip2_0_775">
<rect width="440" height="440" fill="white" transform="translate(826 99.7505)"/>
</clipPath>
<clipPath id="clip3_0_775">
<rect width="440" height="440" fill="white" transform="translate(826 99.7505)"/>
</clipPath>
</defs>
</svg>
