<svg width="48" height="49" viewBox="0 0 48 49" fill="none" xmlns="http://www.w3.org/2000/svg">
<path d="M8.68726 0.750488H48V48.7505H0V9.76207L8.68726 0.750488Z" fill="#D18D0E"/>
<mask id="path-2-inside-1_2001_526" fill="white">
<rect x="35.6666" y="36.4175" width="3.33333" height="3.33333" rx="0.5"/>
</mask>
<rect x="35.6666" y="36.4175" width="3.33333" height="3.33333" rx="0.5" stroke="#1E1E1E" stroke-width="2" mask="url(#path-2-inside-1_2001_526)"/>
<mask id="path-3-inside-2_2001_526" fill="white">
<rect x="30.6666" y="36.4175" width="3.33333" height="3.33333" rx="0.5"/>
</mask>
<rect x="30.6666" y="36.4175" width="3.33333" height="3.33333" rx="0.5" stroke="#1E1E1E" stroke-width="2" mask="url(#path-3-inside-2_2001_526)"/>
<mask id="path-4-inside-3_2001_526" fill="white">
<rect x="35.6666" y="31.4175" width="3.33333" height="3.33333" rx="0.5"/>
</mask>
<rect x="35.6666" y="31.4175" width="3.33333" height="3.33333" rx="0.5" stroke="#1E1E1E" stroke-width="2" mask="url(#path-4-inside-3_2001_526)"/>
<mask id="path-5-inside-4_2001_526" fill="white">
<rect x="35.6666" y="26.4175" width="3.33333" height="3.33333" rx="0.5"/>
</mask>
<rect x="35.6666" y="26.4175" width="3.33333" height="3.33333" rx="0.5" stroke="#1E1E1E" stroke-width="2" mask="url(#path-5-inside-4_2001_526)"/>
<mask id="path-6-inside-5_2001_526" fill="white">
<rect x="30.6666" y="21.4175" width="8.33333" height="3.33333" rx="0.5"/>
</mask>
<rect x="30.6666" y="21.4175" width="8.33333" height="3.33333" rx="0.5" fill="#1E1E1E" stroke="#1E1E1E" stroke-width="2" mask="url(#path-6-inside-5_2001_526)"/>
<mask id="path-7-inside-6_2001_526" fill="white">
<rect x="20.6666" y="36.4175" width="8.33333" height="3.33333" rx="0.5"/>
</mask>
<rect x="20.6666" y="36.4175" width="8.33333" height="3.33333" rx="0.5" fill="#1E1E1E" stroke="#1E1E1E" stroke-width="2" mask="url(#path-7-inside-6_2001_526)"/>
<mask id="path-8-inside-7_2001_526" fill="white">
<rect x="20.6666" y="26.4175" width="8.33333" height="8.33333" rx="0.5"/>
</mask>
<rect x="20.6666" y="26.4175" width="8.33333" height="8.33333" rx="0.5" fill="#1E1E1E" stroke="#1E1E1E" stroke-width="2" mask="url(#path-8-inside-7_2001_526)"/>
<mask id="path-9-inside-8_2001_526" fill="white">
<rect x="9" y="26.4175" width="10" height="13.3333" rx="0.5"/>
</mask>
<rect x="9" y="26.4175" width="10" height="13.3333" rx="0.5" fill="#1E1E1E" stroke="#1E1E1E" stroke-width="2" mask="url(#path-9-inside-8_2001_526)"/>
<mask id="path-10-inside-9_2001_526" fill="white">
<rect x="9" y="9.75049" width="10" height="15" rx="0.5"/>
</mask>
<rect x="9" y="9.75049" width="10" height="15" rx="0.5" fill="#1E1E1E" stroke="#1E1E1E" stroke-width="2" mask="url(#path-10-inside-9_2001_526)"/>
<mask id="path-11-inside-10_2001_526" fill="white">
<rect x="20.6666" y="9.75049" width="8.33333" height="10" rx="0.5"/>
</mask>
<rect x="20.6666" y="9.75049" width="8.33333" height="10" rx="0.5" fill="#1E1E1E" stroke="#1E1E1E" stroke-width="2" mask="url(#path-11-inside-10_2001_526)"/>
<mask id="path-12-inside-11_2001_526" fill="white">
<rect x="20.6666" y="21.4175" width="8.33333" height="3.33333" rx="0.5"/>
</mask>
<rect x="20.6666" y="21.4175" width="8.33333" height="3.33333" rx="0.5" fill="#1E1E1E" stroke="#1E1E1E" stroke-width="2" mask="url(#path-12-inside-11_2001_526)"/>
<mask id="path-13-inside-12_2001_526" fill="white">
<rect x="30.6666" y="16.4175" width="8.33333" height="3.33333" rx="0.5"/>
</mask>
<rect x="30.6666" y="16.4175" width="8.33333" height="3.33333" rx="0.5" fill="#1E1E1E" stroke="#1E1E1E" stroke-width="2" mask="url(#path-13-inside-12_2001_526)"/>
<mask id="path-14-inside-13_2001_526" fill="white">
<rect x="30.6666" y="9.75049" width="8.33333" height="5" rx="0.5"/>
</mask>
<rect x="30.6666" y="9.75049" width="8.33333" height="5" rx="0.5" fill="#1E1E1E" stroke="#1E1E1E" stroke-width="2" mask="url(#path-14-inside-13_2001_526)"/>
<mask id="path-15-inside-14_2001_526" fill="white">
<rect x="30.6666" y="26.4175" width="3.33333" height="3.33333" rx="0.5"/>
</mask>
<rect x="30.6666" y="26.4175" width="3.33333" height="3.33333" rx="0.5" stroke="#1E1E1E" stroke-width="2" mask="url(#path-15-inside-14_2001_526)"/>
<mask id="path-16-inside-15_2001_526" fill="white">
<rect x="30.6666" y="31.4175" width="3.33333" height="3.33333" rx="0.5"/>
</mask>
<rect x="30.6666" y="31.4175" width="3.33333" height="3.33333" rx="0.5" stroke="#1E1E1E" stroke-width="2" mask="url(#path-16-inside-15_2001_526)"/>
</svg>
