<svg width="21" height="20" viewBox="0 0 21 20" fill="none" xmlns="http://www.w3.org/2000/svg">
<g clip-path="url(#clip0_4_90)">
<path d="M17.0529 3.4629C15.7782 2.87799 14.4112 2.44707 12.982 2.20025C12.956 2.19549 12.93 2.20739 12.9165 2.2312C12.7407 2.54388 12.546 2.9518 12.4096 3.27242C10.8724 3.04228 9.34306 3.04228 7.83734 3.27242C7.70094 2.94467 7.49914 2.54388 7.32255 2.2312C7.30914 2.20819 7.28314 2.19629 7.25711 2.20025C5.82866 2.44628 4.4617 2.87721 3.18618 3.4629C3.17514 3.46766 3.16568 3.4756 3.15939 3.48591C0.566563 7.35954 -0.143722 11.138 0.20472 14.8695C0.206297 14.8878 0.216545 14.9053 0.230735 14.9164C1.94141 16.1726 3.59849 16.9353 5.2248 17.4408C5.25083 17.4488 5.27841 17.4393 5.29497 17.4178C5.67968 16.8925 6.02261 16.3385 6.31663 15.756C6.33399 15.7219 6.31742 15.6814 6.28196 15.6679C5.73801 15.4616 5.22007 15.21 4.72185 14.9243C4.68244 14.9013 4.67928 14.8449 4.71554 14.8179C4.82038 14.7394 4.92525 14.6576 5.02537 14.5751C5.04348 14.56 5.06872 14.5568 5.09001 14.5664C8.36314 16.0608 11.9067 16.0608 15.1412 14.5664C15.1625 14.5561 15.1877 14.5592 15.2066 14.5743C15.3068 14.6568 15.4116 14.7394 15.5173 14.8179C15.5535 14.8449 15.5511 14.9013 15.5117 14.9243C15.0135 15.2155 14.4956 15.4616 13.9508 15.6671C13.9154 15.6806 13.8996 15.7219 13.9169 15.756C14.2173 16.3377 14.5602 16.8917 14.9378 17.417C14.9536 17.4393 14.982 17.4488 15.008 17.4408C16.6422 16.9353 18.2993 16.1726 20.0099 14.9164C20.0249 14.9053 20.0344 14.8886 20.036 14.8703C20.453 10.5562 19.3375 6.80878 17.0789 3.4867C17.0734 3.4756 17.064 3.46766 17.0529 3.4629ZM6.80542 12.5974C5.81999 12.5974 5.00801 11.6927 5.00801 10.5816C5.00801 9.47056 5.80424 8.56585 6.80542 8.56585C7.81447 8.56585 8.61858 9.4785 8.6028 10.5816C8.6028 11.6927 7.80658 12.5974 6.80542 12.5974ZM13.451 12.5974C12.4656 12.5974 11.6536 11.6927 11.6536 10.5816C11.6536 9.47056 12.4498 8.56585 13.451 8.56585C14.4601 8.56585 15.2642 9.4785 15.2484 10.5816C15.2484 11.6927 14.4601 12.5974 13.451 12.5974Z" fill="#D2BF9A" fill-opacity="0.75"/>
</g>
<defs>
<clipPath id="clip0_4_90">
<rect width="20" height="20" fill="white" transform="translate(0.12207)"/>
</clipPath>
</defs>
</svg>
