<svg width="696" height="417" viewBox="0 0 696 417" fill="none" xmlns="http://www.w3.org/2000/svg">
<g clip-path="url(#clip0_2033_2212)">
<g clip-path="url(#clip1_2033_2212)">
<circle opacity="0.3" cx="342.645" cy="239.994" r="223.764" stroke="#D18D0E" stroke-width="0.804131"/>
<g opacity="0.75" filter="url(#filter0_f_2033_2212)">
<circle cx="342.645" cy="239.994" r="89.2201" fill="#D18D0E"/>
<circle cx="342.645" cy="239.994" r="89.2201" fill="url(#paint0_radial_2033_2212)"/>
<circle cx="342.645" cy="239.994" r="88.818" stroke="#D18D0E" stroke-width="0.804131"/>
</g>
<g opacity="0.75">
<circle cx="342.645" cy="239.993" r="126.384" fill="#D18D0E"/>
<circle cx="342.645" cy="239.993" r="126.384" fill="url(#paint1_radial_2033_2212)"/>
<circle cx="342.645" cy="239.993" r="126.384" stroke="#D18D0E" stroke-width="0.804131"/>
</g>
<circle opacity="0.15" cx="342.645" cy="239.993" r="305.093" stroke="#D18D0E" stroke-width="0.804131"/>
<circle opacity="0.5" cx="342.645" cy="239.994" r="410.342" stroke="#D18D0E" stroke-opacity="0.1" stroke-width="0.804131"/>
</g>
<g opacity="0.75" filter="url(#filter1_f_2033_2212)">
<ellipse cx="327.283" cy="280.358" rx="157.899" ry="112.91" transform="rotate(13.5265 327.283 280.358)" fill="#D18D0E"/>
<path d="M480.411 317.195C473.157 347.351 449.488 370.576 417.013 383.724C384.538 396.872 343.289 399.926 300.968 389.745C258.648 379.564 223.301 358.084 200.359 331.605C177.417 305.125 166.901 273.676 174.155 243.52C181.41 213.365 205.079 190.139 237.554 176.991C270.028 163.843 311.277 160.789 353.598 170.97C395.919 181.151 431.266 202.632 454.208 229.111C477.15 255.59 487.666 287.04 480.411 317.195Z" stroke="#D18D0E" stroke-width="0.804131"/>
</g>
<g style="mix-blend-mode:difference" opacity="0.25" filter="url(#filter2_f_2033_2212)">
<ellipse cx="93.2192" cy="538.385" rx="157.899" ry="170.336" transform="rotate(13.5265 93.2192 538.385)" fill="#D18D0E"/>
<path d="M246.347 575.223C224.389 666.5 138.016 723.944 53.4727 703.605C-31.0702 683.267 -81.867 592.825 -59.9087 501.548C-37.9505 410.271 48.4229 352.827 132.966 373.165C217.509 393.504 268.305 483.946 246.347 575.223Z" stroke="#D18D0E" stroke-width="0.804131"/>
</g>
<g opacity="0.65" filter="url(#filter3_f_2033_2212)">
<ellipse cx="266.131" cy="228.392" rx="15.2423" ry="40.6048" transform="rotate(13.5265 266.131 228.392)" fill="#D18D0E"/>
<path d="M280.559 231.863C277.945 242.73 273.928 252.153 269.561 258.603C267.377 261.829 265.117 264.293 262.918 265.826C260.719 267.36 258.622 267.936 256.728 267.48C254.833 267.024 253.228 265.557 251.966 263.191C250.705 260.826 249.813 257.604 249.335 253.738C248.38 246.007 249.088 235.788 251.702 224.921C254.317 214.054 258.333 204.631 262.7 198.181C264.885 194.955 267.144 192.491 269.343 190.958C271.543 189.425 273.64 188.849 275.534 189.305C277.428 189.76 279.034 191.227 280.295 193.593C281.556 195.958 282.448 199.18 282.926 203.047C283.882 210.777 283.174 220.996 280.559 231.863Z" stroke="#D18D0E" stroke-width="0.804131"/>
</g>
<g opacity="0.75" filter="url(#filter4_f_2033_2212)">
<ellipse cx="428.489" cy="192.084" rx="15.2423" ry="40.6048" transform="rotate(13.5265 428.489 192.084)" fill="#D18D0E"/>
<path d="M442.917 195.555C440.303 206.422 436.286 215.845 431.919 222.295C429.735 225.521 427.475 227.985 425.276 229.518C423.077 231.051 420.98 231.627 419.085 231.171C417.191 230.716 415.585 229.249 414.324 226.883C413.063 224.518 412.171 221.296 411.693 217.429C410.737 209.699 411.446 199.48 414.06 188.613C416.674 177.746 420.691 168.323 425.058 161.873C427.242 158.647 429.502 156.183 431.701 154.65C433.9 153.117 435.997 152.541 437.892 152.996C439.786 153.452 441.392 154.919 442.653 157.285C443.914 159.65 444.806 162.872 445.284 166.739C446.24 174.469 445.531 184.688 442.917 195.555Z" stroke="#D18D0E" stroke-width="0.804131"/>
</g>
<g opacity="0.55" filter="url(#filter5_f_2033_2212)">
<ellipse cx="442.117" cy="258.93" rx="15.2423" ry="40.6048" transform="rotate(13.5265 442.117 258.93)" fill="#D18D0E"/>
<path d="M456.546 262.401C453.931 273.269 449.914 282.692 445.547 289.141C443.363 292.367 441.103 294.831 438.905 296.364C436.705 297.898 434.608 298.474 432.714 298.018C430.819 297.562 429.214 296.095 427.952 293.73C426.691 291.364 425.8 288.142 425.321 284.276C424.366 276.545 425.074 266.326 427.688 255.459C430.303 244.592 434.319 235.169 438.686 228.719C440.871 225.493 443.131 223.029 445.329 221.496C447.529 219.963 449.626 219.387 451.52 219.843C453.414 220.298 455.02 221.765 456.281 224.131C457.542 226.496 458.434 229.718 458.912 233.585C459.868 241.315 459.16 251.534 456.546 262.401Z" stroke="#D18D0E" stroke-width="0.804131"/>
</g>
<g opacity="0.35" filter="url(#filter6_f_2033_2212)">
<ellipse cx="288.686" cy="143.427" rx="12.3322" ry="24.7584" transform="rotate(13.5265 288.686 143.427)" fill="#D18D0E"/>
<path d="M300.285 146.217C298.697 152.817 295.931 158.452 292.761 162.229C289.574 166.027 286.071 167.849 282.989 167.107C279.906 166.366 277.616 163.15 276.504 158.318C275.399 153.513 275.499 147.236 277.086 140.636C278.674 134.036 281.44 128.401 284.61 124.624C287.797 120.826 291.3 119.005 294.382 119.746C297.465 120.488 299.756 123.703 300.867 128.535C301.972 133.341 301.873 139.617 300.285 146.217Z" stroke="#D18D0E" stroke-width="0.804131"/>
</g>
<g opacity="0.45" filter="url(#filter7_f_2033_2212)">
<ellipse cx="424.154" cy="322.587" rx="15.2423" ry="19.2999" transform="rotate(13.5265 424.154 322.587)" fill="#D18D0E"/>
<path d="M438.583 326.058C436.12 336.296 427.622 342.858 419.734 340.96C411.846 339.063 407.262 329.354 409.726 319.116C412.189 308.877 420.686 302.316 428.574 304.213C436.462 306.111 441.046 315.819 438.583 326.058Z" stroke="#D18D0E" stroke-width="0.804131"/>
</g>
<g opacity="0.21">
<g clip-path="url(#clip2_2033_2212)" filter="url(#filter8_dddddd_2033_2212)">
<path d="M341.302 112.574C368.799 112.574 395.565 121.433 417.632 137.837C439.7 154.242 455.895 177.32 463.817 203.651C471.74 229.982 470.969 258.165 461.618 284.023C452.268 309.881 434.835 332.039 411.904 347.213L341.302 240.515V112.574Z" fill="#D18D0E"/>
<path d="M411.904 347.212C392.293 360.188 369.485 367.509 345.986 368.37C322.487 369.23 299.204 363.598 278.697 352.092C258.189 340.585 241.25 323.649 229.739 303.144C218.227 282.639 212.59 259.358 213.446 235.858L341.302 240.514L411.904 347.212Z" fill="#FCB232"/>
<path d="M213.446 235.859C214.129 217.102 218.93 198.725 227.51 182.031L341.302 240.515L213.446 235.859Z" fill="#FB892B"/>
<path d="M227.51 182.032C234.652 168.137 244.277 155.668 255.91 145.241L341.302 240.515L227.51 182.032Z" fill="#FC9F2F"/>
<path d="M255.91 145.241C267.543 134.814 280.988 126.606 295.578 121.023L341.302 240.515L255.91 145.241Z" fill="#FBB767"/>
<path d="M295.578 121.023C310.168 115.44 325.658 112.576 341.28 112.574L341.302 240.515L295.578 121.023Z" fill="#FBC78B"/>
</g>
</g>
<g clip-path="url(#clip3_2033_2212)">
<path d="M374.416 116.933C400.976 124.05 424.536 139.534 441.606 161.091C458.676 182.649 468.346 209.132 469.184 236.616C470.022 264.1 461.983 291.123 446.258 313.68C430.533 336.237 407.96 353.128 381.882 361.85L341.302 240.515L374.416 116.933Z" fill="#D18D0E"/>
<path d="M381.883 361.849C359.582 369.308 335.656 370.476 312.735 365.225C289.813 359.975 268.782 348.509 251.952 332.086C235.121 315.664 223.142 294.921 217.33 272.135C211.518 249.35 212.099 225.403 219.007 202.926L341.302 240.514L381.883 361.849Z" fill="#FCB232"/>
<path d="M219.007 202.926C224.522 184.985 233.916 168.477 246.524 154.572L341.302 240.515L219.007 202.926Z" fill="#FB892B"/>
<path d="M246.524 154.573C257.018 143 269.543 133.447 283.478 126.387L341.302 240.515L246.524 154.573Z" fill="#FC9F2F"/>
<path d="M283.478 126.386C297.414 119.325 312.525 114.877 328.063 113.26L341.302 240.514L283.478 126.386Z" fill="#FBB767"/>
<path d="M328.063 113.261C343.601 111.644 359.304 112.887 374.394 116.927L341.302 240.515L328.063 113.261Z" fill="#FBC78B"/>
<rect x="231.971" y="131.328" width="218.663" height="218.663" rx="109.332" fill="#242424"/>
<rect x="242.586" y="142.138" width="197.537" height="196.795" rx="98.3974" fill="#BF7B15"/>
<rect x="242.586" y="142.138" width="197.537" height="196.795" rx="98.3974" fill="url(#paint2_linear_2033_2212)" fill-opacity="0.5"/>
<mask id="mask0_2033_2212" style="mask-type:alpha" maskUnits="userSpaceOnUse" x="242" y="142" width="199" height="197">
<rect x="242.586" y="142.138" width="197.537" height="196.795" rx="98.3974" fill="#BF7B15"/>
<rect x="242.586" y="142.138" width="197.537" height="196.795" rx="98.3974" fill="url(#paint3_linear_2033_2212)" fill-opacity="0.5"/>
</mask>
<g mask="url(#mask0_2033_2212)">
<g filter="url(#filter9_f_2033_2212)">
<g filter="url(#filter10_b_2033_2212)">
<rect width="139.599" height="139.599" transform="matrix(-0.866026 -0.499999 -0.866026 0.499999 467.356 334.315)" fill="#523A15"/>
</g>
<g filter="url(#filter11_b_2033_2212)">
<rect width="139.599" height="139.598" transform="matrix(-0.866026 -0.499999 -2.76993e-08 1 467.356 194.72)" fill="#F98600" fill-opacity="0.8"/>
</g>
<g filter="url(#filter12_b_2033_2212)">
<rect width="139.599" height="139.598" transform="matrix(-0.866026 0.499999 2.76993e-08 1 346.515 124.922)" fill="#FFAA29"/>
</g>
<g filter="url(#filter13_b_2033_2212)">
<rect width="139.599" height="139.599" transform="matrix(-0.866026 -0.499999 -0.866026 0.499999 467.356 194.726)" fill="url(#paint4_linear_2033_2212)" fill-opacity="0.6"/>
</g>
<g filter="url(#filter14_b_2033_2212)">
<rect width="139.599" height="139.598" transform="matrix(-0.866026 0.499999 2.76993e-08 1 467.356 194.726)" fill="url(#paint5_linear_2033_2212)" fill-opacity="0.6"/>
</g>
<g filter="url(#filter15_b_2033_2212)">
<rect width="139.599" height="139.598" transform="matrix(-0.866026 -0.499999 -2.76993e-08 1 346.515 264.522)" fill="url(#paint6_linear_2033_2212)" fill-opacity="0.4"/>
</g>
</g>
</g>
<rect x="408.182" y="356.498" width="189.165" height="189.165" rx="94.5825" transform="rotate(-165 408.182 356.498)" fill="#BF7B15"/>
<rect x="408.182" y="356.498" width="189.165" height="189.165" rx="94.5825" transform="rotate(-165 408.182 356.498)" fill="url(#paint7_linear_2033_2212)" fill-opacity="0.5"/>
<mask id="mask1_2033_2212" style="mask-type:alpha" maskUnits="userSpaceOnUse" x="248" y="147" width="187" height="187">
<rect x="275.605" y="354.45" width="185.819" height="185.819" rx="92.9095" transform="rotate(-105 275.605 354.45)" fill="#BF7B15"/>
<rect x="275.605" y="354.45" width="185.819" height="185.819" rx="92.9095" transform="rotate(-105 275.605 354.45)" fill="url(#paint8_linear_2033_2212)" fill-opacity="0.5"/>
</mask>
<g mask="url(#mask1_2033_2212)">
<g filter="url(#filter16_f_2033_2212)">
<g filter="url(#filter17_b_2033_2212)">
<rect width="139.599" height="139.599" transform="matrix(-0.500001 -0.866025 -1 -1.41582e-06 416.263 385.412)" fill="#523A15"/>
</g>
<g filter="url(#filter18_b_2033_2212)">
<rect width="139.599" height="139.598" transform="matrix(-0.500001 -0.866025 -0.5 0.866025 486.06 264.519)" fill="#F98600" fill-opacity="0.8"/>
</g>
<g filter="url(#filter19_b_2033_2212)">
<rect width="139.599" height="139.598" transform="matrix(-1 -1.41582e-06 -0.5 0.866025 416.307 143.652)" fill="#FFAA29"/>
</g>
<g filter="url(#filter20_b_2033_2212)">
<rect width="139.599" height="139.599" transform="matrix(-0.500001 -0.866025 -1 -1.41582e-06 486.057 264.525)" fill="url(#paint9_linear_2033_2212)" fill-opacity="0.6"/>
</g>
<g filter="url(#filter21_b_2033_2212)">
<rect width="139.599" height="139.598" transform="matrix(-1 -1.41582e-06 -0.5 0.866025 486.057 264.525)" fill="url(#paint10_linear_2033_2212)" fill-opacity="0.6"/>
</g>
<g filter="url(#filter22_b_2033_2212)">
<rect width="139.599" height="139.598" transform="matrix(-0.500001 -0.866025 -0.5 0.866025 346.507 264.549)" fill="url(#paint11_linear_2033_2212)" fill-opacity="0.4"/>
</g>
</g>
</g>
<g opacity="0.7">
<rect x="275.605" y="354.449" width="185.819" height="185.819" rx="92.9095" transform="rotate(-105 275.605 354.449)" fill="#BF7B15"/>
<rect x="275.605" y="354.449" width="185.819" height="185.819" rx="92.9095" transform="rotate(-105 275.605 354.449)" fill="url(#paint12_linear_2033_2212)" fill-opacity="0.5"/>
</g>
<path d="M396.301 223.024H413.385V228.719H407.69V257.191H413.385V262.886H396.301V257.191H401.996V228.719H396.301V223.024Z" fill="#1C1C1C"/>
<path d="M355.233 223.024H383.706V228.719H360.928V240.108H378.012V245.802H360.928V262.886H355.233V223.024Z" fill="#1C1C1C"/>
<path d="M333.765 257.191V245.802H316.738V257.191H333.765ZM333.765 239.994V228.719H316.738V239.994H333.765ZM311.043 262.886V223.024H333.822V228.719H339.516V240.108H333.822V245.802H339.516V257.191H333.822V262.886H311.043Z" fill="#1C1C1C"/>
<path d="M283.937 257.191V262.886H278.243V257.191H266.854V251.497H278.243V245.802H272.548V240.108H266.854V234.413H272.548V228.719H278.243V223.024H283.937V228.719H295.326V234.413H283.937V240.108H289.632V245.802H295.326V251.497H289.632V257.191H283.937ZM278.243 240.108V234.413H272.548V240.108H278.243ZM289.632 251.497V245.802H283.937V251.497H289.632Z" fill="#1C1C1C"/>
<g style="mix-blend-mode:color-dodge">
<path d="M394.271 224.039H411.355V229.734H405.66V258.207H411.355V263.901H394.271V258.207H399.966V229.734H394.271V224.039Z" fill="#1C1C1C"/>
<path d="M353.203 224.039H381.676V229.734H358.898V241.123H375.981V246.818H358.898V263.901H353.203V224.039Z" fill="#1C1C1C"/>
<path d="M331.734 258.207V246.818H314.707V258.207H331.734ZM331.734 241.009V229.734H314.707V241.009H331.734ZM309.013 263.901V224.039H331.791V229.734H337.486V241.123H331.791V246.818H337.486V258.207H331.791V263.901H309.013Z" fill="#1C1C1C"/>
<path d="M281.907 258.207V263.901H276.212V258.207H264.823V252.512H276.212V246.818H270.518V241.123H264.823V235.428H270.518V229.734H276.212V224.039H281.907V229.734H293.296V235.428H281.907V241.123H287.601V246.818H293.296V252.512H287.601V258.207H281.907ZM276.212 241.123V235.428H270.518V241.123H276.212ZM287.601 252.512V246.818H281.907V252.512H287.601Z" fill="#1C1C1C"/>
</g>
<g opacity="0.2">
<mask id="mask2_2033_2212" style="mask-type:alpha" maskUnits="userSpaceOnUse" x="266" y="223" width="148" height="40">
<path d="M396.301 223.024H413.385V228.719H407.69V257.191H413.385V262.886H396.301V257.191H401.996V228.719H396.301V223.024Z" fill="#1C1C1C"/>
<path d="M355.233 223.024H383.706V228.719H360.928V240.108H378.012V245.802H360.928V262.886H355.233V223.024Z" fill="#1C1C1C"/>
<path d="M333.765 257.191V245.802H316.738V257.191H333.765ZM333.765 239.994V228.719H316.738V239.994H333.765ZM311.043 262.886V223.024H333.822V228.719H339.516V240.108H333.822V245.802H339.516V257.191H333.822V262.886H311.043Z" fill="#1C1C1C"/>
<path d="M283.937 257.191V262.886H278.243V257.191H266.854V251.497H278.243V245.802H272.548V240.108H266.854V234.413H272.548V228.719H278.243V223.024H283.937V228.719H295.326V234.413H283.937V240.108H289.632V245.802H295.326V251.497H289.632V257.191H283.937ZM278.243 240.108V234.413H272.548V240.108H278.243ZM289.632 251.497V245.802H283.937V251.497H289.632Z" fill="#1C1C1C"/>
</mask>
<g mask="url(#mask2_2033_2212)">
<g filter="url(#filter23_f_2033_2212)">
<g filter="url(#filter24_b_2033_2212)">
<rect width="139.599" height="139.599" transform="matrix(-0.500001 -0.866025 -1 -1.41582e-06 453.623 355.073)" fill="#523A15"/>
</g>
<g filter="url(#filter25_b_2033_2212)">
<rect width="139.599" height="139.598" transform="matrix(-0.500001 -0.866025 -0.5 0.866025 523.42 234.181)" fill="#F98600" fill-opacity="0.8"/>
</g>
<g filter="url(#filter26_b_2033_2212)">
<rect width="139.599" height="139.598" transform="matrix(-1 -1.41582e-06 -0.5 0.866025 453.667 113.313)" fill="#FFAA29"/>
</g>
<g filter="url(#filter27_b_2033_2212)">
<rect width="139.599" height="139.599" transform="matrix(-0.500001 -0.866025 -1 -1.41582e-06 523.417 234.186)" fill="url(#paint13_linear_2033_2212)" fill-opacity="0.6"/>
</g>
<g filter="url(#filter28_b_2033_2212)">
<rect width="139.599" height="139.598" transform="matrix(-1 -1.41582e-06 -0.5 0.866025 523.417 234.186)" fill="url(#paint14_linear_2033_2212)" fill-opacity="0.6"/>
</g>
<g filter="url(#filter29_b_2033_2212)">
<rect width="139.599" height="139.598" transform="matrix(-0.500001 -0.866025 -0.5 0.866025 383.867 234.211)" fill="url(#paint15_linear_2033_2212)" fill-opacity="0.4"/>
</g>
</g>
</g>
</g>
</g>
<path d="M371.318 98.3253C371.318 97.4689 372.013 96.7745 372.869 96.7745C373.726 96.7745 374.42 97.4689 374.42 98.3253C374.42 99.1818 373.726 99.8762 372.869 99.8762C372.013 99.8762 371.318 99.1818 371.318 98.3253ZM360.947 98.3253L360.742 98.1197L360.827 98.0346H360.947V98.3253ZM372.869 98.6161H360.947V98.0346H372.869V98.6161ZM361.153 98.531L354.465 105.219L354.054 104.808L360.742 98.1197L361.153 98.531Z" fill="#E7D1A8"/>
<path d="M480.246 239.937C480.246 240.793 480.94 241.488 481.796 241.488C482.653 241.488 483.347 240.793 483.347 239.937C483.347 239.08 482.653 238.386 481.796 238.386C480.94 238.386 480.246 239.08 480.246 239.937ZM481.796 239.646H469.875V240.228H481.796V239.646Z" fill="#E7D1A8"/>
<path d="M487.133 237.937V232.982H489.868C490.978 232.982 491.599 233.519 491.599 234.496C491.599 235.452 490.978 236.039 489.868 236.039H488.068V237.937H487.133ZM489.819 233.819H488.068V235.201H489.819C490.364 235.201 490.636 234.922 490.636 234.51C490.636 234.064 490.371 233.819 489.819 233.819ZM494.042 237.937V232.982H496.812C497.894 232.982 498.508 233.491 498.508 234.461C498.508 235.131 498.159 235.606 497.531 235.801L498.696 237.937H497.706L496.582 235.899H494.977V237.937H494.042ZM496.735 233.812H494.977V235.083H496.735C497.273 235.083 497.545 234.887 497.545 234.461C497.545 234.008 497.273 233.812 496.735 233.812ZM503.411 238.021C501.925 238.021 500.815 236.946 500.815 235.459C500.815 233.973 501.939 232.898 503.411 232.898C504.884 232.898 506.007 233.973 506.007 235.459C506.007 236.939 504.884 238.021 503.411 238.021ZM503.411 237.169C504.402 237.169 505.051 236.408 505.051 235.459C505.051 234.517 504.402 233.75 503.411 233.75C502.427 233.75 501.778 234.517 501.778 235.459C501.778 236.415 502.42 237.169 503.411 237.169ZM507.904 233.819V232.982H512.776V233.819H510.808V237.937H509.872V233.819H507.904ZM517.27 238.021C515.784 238.021 514.674 236.946 514.674 235.459C514.674 233.973 515.798 232.898 517.27 232.898C518.743 232.898 519.866 233.973 519.866 235.459C519.866 236.939 518.743 238.021 517.27 238.021ZM517.27 237.169C518.261 237.169 518.91 236.408 518.91 235.459C518.91 234.517 518.261 233.75 517.27 233.75C516.286 233.75 515.637 234.517 515.637 235.459C515.637 236.415 516.279 237.169 517.27 237.169ZM524.6 238.021C523.148 238.021 522.101 236.911 522.101 235.459C522.101 234.008 523.148 232.898 524.6 232.898C526.128 232.898 526.777 233.924 526.91 234.503H525.946C525.807 234.238 525.388 233.757 524.6 233.757C523.664 233.757 523.071 234.531 523.071 235.459C523.071 236.388 523.664 237.162 524.6 237.162C525.465 237.162 525.828 236.66 525.96 236.408H526.91C526.791 236.932 526.191 238.021 524.6 238.021ZM531.661 238.021C530.174 238.021 529.065 236.946 529.065 235.459C529.065 233.973 530.188 232.898 531.661 232.898C533.133 232.898 534.257 233.973 534.257 235.459C534.257 236.939 533.133 238.021 531.661 238.021ZM531.661 237.169C532.652 237.169 533.301 236.408 533.301 235.459C533.301 234.517 532.652 233.75 531.661 233.75C530.677 233.75 530.028 234.517 530.028 235.459C530.028 236.415 530.67 237.169 531.661 237.169ZM540.756 237.092V237.937H536.757V232.982H537.692V237.092H540.756ZM544.929 232.954L543.073 237.937H542.473L544.329 232.954H544.929ZM487.133 245.937V240.982H491.145V241.791H488.068V242.922H489.903V243.739H488.068V245.106H491.424V245.937H487.133ZM495.798 246.021C494.346 246.021 493.299 244.911 493.299 243.459C493.299 242.008 494.346 240.898 495.798 240.898C497.326 240.898 497.975 241.924 498.108 242.503H497.145C497.005 242.238 496.586 241.757 495.798 241.757C494.863 241.757 494.27 242.531 494.27 243.459C494.27 244.388 494.863 245.162 495.798 245.162C496.663 245.162 497.026 244.66 497.159 244.408H498.108C497.989 244.932 497.389 246.021 495.798 246.021ZM502.859 246.021C501.373 246.021 500.263 244.946 500.263 243.459C500.263 241.973 501.387 240.898 502.859 240.898C504.332 240.898 505.455 241.973 505.455 243.459C505.455 244.939 504.332 246.021 502.859 246.021ZM502.859 245.169C503.85 245.169 504.499 244.408 504.499 243.459C504.499 242.517 503.85 241.75 502.859 241.75C501.875 241.75 501.226 242.517 501.226 243.459C501.226 244.415 501.868 245.169 502.859 245.169ZM509.714 241.687C509.037 241.687 508.681 241.917 508.681 242.28C508.681 242.615 508.974 242.81 509.491 242.873C509.798 242.901 510.028 242.929 510.363 242.964C511.354 243.062 512.115 243.438 512.115 244.485C512.115 245.378 511.41 246.027 510.007 246.027C508.388 246.027 507.767 245.211 507.572 244.499H508.569C508.702 244.813 509.1 245.232 510.007 245.232C510.761 245.232 511.159 244.946 511.159 244.548C511.159 244.073 510.81 243.92 510.3 243.857L509.421 243.766C508.43 243.669 507.732 243.201 507.732 242.308C507.732 241.422 508.535 240.891 509.714 240.891C511.27 240.891 511.842 241.638 511.996 242.266H511.04C510.9 242.015 510.523 241.687 509.714 241.687ZM516.901 243.843V245.937H515.938V243.85L513.712 240.982H514.905L516.447 242.999L517.983 240.982H519.057L516.901 243.843ZM522.885 241.687C522.208 241.687 521.852 241.917 521.852 242.28C521.852 242.615 522.145 242.81 522.661 242.873C522.968 242.901 523.199 242.929 523.534 242.964C524.525 243.062 525.285 243.438 525.285 244.485C525.285 245.378 524.581 246.027 523.178 246.027C521.559 246.027 520.938 245.211 520.742 244.499H521.74C521.873 244.813 522.271 245.232 523.178 245.232C523.932 245.232 524.329 244.946 524.329 244.548C524.329 244.073 523.98 243.92 523.471 243.857L522.592 243.766C521.601 243.669 520.903 243.201 520.903 242.308C520.903 241.422 521.705 240.891 522.885 240.891C524.441 240.891 525.013 241.638 525.167 242.266H524.211C524.071 242.015 523.694 241.687 522.885 241.687ZM527.228 241.819V240.982H532.099V241.819H530.131V245.937H529.196V241.819H527.228ZM534.44 245.937V240.982H538.453V241.791H535.375V242.922H537.21V243.739H535.375V245.106H538.732V245.937H534.44ZM542.486 240.982L543.965 244.59L545.452 240.982H546.799V245.937H545.892V241.875L544.231 245.958H543.596L541.949 241.91V245.937H541.083V240.982H542.486Z" fill="#E7D1A8"/>
<path d="M165.494 177.455V172.501H168.146C169.221 172.501 169.807 173.01 169.807 173.84C169.807 174.371 169.437 174.72 169.06 174.845C169.521 174.985 169.919 175.39 169.919 176.039C169.919 176.904 169.332 177.455 168.188 177.455H165.494ZM168.041 173.296H166.415V174.51H168.041C168.565 174.51 168.844 174.301 168.844 173.903C168.844 173.484 168.572 173.296 168.041 173.296ZM168.076 175.299H166.415V176.66H168.076C168.676 176.66 168.963 176.416 168.963 175.976C168.963 175.536 168.676 175.299 168.076 175.299ZM172.43 177.455V172.501H175.201C176.283 172.501 176.897 173.01 176.897 173.98C176.897 174.65 176.548 175.124 175.92 175.32L177.085 177.455H176.094L174.971 175.418H173.366V177.455H172.43ZM175.124 173.331H173.366V174.601H175.124C175.662 174.601 175.934 174.406 175.934 173.98C175.934 173.526 175.662 173.331 175.124 173.331ZM181.702 177.539C180.251 177.539 179.204 176.429 179.204 174.978C179.204 173.526 180.251 172.417 181.702 172.417C183.231 172.417 183.88 173.443 184.012 174.022H183.049C182.91 173.757 182.491 173.275 181.702 173.275C180.767 173.275 180.174 174.05 180.174 174.978C180.174 175.906 180.767 176.681 181.702 176.681C182.568 176.681 182.93 176.178 183.063 175.927H184.012C183.894 176.45 183.293 177.539 181.702 177.539ZM189.914 176.639V177.455H186.25V176.855L188.009 175.194C188.47 174.755 188.714 174.455 188.714 174.008C188.714 173.561 188.435 173.247 187.946 173.247C187.465 173.247 187.172 173.589 187.172 174.071V174.364H186.264V174.05C186.264 173.129 186.879 172.417 187.946 172.417C189.021 172.417 189.649 173.073 189.649 173.987C189.649 174.762 189.188 175.236 188.574 175.808L187.695 176.639H189.914ZM194.003 172.41C195.119 172.41 195.824 173.101 195.824 174.245V175.711C195.824 176.883 195.105 177.546 194.003 177.546C192.9 177.546 192.181 176.883 192.181 175.711V174.245C192.181 173.101 192.886 172.41 194.003 172.41ZM194.003 176.709C194.596 176.709 194.903 176.283 194.903 175.697V174.259C194.903 173.673 194.596 173.247 194.003 173.247C193.403 173.247 193.103 173.673 193.103 174.259V175.697C193.103 176.283 193.403 176.709 194.003 176.709ZM154.943 185.455V183.383H152.221V185.455H151.286V180.501H152.221V182.545H154.943V180.501H155.885V185.455H154.943ZM160.969 185.539C159.483 185.539 158.373 184.464 158.373 182.978C158.373 181.491 159.497 180.417 160.969 180.417C162.442 180.417 163.565 181.491 163.565 182.978C163.565 184.457 162.442 185.539 160.969 185.539ZM160.969 184.688C161.96 184.688 162.609 183.927 162.609 182.978C162.609 182.036 161.96 181.268 160.969 181.268C159.985 181.268 159.336 182.036 159.336 182.978C159.336 183.934 159.978 184.688 160.969 184.688ZM170.064 184.611V185.455H166.065V180.501H167V184.611H170.064ZM172.395 185.455V180.501H174.398C175.982 180.501 177.05 181.408 177.05 182.978C177.05 184.52 175.989 185.455 174.398 185.455H172.395ZM174.384 181.324H173.33V184.632H174.384C175.424 184.632 176.094 183.997 176.094 182.978C176.094 181.924 175.424 181.324 174.384 181.324ZM179.556 185.455V180.501H183.569V181.31H180.491V182.441H182.327V183.257H180.491V184.625H183.848V185.455H179.556ZM186.2 185.455V180.501H188.97C190.052 180.501 190.666 181.01 190.666 181.98C190.666 182.65 190.317 183.124 189.689 183.32L190.854 185.455H189.863L188.74 183.418H187.135V185.455H186.2ZM188.893 181.331H187.135V182.601H188.893C189.431 182.601 189.703 182.406 189.703 181.98C189.703 181.526 189.431 181.331 188.893 181.331ZM194.997 181.205C194.32 181.205 193.964 181.436 193.964 181.799C193.964 182.134 194.257 182.329 194.773 182.392C195.081 182.42 195.311 182.448 195.646 182.482C196.637 182.58 197.397 182.957 197.397 184.004C197.397 184.897 196.693 185.546 195.29 185.546C193.671 185.546 193.05 184.73 192.854 184.018H193.852C193.985 184.332 194.383 184.75 195.29 184.75C196.044 184.75 196.441 184.464 196.441 184.067C196.441 183.592 196.092 183.439 195.583 183.376L194.704 183.285C193.713 183.187 193.015 182.72 193.015 181.826C193.015 180.94 193.817 180.41 194.997 180.41C196.553 180.41 197.125 181.156 197.279 181.785H196.323C196.183 181.533 195.806 181.205 194.997 181.205Z" fill="#E7D1A8"/>
<path d="M200.924 179.455C200.924 180.312 201.618 181.006 202.475 181.006C203.331 181.006 204.026 180.312 204.026 179.455C204.026 178.599 203.331 177.905 202.475 177.905C201.618 177.905 200.924 178.599 200.924 179.455ZM214.397 179.165H202.475V179.746H214.397V179.165Z" fill="#E7D1A8"/>
<path d="M226.124 357.842C226.124 358.699 225.43 359.393 224.573 359.393C223.717 359.393 223.023 358.699 223.023 357.842C223.023 356.986 223.717 356.292 224.573 356.292C225.43 356.292 226.124 356.986 226.124 357.842ZM236.495 357.842L236.701 358.048L236.616 358.133H236.495V357.842ZM224.573 357.552H236.495V358.133H224.573V357.552ZM236.29 357.637L242.977 350.949L243.389 351.36L236.701 358.048L236.29 357.637Z" fill="#E7D1A8"/>
<path d="M178.149 360.001C176.662 360.001 175.553 358.926 175.553 357.439C175.553 355.953 176.676 354.878 178.149 354.878C179.621 354.878 180.745 355.953 180.745 357.439C180.745 358.919 179.621 360.001 178.149 360.001ZM178.149 359.149C179.14 359.149 179.789 358.389 179.789 357.439C179.789 356.497 179.14 355.73 178.149 355.73C177.165 355.73 176.516 356.497 176.516 357.439C176.516 358.396 177.158 359.149 178.149 359.149ZM183.245 359.917V354.962H186.015C187.097 354.962 187.711 355.471 187.711 356.442C187.711 357.111 187.362 357.586 186.734 357.781L187.9 359.917H186.909L185.785 357.879H184.18V359.917H183.245ZM185.939 355.793H184.18V357.063H185.939C186.476 357.063 186.748 356.867 186.748 356.442C186.748 355.988 186.476 355.793 185.939 355.793ZM190.283 359.917V354.962H192.286C193.87 354.962 194.938 355.869 194.938 357.439C194.938 358.982 193.877 359.917 192.286 359.917H190.283ZM192.272 355.786H191.219V359.093H192.272C193.312 359.093 193.982 358.458 193.982 357.439C193.982 356.386 193.312 355.786 192.272 355.786ZM197.452 359.917V354.962H198.394V359.917H197.452ZM205.812 354.962V359.938H205.079L202.072 356.141V359.917H201.164V354.962H202.253L204.912 358.361V354.962H205.812ZM212.416 359.917L211.962 358.898H209.464L209.01 359.917H208.068L210.295 354.941H211.181L213.414 359.917H212.416ZM209.82 358.088H211.607L210.713 356.086L209.82 358.088ZM219.67 359.072V359.917H215.671V354.962H216.606V359.072H219.67ZM177.042 367.917V365.844H174.32V367.917H173.385V362.962H174.32V365.007H177.042V362.962H177.984V367.917H177.042ZM183.068 368.001C181.581 368.001 180.472 366.926 180.472 365.439C180.472 363.953 181.595 362.878 183.068 362.878C184.54 362.878 185.664 363.953 185.664 365.439C185.664 366.919 184.54 368.001 183.068 368.001ZM183.068 367.149C184.059 367.149 184.708 366.389 184.708 365.439C184.708 364.497 184.059 363.73 183.068 363.73C182.084 363.73 181.435 364.497 181.435 365.439C181.435 366.396 182.077 367.149 183.068 367.149ZM192.163 367.072V367.917H188.164V362.962H189.099V367.072H192.163ZM194.494 367.917V362.962H196.497C198.081 362.962 199.149 363.869 199.149 365.439C199.149 366.982 198.088 367.917 196.497 367.917H194.494ZM196.483 363.786H195.429V367.093H196.483C197.523 367.093 198.192 366.458 198.192 365.439C198.192 364.386 197.523 363.786 196.483 363.786ZM201.655 367.917V362.962H205.668V363.772H202.59V364.902H204.426V365.719H202.59V367.086H205.947V367.917H201.655ZM208.298 367.917V362.962H211.069C212.151 362.962 212.765 363.471 212.765 364.442C212.765 365.111 212.416 365.586 211.788 365.781L212.953 367.917H211.962L210.839 365.879H209.234V367.917H208.298ZM210.992 363.793H209.234V365.063H210.992C211.529 365.063 211.802 364.867 211.802 364.442C211.802 363.988 211.529 363.793 210.992 363.793ZM217.096 363.667C216.419 363.667 216.063 363.897 216.063 364.26C216.063 364.595 216.356 364.79 216.872 364.853C217.179 364.881 217.41 364.909 217.745 364.944C218.736 365.042 219.496 365.419 219.496 366.465C219.496 367.359 218.791 368.008 217.389 368.008C215.77 368.008 215.149 367.191 214.953 366.479H215.951C216.084 366.793 216.481 367.212 217.389 367.212C218.142 367.212 218.54 366.926 218.54 366.528C218.54 366.054 218.191 365.9 217.682 365.837L216.802 365.747C215.811 365.649 215.114 365.181 215.114 364.288C215.114 363.402 215.916 362.871 217.096 362.871C218.652 362.871 219.224 363.618 219.378 364.246H218.421C218.282 363.995 217.905 363.667 217.096 363.667Z" fill="#E7D1A8"/>
<path d="M283.698 103.559C283.698 102.703 283.004 102.008 282.147 102.008C281.291 102.008 280.597 102.703 280.597 103.559C280.597 104.416 281.291 105.11 282.147 105.11C283.004 105.11 283.698 104.416 283.698 103.559ZM294.069 103.559L294.275 103.354L294.19 103.268H294.069V103.559ZM282.147 103.85H294.069V103.268H282.147V103.85ZM293.864 103.765L300.551 110.453L300.963 110.041L294.275 103.354L293.864 103.765Z" fill="#E7D1A8"/>
<path d="M262.529 105.343L262.075 104.324H259.577L259.123 105.343H258.181L260.407 100.367H261.294L263.527 105.343H262.529ZM259.933 103.515H261.719L260.826 101.512L259.933 103.515ZM265.784 105.343V100.388H268.554C269.636 100.388 270.25 100.898 270.25 101.868C270.25 102.538 269.901 103.012 269.273 103.208L270.438 105.343H269.447L268.324 103.305H266.719V105.343H265.784ZM268.477 101.219H266.719V102.489H268.477C269.015 102.489 269.287 102.293 269.287 101.868C269.287 101.414 269.015 101.219 268.477 101.219ZM272.362 101.226V100.388H277.234V101.226H275.266V105.343H274.33V101.226H272.362Z" fill="#E7D1A8"/>
<path d="M382.839 99.4671C382.511 99.7672 381.799 100.2 380.655 100.2C379.015 100.2 377.94 99.1461 377.94 97.6178C377.94 96.1383 379.001 95.0636 380.487 95.0636C381.946 95.0636 382.56 95.8941 382.721 96.4244H381.73C381.583 96.236 381.22 95.8941 380.487 95.8941C379.51 95.901 378.896 96.6408 378.896 97.6178C378.896 98.6506 379.58 99.3694 380.662 99.3694C381.304 99.3694 381.737 99.2019 381.939 99.0623V98.0504H380.194V97.2549H382.839V99.4671ZM385.483 100.109V95.1543H386.425V100.109H385.483ZM393.955 95.1543L391.833 100.123H390.898L388.714 95.1543H389.789L391.387 98.9507L392.992 95.1543H393.955ZM396.234 100.109V95.1543H400.247V95.9638H397.169V97.0944H399.004V97.9109H397.169V99.2787H400.526V100.109H396.234ZM406.75 100.109L406.296 99.0903H403.798L403.344 100.109H402.402L404.628 95.1334H405.514L407.747 100.109H406.75ZM404.153 98.2807H405.94L405.047 96.2779L404.153 98.2807ZM414.146 100.13L412.89 96.5291L411.626 100.13H410.817L409.135 95.1543H410.154L411.291 98.7064L412.506 95.1334H413.336L414.557 98.7134L415.695 95.1543H416.616L414.983 100.13H414.146ZM422.346 100.109L421.893 99.0903H419.395L418.941 100.109H417.999L420.225 95.1334H421.111L423.344 100.109H422.346ZM419.75 98.2807H421.537L420.644 96.2779L419.75 98.2807ZM427.501 98.0155V100.109H426.538V98.0225L424.312 95.1543H425.506L427.048 97.1711L428.583 95.1543H429.658L427.501 98.0155ZM433.485 95.8592C432.808 95.8592 432.452 96.0895 432.452 96.4523C432.452 96.7873 432.746 96.9827 433.262 97.0455C433.569 97.0734 433.799 97.1013 434.134 97.1362C435.125 97.2339 435.886 97.6108 435.886 98.6576C435.886 99.5508 435.181 100.2 433.778 100.2C432.159 100.2 431.538 99.3834 431.343 98.6715H432.341C432.473 98.9856 432.871 99.4043 433.778 99.4043C434.532 99.4043 434.93 99.1182 434.93 98.7204C434.93 98.2458 434.581 98.0923 434.072 98.0295L433.192 97.9388C432.201 97.8411 431.503 97.3735 431.503 96.4803C431.503 95.594 432.306 95.0636 433.485 95.0636C435.042 95.0636 435.614 95.8103 435.767 96.4384H434.811C434.672 96.1872 434.295 95.8592 433.485 95.8592Z" fill="#E7D1A8"/>
<path d="M237.756 126.24C237.756 125.383 237.061 124.689 236.205 124.689C235.348 124.689 234.654 125.383 234.654 126.24C234.654 127.096 235.348 127.79 236.205 127.79C237.061 127.79 237.756 127.096 237.756 126.24ZM248.126 126.24L248.332 126.034L248.247 125.949H248.126V126.24ZM236.205 126.53H248.126V125.949H236.205V126.53ZM247.921 126.445L254.609 133.133L255.02 132.722L248.332 126.034L247.921 126.445Z" fill="#E7D1A8"/>
<path d="M173.698 123.069L175.177 126.677L176.664 123.069H178.011V128.023H177.103V123.962L175.442 128.044H174.807L173.16 123.997V128.023H172.295V123.069H173.698ZM184.61 128.023L184.156 127.005H181.658L181.204 128.023H180.262L182.488 123.048H183.375L185.608 128.023H184.61ZM182.014 126.195H183.8L182.907 124.192L182.014 126.195ZM187.865 128.023V123.069H190.635C191.717 123.069 192.331 123.578 192.331 124.548C192.331 125.218 191.982 125.693 191.354 125.888L192.52 128.023H191.529L190.405 125.986H188.8V128.023H187.865ZM190.559 123.899H188.8V125.169H190.559C191.096 125.169 191.368 124.974 191.368 124.548C191.368 124.094 191.096 123.899 190.559 123.899ZM198.462 128.023L195.839 125.755V128.023H194.903V123.069H195.839V125.295L198.393 123.069H199.649L196.878 125.476L199.767 128.023H198.462ZM201.867 128.023V123.069H205.88V123.878H202.802V125.009H204.637V125.825H202.802V127.193H206.159V128.023H201.867ZM208.016 123.906V123.069H212.888V123.906H210.92V128.023H209.984V123.906H208.016ZM215.236 128.023V123.069H216.178V128.023H215.236ZM223.596 123.069V128.044H222.863L219.855 124.248V128.023H218.948V123.069H220.037L222.696 126.467V123.069H223.596ZM230.995 127.381C230.667 127.681 229.956 128.114 228.811 128.114C227.171 128.114 226.096 127.06 226.096 125.532C226.096 124.053 227.157 122.978 228.644 122.978C230.102 122.978 230.716 123.808 230.877 124.339H229.886C229.739 124.15 229.376 123.808 228.644 123.808C227.667 123.815 227.053 124.555 227.053 125.532C227.053 126.565 227.736 127.284 228.818 127.284C229.46 127.284 229.893 127.116 230.095 126.977V125.965H228.351V125.169H230.995V127.381Z" fill="#E7D1A8"/>
</g>
<defs>
<filter id="filter0_f_2033_2212" x="105.465" y="2.81326" width="474.361" height="474.361" filterUnits="userSpaceOnUse" color-interpolation-filters="sRGB">
<feFlood flood-opacity="0" result="BackgroundImageFix"/>
<feBlend mode="normal" in="SourceGraphic" in2="BackgroundImageFix" result="shape"/>
<feGaussianBlur stdDeviation="73.9801" result="effect1_foregroundBlur_2033_2212"/>
</filter>
<filter id="filter1_f_2033_2212" x="-145.343" y="-152.326" width="945.254" height="865.366" filterUnits="userSpaceOnUse" color-interpolation-filters="sRGB">
<feFlood flood-opacity="0" result="BackgroundImageFix"/>
<feBlend mode="normal" in="SourceGraphic" in2="BackgroundImageFix" result="shape"/>
<feGaussianBlur stdDeviation="158.414" result="effect1_foregroundBlur_2033_2212"/>
</filter>
<filter id="filter2_f_2033_2212" x="-382.251" y="51.8423" width="950.941" height="973.086" filterUnits="userSpaceOnUse" color-interpolation-filters="sRGB">
<feFlood flood-opacity="0" result="BackgroundImageFix"/>
<feBlend mode="normal" in="SourceGraphic" in2="BackgroundImageFix" result="shape"/>
<feGaussianBlur stdDeviation="158.414" result="effect1_foregroundBlur_2033_2212"/>
</filter>
<filter id="filter3_f_2033_2212" x="213.145" y="153.369" width="105.971" height="150.047" filterUnits="userSpaceOnUse" color-interpolation-filters="sRGB">
<feFlood flood-opacity="0" result="BackgroundImageFix"/>
<feBlend mode="normal" in="SourceGraphic" in2="BackgroundImageFix" result="shape"/>
<feGaussianBlur stdDeviation="17.6909" result="effect1_foregroundBlur_2033_2212"/>
</filter>
<filter id="filter4_f_2033_2212" x="375.503" y="117.06" width="105.971" height="150.047" filterUnits="userSpaceOnUse" color-interpolation-filters="sRGB">
<feFlood flood-opacity="0" result="BackgroundImageFix"/>
<feBlend mode="normal" in="SourceGraphic" in2="BackgroundImageFix" result="shape"/>
<feGaussianBlur stdDeviation="17.6909" result="effect1_foregroundBlur_2033_2212"/>
</filter>
<filter id="filter5_f_2033_2212" x="389.131" y="183.907" width="105.971" height="150.047" filterUnits="userSpaceOnUse" color-interpolation-filters="sRGB">
<feFlood flood-opacity="0" result="BackgroundImageFix"/>
<feBlend mode="normal" in="SourceGraphic" in2="BackgroundImageFix" result="shape"/>
<feGaussianBlur stdDeviation="17.6909" result="effect1_foregroundBlur_2033_2212"/>
</filter>
<filter id="filter6_f_2033_2212" x="239.986" y="83.7986" width="97.4003" height="119.256" filterUnits="userSpaceOnUse" color-interpolation-filters="sRGB">
<feFlood flood-opacity="0" result="BackgroundImageFix"/>
<feBlend mode="normal" in="SourceGraphic" in2="BackgroundImageFix" result="shape"/>
<feGaussianBlur stdDeviation="17.6909" result="effect1_foregroundBlur_2033_2212"/>
</filter>
<filter id="filter7_f_2033_2212" x="373.276" y="268.101" width="101.755" height="108.971" filterUnits="userSpaceOnUse" color-interpolation-filters="sRGB">
<feFlood flood-opacity="0" result="BackgroundImageFix"/>
<feBlend mode="normal" in="SourceGraphic" in2="BackgroundImageFix" result="shape"/>
<feGaussianBlur stdDeviation="17.6909" result="effect1_foregroundBlur_2033_2212"/>
</filter>
<filter id="filter8_dddddd_2033_2212" x="53.8679" y="-46.9194" width="574.868" height="574.868" filterUnits="userSpaceOnUse" color-interpolation-filters="sRGB">
<feFlood flood-opacity="0" result="BackgroundImageFix"/>
<feColorMatrix in="SourceAlpha" type="matrix" values="0 0 0 0 0 0 0 0 0 0 0 0 0 0 0 0 0 0 127 0" result="hardAlpha"/>
<feOffset/>
<feGaussianBlur stdDeviation="1.89873"/>
<feColorMatrix type="matrix" values="0 0 0 0 0.988235 0 0 0 0 0.698039 0 0 0 0 0.2 0 0 0 1 0"/>
<feBlend mode="normal" in2="BackgroundImageFix" result="effect1_dropShadow_2033_2212"/>
<feColorMatrix in="SourceAlpha" type="matrix" values="0 0 0 0 0 0 0 0 0 0 0 0 0 0 0 0 0 0 127 0" result="hardAlpha"/>
<feOffset/>
<feGaussianBlur stdDeviation="3.79745"/>
<feColorMatrix type="matrix" values="0 0 0 0 0.988235 0 0 0 0 0.698039 0 0 0 0 0.2 0 0 0 1 0"/>
<feBlend mode="normal" in2="effect1_dropShadow_2033_2212" result="effect2_dropShadow_2033_2212"/>
<feColorMatrix in="SourceAlpha" type="matrix" values="0 0 0 0 0 0 0 0 0 0 0 0 0 0 0 0 0 0 127 0" result="hardAlpha"/>
<feOffset/>
<feGaussianBlur stdDeviation="13.2911"/>
<feColorMatrix type="matrix" values="0 0 0 0 0.988235 0 0 0 0 0.698039 0 0 0 0 0.2 0 0 0 1 0"/>
<feBlend mode="normal" in2="effect2_dropShadow_2033_2212" result="effect3_dropShadow_2033_2212"/>
<feColorMatrix in="SourceAlpha" type="matrix" values="0 0 0 0 0 0 0 0 0 0 0 0 0 0 0 0 0 0 127 0" result="hardAlpha"/>
<feOffset/>
<feGaussianBlur stdDeviation="26.5822"/>
<feColorMatrix type="matrix" values="0 0 0 0 0.988235 0 0 0 0 0.698039 0 0 0 0 0.2 0 0 0 1 0"/>
<feBlend mode="normal" in2="effect3_dropShadow_2033_2212" result="effect4_dropShadow_2033_2212"/>
<feColorMatrix in="SourceAlpha" type="matrix" values="0 0 0 0 0 0 0 0 0 0 0 0 0 0 0 0 0 0 127 0" result="hardAlpha"/>
<feOffset/>
<feGaussianBlur stdDeviation="45.5695"/>
<feColorMatrix type="matrix" values="0 0 0 0 0.988235 0 0 0 0 0.698039 0 0 0 0 0.2 0 0 0 1 0"/>
<feBlend mode="normal" in2="effect4_dropShadow_2033_2212" result="effect5_dropShadow_2033_2212"/>
<feColorMatrix in="SourceAlpha" type="matrix" values="0 0 0 0 0 0 0 0 0 0 0 0 0 0 0 0 0 0 127 0" result="hardAlpha"/>
<feOffset/>
<feGaussianBlur stdDeviation="79.7465"/>
<feColorMatrix type="matrix" values="0 0 0 0 0.988235 0 0 0 0 0.698039 0 0 0 0 0.2 0 0 0 1 0"/>
<feBlend mode="normal" in2="effect5_dropShadow_2033_2212" result="effect6_dropShadow_2033_2212"/>
<feBlend mode="normal" in="SourceGraphic" in2="effect6_dropShadow_2033_2212" result="shape"/>
</filter>
<filter id="filter9_f_2033_2212" x="201.198" y="100.555" width="290.524" height="327.935" filterUnits="userSpaceOnUse" color-interpolation-filters="sRGB">
<feFlood flood-opacity="0" result="BackgroundImageFix"/>
<feBlend mode="normal" in="SourceGraphic" in2="BackgroundImageFix" result="shape"/>
<feGaussianBlur stdDeviation="12.183" result="effect1_foregroundBlur_2033_2212"/>
</filter>
<filter id="filter10_b_2033_2212" x="210.711" y="249.663" width="271.497" height="169.303" filterUnits="userSpaceOnUse" color-interpolation-filters="sRGB">
<feFlood flood-opacity="0" result="BackgroundImageFix"/>
<feGaussianBlur in="BackgroundImageFix" stdDeviation="7.42621"/>
<feComposite in2="SourceAlpha" operator="in" result="effect1_backgroundBlur_2033_2212"/>
<feBlend mode="normal" in="SourceGraphic" in2="effect1_backgroundBlur_2033_2212" result="shape"/>
</filter>
<filter id="filter11_b_2033_2212" x="331.607" y="110.068" width="150.601" height="239.103" filterUnits="userSpaceOnUse" color-interpolation-filters="sRGB">
<feFlood flood-opacity="0" result="BackgroundImageFix"/>
<feGaussianBlur in="BackgroundImageFix" stdDeviation="7.4262"/>
<feComposite in2="SourceAlpha" operator="in" result="effect1_backgroundBlur_2033_2212"/>
<feBlend mode="normal" in="SourceGraphic" in2="effect1_backgroundBlur_2033_2212" result="shape"/>
</filter>
<filter id="filter12_b_2033_2212" x="210.766" y="110.069" width="150.601" height="239.103" filterUnits="userSpaceOnUse" color-interpolation-filters="sRGB">
<feFlood flood-opacity="0" result="BackgroundImageFix"/>
<feGaussianBlur in="BackgroundImageFix" stdDeviation="7.4262"/>
<feComposite in2="SourceAlpha" operator="in" result="effect1_backgroundBlur_2033_2212"/>
<feBlend mode="normal" in="SourceGraphic" in2="effect1_backgroundBlur_2033_2212" result="shape"/>
</filter>
<filter id="filter13_b_2033_2212" x="210.711" y="110.074" width="271.497" height="169.303" filterUnits="userSpaceOnUse" color-interpolation-filters="sRGB">
<feFlood flood-opacity="0" result="BackgroundImageFix"/>
<feGaussianBlur in="BackgroundImageFix" stdDeviation="7.42621"/>
<feComposite in2="SourceAlpha" operator="in" result="effect1_backgroundBlur_2033_2212"/>
<feBlend mode="normal" in="SourceGraphic" in2="effect1_backgroundBlur_2033_2212" result="shape"/>
</filter>
<filter id="filter14_b_2033_2212" x="331.607" y="179.873" width="150.601" height="239.103" filterUnits="userSpaceOnUse" color-interpolation-filters="sRGB">
<feFlood flood-opacity="0" result="BackgroundImageFix"/>
<feGaussianBlur in="BackgroundImageFix" stdDeviation="7.4262"/>
<feComposite in2="SourceAlpha" operator="in" result="effect1_backgroundBlur_2033_2212"/>
<feBlend mode="normal" in="SourceGraphic" in2="effect1_backgroundBlur_2033_2212" result="shape"/>
</filter>
<filter id="filter15_b_2033_2212" x="210.766" y="179.87" width="150.601" height="239.103" filterUnits="userSpaceOnUse" color-interpolation-filters="sRGB">
<feFlood flood-opacity="0" result="BackgroundImageFix"/>
<feGaussianBlur in="BackgroundImageFix" stdDeviation="7.4262"/>
<feComposite in2="SourceAlpha" operator="in" result="effect1_backgroundBlur_2033_2212"/>
<feBlend mode="normal" in="SourceGraphic" in2="effect1_backgroundBlur_2033_2212" result="shape"/>
</filter>
<filter id="filter16_f_2033_2212" x="182.499" y="119.257" width="327.928" height="290.554" filterUnits="userSpaceOnUse" color-interpolation-filters="sRGB">
<feFlood flood-opacity="0" result="BackgroundImageFix"/>
<feBlend mode="normal" in="SourceGraphic" in2="BackgroundImageFix" result="shape"/>
<feGaussianBlur stdDeviation="12.183" result="effect1_foregroundBlur_2033_2212"/>
</filter>
<filter id="filter17_b_2033_2212" x="192.012" y="249.663" width="239.103" height="150.601" filterUnits="userSpaceOnUse" color-interpolation-filters="sRGB">
<feFlood flood-opacity="0" result="BackgroundImageFix"/>
<feGaussianBlur in="BackgroundImageFix" stdDeviation="7.42621"/>
<feComposite in2="SourceAlpha" operator="in" result="effect1_backgroundBlur_2033_2212"/>
<feBlend mode="normal" in="SourceGraphic" in2="effect1_backgroundBlur_2033_2212" result="shape"/>
</filter>
<filter id="filter18_b_2033_2212" x="331.609" y="128.771" width="169.304" height="271.497" filterUnits="userSpaceOnUse" color-interpolation-filters="sRGB">
<feFlood flood-opacity="0" result="BackgroundImageFix"/>
<feGaussianBlur in="BackgroundImageFix" stdDeviation="7.4262"/>
<feComposite in2="SourceAlpha" operator="in" result="effect1_backgroundBlur_2033_2212"/>
<feBlend mode="normal" in="SourceGraphic" in2="effect1_backgroundBlur_2033_2212" result="shape"/>
</filter>
<filter id="filter19_b_2033_2212" x="192.057" y="128.799" width="239.103" height="150.601" filterUnits="userSpaceOnUse" color-interpolation-filters="sRGB">
<feFlood flood-opacity="0" result="BackgroundImageFix"/>
<feGaussianBlur in="BackgroundImageFix" stdDeviation="7.4262"/>
<feComposite in2="SourceAlpha" operator="in" result="effect1_backgroundBlur_2033_2212"/>
<feBlend mode="normal" in="SourceGraphic" in2="effect1_backgroundBlur_2033_2212" result="shape"/>
</filter>
<filter id="filter20_b_2033_2212" x="261.807" y="128.776" width="239.103" height="150.601" filterUnits="userSpaceOnUse" color-interpolation-filters="sRGB">
<feFlood flood-opacity="0" result="BackgroundImageFix"/>
<feGaussianBlur in="BackgroundImageFix" stdDeviation="7.42621"/>
<feComposite in2="SourceAlpha" operator="in" result="effect1_backgroundBlur_2033_2212"/>
<feBlend mode="normal" in="SourceGraphic" in2="effect1_backgroundBlur_2033_2212" result="shape"/>
</filter>
<filter id="filter21_b_2033_2212" x="261.807" y="249.672" width="239.103" height="150.601" filterUnits="userSpaceOnUse" color-interpolation-filters="sRGB">
<feFlood flood-opacity="0" result="BackgroundImageFix"/>
<feGaussianBlur in="BackgroundImageFix" stdDeviation="7.4262"/>
<feComposite in2="SourceAlpha" operator="in" result="effect1_backgroundBlur_2033_2212"/>
<feBlend mode="normal" in="SourceGraphic" in2="effect1_backgroundBlur_2033_2212" result="shape"/>
</filter>
<filter id="filter22_b_2033_2212" x="192.056" y="128.801" width="169.304" height="271.497" filterUnits="userSpaceOnUse" color-interpolation-filters="sRGB">
<feFlood flood-opacity="0" result="BackgroundImageFix"/>
<feGaussianBlur in="BackgroundImageFix" stdDeviation="7.4262"/>
<feComposite in2="SourceAlpha" operator="in" result="effect1_backgroundBlur_2033_2212"/>
<feBlend mode="normal" in="SourceGraphic" in2="effect1_backgroundBlur_2033_2212" result="shape"/>
</filter>
<filter id="filter23_f_2033_2212" x="219.859" y="88.9189" width="327.927" height="290.554" filterUnits="userSpaceOnUse" color-interpolation-filters="sRGB">
<feFlood flood-opacity="0" result="BackgroundImageFix"/>
<feBlend mode="normal" in="SourceGraphic" in2="BackgroundImageFix" result="shape"/>
<feGaussianBlur stdDeviation="12.183" result="effect1_foregroundBlur_2033_2212"/>
</filter>
<filter id="filter24_b_2033_2212" x="229.372" y="219.325" width="239.103" height="150.601" filterUnits="userSpaceOnUse" color-interpolation-filters="sRGB">
<feFlood flood-opacity="0" result="BackgroundImageFix"/>
<feGaussianBlur in="BackgroundImageFix" stdDeviation="7.42621"/>
<feComposite in2="SourceAlpha" operator="in" result="effect1_backgroundBlur_2033_2212"/>
<feBlend mode="normal" in="SourceGraphic" in2="effect1_backgroundBlur_2033_2212" result="shape"/>
</filter>
<filter id="filter25_b_2033_2212" x="368.969" y="98.4325" width="169.304" height="271.497" filterUnits="userSpaceOnUse" color-interpolation-filters="sRGB">
<feFlood flood-opacity="0" result="BackgroundImageFix"/>
<feGaussianBlur in="BackgroundImageFix" stdDeviation="7.4262"/>
<feComposite in2="SourceAlpha" operator="in" result="effect1_backgroundBlur_2033_2212"/>
<feBlend mode="normal" in="SourceGraphic" in2="effect1_backgroundBlur_2033_2212" result="shape"/>
</filter>
<filter id="filter26_b_2033_2212" x="229.417" y="98.4608" width="239.103" height="150.601" filterUnits="userSpaceOnUse" color-interpolation-filters="sRGB">
<feFlood flood-opacity="0" result="BackgroundImageFix"/>
<feGaussianBlur in="BackgroundImageFix" stdDeviation="7.4262"/>
<feComposite in2="SourceAlpha" operator="in" result="effect1_backgroundBlur_2033_2212"/>
<feBlend mode="normal" in="SourceGraphic" in2="effect1_backgroundBlur_2033_2212" result="shape"/>
</filter>
<filter id="filter27_b_2033_2212" x="299.166" y="98.4376" width="239.103" height="150.601" filterUnits="userSpaceOnUse" color-interpolation-filters="sRGB">
<feFlood flood-opacity="0" result="BackgroundImageFix"/>
<feGaussianBlur in="BackgroundImageFix" stdDeviation="7.42621"/>
<feComposite in2="SourceAlpha" operator="in" result="effect1_backgroundBlur_2033_2212"/>
<feBlend mode="normal" in="SourceGraphic" in2="effect1_backgroundBlur_2033_2212" result="shape"/>
</filter>
<filter id="filter28_b_2033_2212" x="299.167" y="219.334" width="239.103" height="150.601" filterUnits="userSpaceOnUse" color-interpolation-filters="sRGB">
<feFlood flood-opacity="0" result="BackgroundImageFix"/>
<feGaussianBlur in="BackgroundImageFix" stdDeviation="7.4262"/>
<feComposite in2="SourceAlpha" operator="in" result="effect1_backgroundBlur_2033_2212"/>
<feBlend mode="normal" in="SourceGraphic" in2="effect1_backgroundBlur_2033_2212" result="shape"/>
</filter>
<filter id="filter29_b_2033_2212" x="229.416" y="98.4625" width="169.304" height="271.497" filterUnits="userSpaceOnUse" color-interpolation-filters="sRGB">
<feFlood flood-opacity="0" result="BackgroundImageFix"/>
<feGaussianBlur in="BackgroundImageFix" stdDeviation="7.4262"/>
<feComposite in2="SourceAlpha" operator="in" result="effect1_backgroundBlur_2033_2212"/>
<feBlend mode="normal" in="SourceGraphic" in2="effect1_backgroundBlur_2033_2212" result="shape"/>
</filter>
<radialGradient id="paint0_radial_2033_2212" cx="0" cy="0" r="1" gradientUnits="userSpaceOnUse" gradientTransform="translate(338.551 230.86) rotate(90) scale(93.2207)">
<stop stop-color="#D18D0E"/>
<stop offset="1" stop-color="#FFC55A"/>
</radialGradient>
<radialGradient id="paint1_radial_2033_2212" cx="0" cy="0" r="1" gradientUnits="userSpaceOnUse" gradientTransform="translate(336.827 227.015) rotate(90) scale(132.472)">
<stop stop-color="#D18D0E"/>
<stop offset="1" stop-color="#FFC55A"/>
</radialGradient>
<linearGradient id="paint2_linear_2033_2212" x1="289.525" y1="304.62" x2="408.309" y2="161.977" gradientUnits="userSpaceOnUse">
<stop stop-color="#B87526"/>
<stop offset="1" stop-color="#FFC368"/>
</linearGradient>
<linearGradient id="paint3_linear_2033_2212" x1="289.525" y1="304.62" x2="408.309" y2="161.977" gradientUnits="userSpaceOnUse">
<stop stop-color="#B87526"/>
<stop offset="1" stop-color="#FFC368"/>
</linearGradient>
<linearGradient id="paint4_linear_2033_2212" x1="139.567" y1="-0.0322734" x2="-6.57596" y2="-0.0322817" gradientUnits="userSpaceOnUse">
<stop stop-color="white"/>
<stop offset="1" stop-color="white" stop-opacity="0"/>
</linearGradient>
<linearGradient id="paint5_linear_2033_2212" x1="7.55601" y1="138.874" x2="147.244" y2="130.686" gradientUnits="userSpaceOnUse">
<stop stop-color="white"/>
<stop offset="1" stop-color="white" stop-opacity="0"/>
</linearGradient>
<linearGradient id="paint6_linear_2033_2212" x1="139.534" y1="142.62" x2="-14.3929" y2="135.727" gradientUnits="userSpaceOnUse">
<stop stop-color="white"/>
<stop offset="1" stop-color="white" stop-opacity="0"/>
</linearGradient>
<linearGradient id="paint7_linear_2033_2212" x1="453.131" y1="512.68" x2="567.387" y2="375.991" gradientUnits="userSpaceOnUse">
<stop stop-color="#B87526"/>
<stop offset="1" stop-color="#FFC368"/>
</linearGradient>
<linearGradient id="paint8_linear_2033_2212" x1="319.759" y1="507.869" x2="431.994" y2="373.598" gradientUnits="userSpaceOnUse">
<stop stop-color="#B87526"/>
<stop offset="1" stop-color="#FFC368"/>
</linearGradient>
<linearGradient id="paint9_linear_2033_2212" x1="139.567" y1="-0.0322734" x2="-6.57596" y2="-0.0322817" gradientUnits="userSpaceOnUse">
<stop stop-color="white"/>
<stop offset="1" stop-color="white" stop-opacity="0"/>
</linearGradient>
<linearGradient id="paint10_linear_2033_2212" x1="7.55601" y1="138.874" x2="147.244" y2="130.686" gradientUnits="userSpaceOnUse">
<stop stop-color="white"/>
<stop offset="1" stop-color="white" stop-opacity="0"/>
</linearGradient>
<linearGradient id="paint11_linear_2033_2212" x1="139.534" y1="142.62" x2="-14.3929" y2="135.727" gradientUnits="userSpaceOnUse">
<stop stop-color="white"/>
<stop offset="1" stop-color="white" stop-opacity="0"/>
</linearGradient>
<linearGradient id="paint12_linear_2033_2212" x1="319.759" y1="507.869" x2="431.994" y2="373.598" gradientUnits="userSpaceOnUse">
<stop stop-color="#B87526"/>
<stop offset="1" stop-color="#FFC368"/>
</linearGradient>
<linearGradient id="paint13_linear_2033_2212" x1="139.567" y1="-0.0322734" x2="-6.57596" y2="-0.0322817" gradientUnits="userSpaceOnUse">
<stop stop-color="white"/>
<stop offset="1" stop-color="white" stop-opacity="0"/>
</linearGradient>
<linearGradient id="paint14_linear_2033_2212" x1="7.55601" y1="138.874" x2="147.244" y2="130.686" gradientUnits="userSpaceOnUse">
<stop stop-color="white"/>
<stop offset="1" stop-color="white" stop-opacity="0"/>
</linearGradient>
<linearGradient id="paint15_linear_2033_2212" x1="139.534" y1="142.62" x2="-14.3929" y2="135.727" gradientUnits="userSpaceOnUse">
<stop stop-color="white"/>
<stop offset="1" stop-color="white" stop-opacity="0"/>
</linearGradient>
<clipPath id="clip0_2033_2212">
<rect width="696" height="417" fill="white"/>
</clipPath>
<clipPath id="clip1_2033_2212">
<rect width="821.018" height="800.915" fill="white" transform="translate(-67.9752 -170.75)"/>
</clipPath>
<clipPath id="clip2_2033_2212">
<rect width="255.882" height="255.882" fill="white" transform="translate(213.361 112.574)"/>
</clipPath>
<clipPath id="clip3_2033_2212">
<rect width="255.882" height="255.882" fill="white" transform="translate(213.361 112.574)"/>
</clipPath>
</defs>
</svg>
