<svg width="21" height="20" viewBox="0 0 21 20" fill="none" xmlns="http://www.w3.org/2000/svg">
<g clip-path="url(#clip0_4_92)">
<path fill-rule="evenodd" clip-rule="evenodd" d="M20.1221 10C20.1221 15.5228 15.6449 20 10.1221 20C4.59922 20 0.12207 15.5228 0.12207 10C0.12207 4.47715 4.59922 0 10.1221 0C15.6449 0 20.1221 4.47715 20.1221 10ZM10.4804 7.38244C9.50778 7.787 7.56385 8.62433 4.64865 9.89443C4.17526 10.0827 3.92728 10.2668 3.90471 10.4469C3.86656 10.7512 4.24766 10.8711 4.76663 11.0343C4.83722 11.0565 4.91036 11.0795 4.98535 11.1038C5.49593 11.2698 6.18276 11.464 6.53981 11.4717C6.86369 11.4787 7.22518 11.3452 7.62427 11.0711C10.348 9.2325 11.7541 8.30317 11.8423 8.28314C11.9046 8.26901 11.9909 8.25123 12.0494 8.3032C12.1078 8.35518 12.1021 8.4536 12.0959 8.48C12.0582 8.64095 10.5622 10.0317 9.788 10.7515C9.54666 10.9759 9.37546 11.135 9.34047 11.1714C9.26207 11.2528 9.18218 11.3298 9.10539 11.4038C8.63104 11.8611 8.27533 12.204 9.12508 12.764C9.53344 13.0331 9.86021 13.2556 10.1862 13.4776C10.5422 13.7201 10.8973 13.9619 11.3567 14.2631C11.4738 14.3398 11.5856 14.4195 11.6945 14.4971C12.1088 14.7925 12.481 15.0578 12.9409 15.0155C13.2081 14.9909 13.4841 14.7397 13.6243 13.9903C13.9556 12.2193 14.6068 8.38205 14.7573 6.80081C14.7704 6.66227 14.7538 6.48498 14.7405 6.40715C14.7272 6.32931 14.6994 6.21842 14.5982 6.13633C14.4784 6.03911 14.2934 6.01861 14.2107 6.02007C13.8346 6.0267 13.2575 6.22735 10.4804 7.38244Z" fill="#D2BF9A" fill-opacity="0.75"/>
</g>
<defs>
<clipPath id="clip0_4_92">
<rect width="20" height="20" fill="white" transform="translate(0.12207)"/>
</clipPath>
</defs>
</svg>
