<svg width="48" height="49" viewBox="0 0 48 49" fill="none" xmlns="http://www.w3.org/2000/svg">
<path d="M8.68726 0.750488H48V48.7505H0V9.76207L8.68726 0.750488Z" fill="#D18D0E"/>
<rect x="18" y="22.5005" width="13.5" height="4.5" rx="0.5" fill="#1E1E1E"/>
<rect x="24" y="28.5005" width="13.5" height="3" rx="0.5" fill="#1E1E1E"/>
<rect x="12" y="28.5005" width="10.5" height="3" rx="0.5" fill="#1E1E1E"/>
<rect x="9" y="24.0005" width="7.5" height="3" rx="0.5" fill="#1E1E1E"/>
<rect x="33" y="22.5005" width="6" height="3" rx="0.5" fill="#1E1E1E"/>
<rect x="27" y="18.0005" width="7.5" height="3" rx="0.5" fill="#1E1E1E"/>
<rect x="10.5" y="18.0005" width="15" height="3" rx="0.5" fill="#1E1E1E"/>
<path d="M34.5 15.7505H29.25M26.25 15.7505H20.25M17.25 15.7505H13.5" stroke="#1E1E1E" stroke-linecap="round"/>
<path d="M35.25 33.7505H29.25M26.25 33.7505H20.25M17.25 33.7505H12.75M15.75 36.7505H20.25M23.25 36.7505H32.25" stroke="#1E1E1E" stroke-linecap="round"/>
<path d="M18 12.7505H20.25M23.25 12.7505H30.75" stroke="#1E1E1E" stroke-linecap="round"/>
</svg>
