<svg width="480" height="480" viewBox="0 0 480 480" fill="none" xmlns="http://www.w3.org/2000/svg">
<g opacity="0.21">
<g clip-path="url(#clip0_2033_2213)" filter="url(#filter0_dddddd_2033_2213)">
<path d="M247.162 108.023C274.659 108.023 301.425 116.882 323.492 133.287C345.56 149.692 361.755 172.77 369.678 199.101C377.6 225.431 376.829 253.614 367.479 279.473C358.128 305.331 340.695 327.489 317.764 342.662L247.162 235.965V108.023Z" fill="#D18D0E"/>
<path d="M317.764 342.662C298.153 355.638 275.345 362.959 251.846 363.819C228.347 364.68 205.065 359.048 184.557 347.541C164.049 336.035 147.11 319.099 135.599 298.594C124.088 278.089 118.45 254.808 119.306 231.308L247.162 235.964L317.764 342.662Z" fill="#FCB232"/>
<path d="M119.306 231.309C119.989 212.552 124.79 194.174 133.37 177.481L247.162 235.964L119.306 231.309Z" fill="#FB892B"/>
<path d="M133.371 177.481C140.512 163.587 150.137 151.118 161.77 140.691L247.163 235.965L133.371 177.481Z" fill="#FC9F2F"/>
<path d="M161.77 140.69C173.403 130.264 186.848 122.056 201.438 116.473L247.162 235.964L161.77 140.69Z" fill="#FBB767"/>
<path d="M201.438 116.473C216.028 110.89 231.518 108.026 247.14 108.023L247.162 235.965L201.438 116.473Z" fill="#FBC78B"/>
</g>
</g>
<g clip-path="url(#clip1_2033_2213)">
<path d="M280.276 112.383C306.836 119.5 330.396 134.984 347.466 156.541C364.536 178.098 374.206 204.582 375.044 232.066C375.882 259.55 367.843 286.573 352.118 309.13C336.393 331.687 313.82 348.578 287.742 357.299L247.162 235.964L280.276 112.383Z" fill="#D18D0E"/>
<path d="M287.743 357.299C265.442 364.757 241.517 365.926 218.595 360.675C195.674 355.424 174.642 343.958 157.812 327.536C140.981 311.114 129.002 290.37 123.19 267.585C117.378 244.799 117.959 220.852 124.868 198.375L247.162 235.964L287.743 357.299Z" fill="#FCB232"/>
<path d="M124.867 198.376C130.382 180.434 139.776 163.926 152.384 150.022L247.162 235.964L124.867 198.376Z" fill="#FB892B"/>
<path d="M152.384 150.023C162.878 138.45 175.403 128.897 189.338 121.836L247.162 235.965L152.384 150.023Z" fill="#FC9F2F"/>
<path d="M189.338 121.835C203.274 114.775 218.385 110.326 233.923 108.71L247.162 235.964L189.338 121.835Z" fill="#FBB767"/>
<path d="M233.923 108.71C249.461 107.094 265.164 108.336 280.254 112.377L247.162 235.965L233.923 108.71Z" fill="#FBC78B"/>
<rect x="137.831" y="126.778" width="218.663" height="218.663" rx="109.332" fill="#242424"/>
<rect x="148.446" y="137.588" width="197.537" height="196.795" rx="98.3974" fill="#BF7B15"/>
<rect x="148.446" y="137.588" width="197.537" height="196.795" rx="98.3974" fill="url(#paint0_linear_2033_2213)" fill-opacity="0.5"/>
<mask id="mask0_2033_2213" style="mask-type:alpha" maskUnits="userSpaceOnUse" x="148" y="137" width="198" height="198">
<rect x="148.446" y="137.588" width="197.537" height="196.795" rx="98.3974" fill="#BF7B15"/>
<rect x="148.446" y="137.588" width="197.537" height="196.795" rx="98.3974" fill="url(#paint1_linear_2033_2213)" fill-opacity="0.5"/>
</mask>
<g mask="url(#mask0_2033_2213)">
<g filter="url(#filter1_f_2033_2213)">
<g filter="url(#filter2_b_2033_2213)">
<rect width="139.599" height="139.599" transform="matrix(-0.866026 -0.499999 -0.866026 0.499999 373.216 329.764)" fill="#523A15"/>
</g>
<g filter="url(#filter3_b_2033_2213)">
<rect width="139.599" height="139.598" transform="matrix(-0.866026 -0.499999 -2.76993e-08 1 373.216 190.17)" fill="#F98600" fill-opacity="0.8"/>
</g>
<g filter="url(#filter4_b_2033_2213)">
<rect width="139.599" height="139.598" transform="matrix(-0.866026 0.499999 2.76993e-08 1 252.375 120.372)" fill="#FFAA29"/>
</g>
<g filter="url(#filter5_b_2033_2213)">
<rect width="139.599" height="139.599" transform="matrix(-0.866026 -0.499999 -0.866026 0.499999 373.216 190.176)" fill="url(#paint2_linear_2033_2213)" fill-opacity="0.6"/>
</g>
<g filter="url(#filter6_b_2033_2213)">
<rect width="139.599" height="139.598" transform="matrix(-0.866026 0.499999 2.76993e-08 1 373.216 190.176)" fill="url(#paint3_linear_2033_2213)" fill-opacity="0.6"/>
</g>
<g filter="url(#filter7_b_2033_2213)">
<rect width="139.599" height="139.598" transform="matrix(-0.866026 -0.499999 -2.76993e-08 1 252.375 259.972)" fill="url(#paint4_linear_2033_2213)" fill-opacity="0.4"/>
</g>
</g>
</g>
<rect x="314.042" y="351.948" width="189.165" height="189.165" rx="94.5825" transform="rotate(-165 314.042 351.948)" fill="#BF7B15"/>
<rect x="314.042" y="351.948" width="189.165" height="189.165" rx="94.5825" transform="rotate(-165 314.042 351.948)" fill="url(#paint5_linear_2033_2213)" fill-opacity="0.5"/>
<mask id="mask1_2033_2213" style="mask-type:alpha" maskUnits="userSpaceOnUse" x="154" y="143" width="187" height="187">
<rect x="181.466" y="349.899" width="185.819" height="185.819" rx="92.9095" transform="rotate(-105 181.466 349.899)" fill="#BF7B15"/>
<rect x="181.466" y="349.899" width="185.819" height="185.819" rx="92.9095" transform="rotate(-105 181.466 349.899)" fill="url(#paint6_linear_2033_2213)" fill-opacity="0.5"/>
</mask>
<g mask="url(#mask1_2033_2213)">
<g filter="url(#filter8_f_2033_2213)">
<g filter="url(#filter9_b_2033_2213)">
<rect width="139.599" height="139.599" transform="matrix(-0.500001 -0.866025 -1 -1.41582e-06 322.123 380.861)" fill="#523A15"/>
</g>
<g filter="url(#filter10_b_2033_2213)">
<rect width="139.599" height="139.598" transform="matrix(-0.500001 -0.866025 -0.5 0.866025 391.92 259.969)" fill="#F98600" fill-opacity="0.8"/>
</g>
<g filter="url(#filter11_b_2033_2213)">
<rect width="139.599" height="139.598" transform="matrix(-1 -1.41582e-06 -0.5 0.866025 322.168 139.101)" fill="#FFAA29"/>
</g>
<g filter="url(#filter12_b_2033_2213)">
<rect width="139.599" height="139.599" transform="matrix(-0.500001 -0.866025 -1 -1.41582e-06 391.917 259.974)" fill="url(#paint7_linear_2033_2213)" fill-opacity="0.6"/>
</g>
<g filter="url(#filter13_b_2033_2213)">
<rect width="139.599" height="139.598" transform="matrix(-1 -1.41582e-06 -0.5 0.866025 391.917 259.974)" fill="url(#paint8_linear_2033_2213)" fill-opacity="0.6"/>
</g>
<g filter="url(#filter14_b_2033_2213)">
<rect width="139.599" height="139.598" transform="matrix(-0.500001 -0.866025 -0.5 0.866025 252.367 259.999)" fill="url(#paint9_linear_2033_2213)" fill-opacity="0.4"/>
</g>
</g>
</g>
<g opacity="0.7">
<rect x="181.466" y="349.899" width="185.819" height="185.819" rx="92.9095" transform="rotate(-105 181.466 349.899)" fill="#BF7B15"/>
<rect x="181.466" y="349.899" width="185.819" height="185.819" rx="92.9095" transform="rotate(-105 181.466 349.899)" fill="url(#paint10_linear_2033_2213)" fill-opacity="0.5"/>
</g>
<path d="M302.161 218.474H319.245V224.168H313.55V252.641H319.245V258.336H302.161V252.641H307.856V224.168H302.161V218.474Z" fill="#1C1C1C"/>
<path d="M261.093 218.474H289.566V224.168H266.788V235.557H283.871V241.252H266.788V258.336H261.093V218.474Z" fill="#1C1C1C"/>
<path d="M239.625 252.641V241.252H222.598V252.641H239.625ZM239.625 235.444V224.168H222.598V235.444H239.625ZM216.903 258.336V218.474H239.682V224.168H245.376V235.557H239.682V241.252H245.376V252.641H239.682V258.336H216.903Z" fill="#1C1C1C"/>
<path d="M189.797 252.641V258.336H184.103V252.641H172.714V246.947H184.103V241.252H178.408V235.557H172.714V229.863H178.408V224.168H184.103V218.474H189.797V224.168H201.186V229.863H189.797V235.557H195.492V241.252H201.186V246.947H195.492V252.641H189.797ZM184.103 235.557V229.863H178.408V235.557H184.103ZM195.492 246.947V241.252H189.797V246.947H195.492Z" fill="#1C1C1C"/>
<g style="mix-blend-mode:color-dodge">
<path d="M300.131 219.489H317.215V225.184H311.52V253.656H317.215V259.351H300.131V253.656H305.825V225.184H300.131V219.489Z" fill="#1C1C1C"/>
<path d="M259.063 219.489H287.536V225.184H264.758V236.573H281.841V242.267H264.758V259.351H259.063V219.489Z" fill="#1C1C1C"/>
<path d="M237.594 253.656V242.267H220.567V253.656H237.594ZM237.594 236.459V225.184H220.567V236.459H237.594ZM214.873 259.351V219.489H237.651V225.184H243.346V236.573H237.651V242.267H243.346V253.656H237.651V259.351H214.873Z" fill="#1C1C1C"/>
<path d="M187.767 253.656V259.351H182.072V253.656H170.683V247.962H182.072V242.267H176.378V236.573H170.683V230.878H176.378V225.184H182.072V219.489H187.767V225.184H199.156V230.878H187.767V236.573H193.461V242.267H199.156V247.962H193.461V253.656H187.767ZM182.072 236.573V230.878H176.378V236.573H182.072ZM193.461 247.962V242.267H187.767V247.962H193.461Z" fill="#1C1C1C"/>
</g>
<g opacity="0.2">
<mask id="mask2_2033_2213" style="mask-type:alpha" maskUnits="userSpaceOnUse" x="172" y="218" width="148" height="41">
<path d="M302.161 218.474H319.245V224.168H313.55V252.641H319.245V258.336H302.161V252.641H307.856V224.168H302.161V218.474Z" fill="#1C1C1C"/>
<path d="M261.093 218.474H289.566V224.168H266.788V235.557H283.871V241.252H266.788V258.336H261.093V218.474Z" fill="#1C1C1C"/>
<path d="M239.625 252.641V241.252H222.598V252.641H239.625ZM239.625 235.444V224.168H222.598V235.444H239.625ZM216.903 258.336V218.474H239.682V224.168H245.376V235.557H239.682V241.252H245.376V252.641H239.682V258.336H216.903Z" fill="#1C1C1C"/>
<path d="M189.797 252.641V258.336H184.103V252.641H172.714V246.947H184.103V241.252H178.408V235.557H172.714V229.863H178.408V224.168H184.103V218.474H189.797V224.168H201.186V229.863H189.797V235.557H195.492V241.252H201.186V246.947H195.492V252.641H189.797ZM184.103 235.557V229.863H178.408V235.557H184.103ZM195.492 246.947V241.252H189.797V246.947H195.492Z" fill="#1C1C1C"/>
</mask>
<g mask="url(#mask2_2033_2213)">
<g filter="url(#filter15_f_2033_2213)">
<g filter="url(#filter16_b_2033_2213)">
<rect width="139.599" height="139.599" transform="matrix(-0.500001 -0.866025 -1 -1.41582e-06 359.483 350.523)" fill="#523A15"/>
</g>
<g filter="url(#filter17_b_2033_2213)">
<rect width="139.599" height="139.598" transform="matrix(-0.500001 -0.866025 -0.5 0.866025 429.28 229.631)" fill="#F98600" fill-opacity="0.8"/>
</g>
<g filter="url(#filter18_b_2033_2213)">
<rect width="139.599" height="139.598" transform="matrix(-1 -1.41582e-06 -0.5 0.866025 359.527 108.763)" fill="#FFAA29"/>
</g>
<g filter="url(#filter19_b_2033_2213)">
<rect width="139.599" height="139.599" transform="matrix(-0.500001 -0.866025 -1 -1.41582e-06 429.277 229.636)" fill="url(#paint11_linear_2033_2213)" fill-opacity="0.6"/>
</g>
<g filter="url(#filter20_b_2033_2213)">
<rect width="139.599" height="139.598" transform="matrix(-1 -1.41582e-06 -0.5 0.866025 429.277 229.636)" fill="url(#paint12_linear_2033_2213)" fill-opacity="0.6"/>
</g>
<g filter="url(#filter21_b_2033_2213)">
<rect width="139.599" height="139.598" transform="matrix(-0.500001 -0.866025 -0.5 0.866025 289.727 229.661)" fill="url(#paint13_linear_2033_2213)" fill-opacity="0.4"/>
</g>
</g>
</g>
</g>
</g>
<path d="M278.178 93.7751C278.178 92.9186 278.873 92.2243 279.729 92.2243C280.585 92.2243 281.28 92.9186 281.28 93.7751C281.28 94.6315 280.585 95.3259 279.729 95.3259C278.873 95.3259 278.178 94.6315 278.178 93.7751ZM267.807 93.7751L267.602 93.5694L267.687 93.4843H267.807V93.7751ZM279.729 94.0658H267.807V93.4843H279.729V94.0658ZM268.013 93.9807L261.325 100.668L260.914 100.257L267.602 93.5694L268.013 93.9807Z" fill="#E7D1A8"/>
<path d="M397.105 235.386C397.105 236.243 397.8 236.937 398.656 236.937C399.513 236.937 400.207 236.243 400.207 235.386C400.207 234.53 399.513 233.836 398.656 233.836C397.8 233.836 397.105 234.53 397.105 235.386ZM398.656 235.096H386.734V235.677H398.656V235.096Z" fill="#E7D1A8"/>
<path d="M403.992 233.386V228.432H406.728C407.838 228.432 408.459 228.969 408.459 229.946C408.459 230.902 407.838 231.488 406.728 231.488H404.928V233.386H403.992ZM406.679 229.269H404.928V230.651H406.679C407.224 230.651 407.496 230.372 407.496 229.96C407.496 229.513 407.231 229.269 406.679 229.269ZM410.902 233.386V228.432H413.672C414.754 228.432 415.368 228.941 415.368 229.911C415.368 230.581 415.019 231.055 414.391 231.251L415.556 233.386H414.565L413.442 231.349H411.837V233.386H410.902ZM413.595 229.262H411.837V230.532H413.595C414.133 230.532 414.405 230.337 414.405 229.911C414.405 229.457 414.133 229.262 413.595 229.262ZM420.271 233.47C418.785 233.47 417.675 232.395 417.675 230.909C417.675 229.423 418.799 228.348 420.271 228.348C421.744 228.348 422.867 229.423 422.867 230.909C422.867 232.388 421.744 233.47 420.271 233.47ZM420.271 232.619C421.262 232.619 421.911 231.858 421.911 230.909C421.911 229.967 421.262 229.199 420.271 229.199C419.287 229.199 418.638 229.967 418.638 230.909C418.638 231.865 419.28 232.619 420.271 232.619ZM424.764 229.269V228.432H429.635V229.269H427.667V233.386H426.732V229.269H424.764ZM434.13 233.47C432.644 233.47 431.534 232.395 431.534 230.909C431.534 229.423 432.658 228.348 434.13 228.348C435.603 228.348 436.726 229.423 436.726 230.909C436.726 232.388 435.603 233.47 434.13 233.47ZM434.13 232.619C435.121 232.619 435.77 231.858 435.77 230.909C435.77 229.967 435.121 229.199 434.13 229.199C433.146 229.199 432.497 229.967 432.497 230.909C432.497 231.865 433.139 232.619 434.13 232.619ZM441.459 233.47C440.008 233.47 438.961 232.36 438.961 230.909C438.961 229.457 440.008 228.348 441.459 228.348C442.988 228.348 443.637 229.374 443.769 229.953H442.806C442.667 229.688 442.248 229.206 441.459 229.206C440.524 229.206 439.931 229.981 439.931 230.909C439.931 231.837 440.524 232.612 441.459 232.612C442.325 232.612 442.688 232.109 442.82 231.858H443.769C443.651 232.381 443.051 233.47 441.459 233.47ZM448.521 233.47C447.034 233.47 445.925 232.395 445.925 230.909C445.925 229.423 447.048 228.348 448.521 228.348C449.993 228.348 451.117 229.423 451.117 230.909C451.117 232.388 449.993 233.47 448.521 233.47ZM448.521 232.619C449.512 232.619 450.161 231.858 450.161 230.909C450.161 229.967 449.512 229.199 448.521 229.199C447.537 229.199 446.888 229.967 446.888 230.909C446.888 231.865 447.53 232.619 448.521 232.619ZM457.616 232.542V233.386H453.617V228.432H454.552V232.542H457.616ZM461.789 228.404L459.933 233.386H459.333L461.189 228.404H461.789ZM403.992 241.386V236.432H408.005V237.241H404.928V238.372H406.763V239.188H404.928V240.556H408.284V241.386H403.992ZM412.658 241.47C411.206 241.47 410.159 240.36 410.159 238.909C410.159 237.457 411.206 236.348 412.658 236.348C414.186 236.348 414.835 237.374 414.968 237.953H414.005C413.865 237.688 413.446 237.206 412.658 237.206C411.723 237.206 411.129 237.981 411.129 238.909C411.129 239.837 411.723 240.612 412.658 240.612C413.523 240.612 413.886 240.109 414.019 239.858H414.968C414.849 240.381 414.249 241.47 412.658 241.47ZM419.719 241.47C418.233 241.47 417.123 240.395 417.123 238.909C417.123 237.423 418.247 236.348 419.719 236.348C421.192 236.348 422.315 237.423 422.315 238.909C422.315 240.388 421.192 241.47 419.719 241.47ZM419.719 240.619C420.71 240.619 421.359 239.858 421.359 238.909C421.359 237.967 420.71 237.199 419.719 237.199C418.735 237.199 418.086 237.967 418.086 238.909C418.086 239.865 418.728 240.619 419.719 240.619ZM426.574 237.136C425.897 237.136 425.541 237.367 425.541 237.73C425.541 238.065 425.834 238.26 426.35 238.323C426.658 238.351 426.888 238.379 427.223 238.413C428.214 238.511 428.974 238.888 428.974 239.935C428.974 240.828 428.27 241.477 426.867 241.477C425.248 241.477 424.627 240.661 424.431 239.949H425.429C425.562 240.263 425.96 240.682 426.867 240.682C427.621 240.682 428.018 240.395 428.018 239.998C428.018 239.523 427.669 239.37 427.16 239.307L426.281 239.216C425.29 239.118 424.592 238.651 424.592 237.757C424.592 236.871 425.394 236.341 426.574 236.341C428.13 236.341 428.702 237.088 428.856 237.716H427.9C427.76 237.464 427.383 237.136 426.574 237.136ZM433.761 239.293V241.386H432.798V239.3L430.571 236.432H431.765L433.307 238.448L434.842 236.432H435.917L433.761 239.293ZM439.745 237.136C439.068 237.136 438.712 237.367 438.712 237.73C438.712 238.065 439.005 238.26 439.521 238.323C439.828 238.351 440.059 238.379 440.394 238.413C441.385 238.511 442.145 238.888 442.145 239.935C442.145 240.828 441.44 241.477 440.038 241.477C438.419 241.477 437.798 240.661 437.602 239.949H438.6C438.733 240.263 439.13 240.682 440.038 240.682C440.791 240.682 441.189 240.395 441.189 239.998C441.189 239.523 440.84 239.37 440.331 239.307L439.451 239.216C438.461 239.118 437.763 238.651 437.763 237.757C437.763 236.871 438.565 236.341 439.745 236.341C441.301 236.341 441.873 237.088 442.027 237.716H441.071C440.931 237.464 440.554 237.136 439.745 237.136ZM444.088 237.269V236.432H448.959V237.269H446.991V241.386H446.056V237.269H444.088ZM451.3 241.386V236.432H455.313V237.241H452.235V238.372H454.07V239.188H452.235V240.556H455.592V241.386H451.3ZM459.346 236.432L460.825 240.039L462.312 236.432H463.659V241.386H462.751V237.325L461.091 241.407H460.455L458.808 237.36V241.386H457.943V236.432H459.346Z" fill="#E7D1A8"/>
<path d="M72.354 172.905V167.95H75.0059C76.0806 167.95 76.6668 168.46 76.6668 169.29C76.6668 169.82 76.2969 170.169 75.9201 170.295C76.3807 170.435 76.7784 170.839 76.7784 171.488C76.7784 172.354 76.1922 172.905 75.0477 172.905H72.354ZM74.9012 168.746H73.2752V169.96H74.9012C75.4246 169.96 75.7037 169.751 75.7037 169.353C75.7037 168.934 75.4316 168.746 74.9012 168.746ZM74.9361 170.749H73.2752V172.109H74.9361C75.5362 172.109 75.8224 171.865 75.8224 171.426C75.8224 170.986 75.5362 170.749 74.9361 170.749ZM79.2904 172.905V167.95H82.0609C83.1425 167.95 83.7567 168.46 83.7567 169.43C83.7567 170.1 83.4077 170.574 82.7797 170.77L83.9451 172.905H82.9541L81.8306 170.867H80.2255V172.905H79.2904ZM81.9841 168.781H80.2255V170.051H81.9841C82.5214 170.051 82.7936 169.855 82.7936 169.43C82.7936 168.976 82.5214 168.781 81.9841 168.781ZM88.5621 172.989C87.1105 172.989 86.0638 171.879 86.0638 170.428C86.0638 168.976 87.1105 167.866 88.5621 167.866C90.0904 167.866 90.7394 168.892 90.872 169.472H89.909C89.7694 169.206 89.3507 168.725 88.5621 168.725C87.627 168.725 87.0338 169.499 87.0338 170.428C87.0338 171.356 87.627 172.13 88.5621 172.13C89.4274 172.13 89.7903 171.628 89.9229 171.377H90.872C90.7534 171.9 90.1532 172.989 88.5621 172.989ZM96.7741 172.089V172.905H93.1103V172.305L94.8689 170.644C95.3295 170.204 95.5737 169.904 95.5737 169.458C95.5737 169.011 95.2946 168.697 94.8061 168.697C94.3246 168.697 94.0315 169.039 94.0315 169.52V169.814H93.1242V169.499C93.1242 168.578 93.7384 167.866 94.8061 167.866C95.8808 167.866 96.5089 168.522 96.5089 169.437C96.5089 170.211 96.0483 170.686 95.4342 171.258L94.5549 172.089H96.7741ZM100.863 167.859C101.979 167.859 102.684 168.55 102.684 169.695V171.16C102.684 172.333 101.965 172.996 100.863 172.996C99.7601 172.996 99.0413 172.333 99.0413 171.16V169.695C99.0413 168.55 99.7461 167.859 100.863 167.859ZM100.863 172.158C101.456 172.158 101.763 171.733 101.763 171.146V169.709C101.763 169.123 101.456 168.697 100.863 168.697C100.263 168.697 99.9625 169.123 99.9625 169.709V171.146C99.9625 171.733 100.263 172.158 100.863 172.158ZM61.8028 180.905V178.832H59.0811V180.905H58.146V175.95H59.0811V177.995H61.8028V175.95H62.7449V180.905H61.8028ZM67.8289 180.989C66.3425 180.989 65.2329 179.914 65.2329 178.428C65.2329 176.941 66.3564 175.866 67.8289 175.866C69.3014 175.866 70.425 176.941 70.425 178.428C70.425 179.907 69.3014 180.989 67.8289 180.989ZM67.8289 180.137C68.8199 180.137 69.4689 179.377 69.4689 178.428C69.4689 177.486 68.8199 176.718 67.8289 176.718C66.8449 176.718 66.1959 177.486 66.1959 178.428C66.1959 179.384 66.8379 180.137 67.8289 180.137ZM76.9238 180.061V180.905H72.9251V175.95H73.8602V180.061H76.9238ZM79.2549 180.905V175.95H81.2578C82.8419 175.95 83.9096 176.857 83.9096 178.428C83.9096 179.97 82.8489 180.905 81.2578 180.905H79.2549ZM81.2438 176.774H80.19V180.082H81.2438C82.2836 180.082 82.9536 179.446 82.9536 178.428C82.9536 177.374 82.2836 176.774 81.2438 176.774ZM86.4162 180.905V175.95H90.4289V176.76H87.3513V177.89H89.1867V178.707H87.3513V180.075H90.708V180.905H86.4162ZM93.0595 180.905V175.95H95.83C96.9117 175.95 97.5258 176.46 97.5258 177.43C97.5258 178.1 97.1769 178.574 96.5488 178.77L97.7142 180.905H96.7232L95.5997 178.867H93.9946V180.905H93.0595ZM95.7532 176.781H93.9946V178.051H95.7532C96.2906 178.051 96.5627 177.855 96.5627 177.43C96.5627 176.976 96.2906 176.781 95.7532 176.781ZM101.857 176.655C101.18 176.655 100.824 176.885 100.824 177.248C100.824 177.583 101.117 177.779 101.633 177.841C101.94 177.869 102.171 177.897 102.506 177.932C103.497 178.03 104.257 178.407 104.257 179.453C104.257 180.347 103.552 180.996 102.15 180.996C100.531 180.996 99.9096 180.179 99.7142 179.467H100.712C100.845 179.781 101.243 180.2 102.15 180.2C102.903 180.2 103.301 179.914 103.301 179.516C103.301 179.042 102.952 178.888 102.443 178.825L101.564 178.735C100.573 178.637 99.8747 178.169 99.8747 177.276C99.8747 176.39 100.677 175.859 101.857 175.859C103.413 175.859 103.985 176.606 104.139 177.234H103.183C103.043 176.983 102.666 176.655 101.857 176.655Z" fill="#E7D1A8"/>
<path d="M107.784 174.905C107.784 175.762 108.478 176.456 109.334 176.456C110.191 176.456 110.885 175.762 110.885 174.905C110.885 174.049 110.191 173.354 109.334 173.354C108.478 173.354 107.784 174.049 107.784 174.905ZM121.256 174.614H109.334V175.196H121.256V174.614Z" fill="#E7D1A8"/>
<path d="M132.984 353.292C132.984 354.149 132.29 354.843 131.434 354.843C130.577 354.843 129.883 354.149 129.883 353.292C129.883 352.436 130.577 351.741 131.434 351.741C132.29 351.741 132.984 352.436 132.984 353.292ZM143.355 353.292L143.561 353.498L143.476 353.583H143.355V353.292ZM131.434 353.001H143.355V353.583H131.434V353.001ZM143.15 353.086L149.838 346.399L150.249 346.81L143.561 353.498L143.15 353.086Z" fill="#E7D1A8"/>
<path d="M95.5093 355.45C94.0229 355.45 92.9133 354.376 92.9133 352.889C92.9133 351.403 94.0368 350.328 95.5093 350.328C96.9818 350.328 98.1053 351.403 98.1053 352.889C98.1053 354.369 96.9818 355.45 95.5093 355.45ZM95.5093 354.599C96.5003 354.599 97.1493 353.838 97.1493 352.889C97.1493 351.947 96.5003 351.179 95.5093 351.179C94.5253 351.179 93.8763 351.947 93.8763 352.889C93.8763 353.845 94.5183 354.599 95.5093 354.599ZM100.605 355.367V350.412H103.376C104.458 350.412 105.072 350.921 105.072 351.891C105.072 352.561 104.723 353.036 104.095 353.231L105.26 355.367H104.269L103.146 353.329H101.541V355.367H100.605ZM103.299 351.242H101.541V352.512H103.299C103.837 352.512 104.109 352.317 104.109 351.891C104.109 351.438 103.837 351.242 103.299 351.242ZM107.644 355.367V350.412H109.647C111.231 350.412 112.299 351.319 112.299 352.889C112.299 354.431 111.238 355.367 109.647 355.367H107.644ZM109.633 351.235H108.579V354.543H109.633C110.673 354.543 111.343 353.908 111.343 352.889C111.343 351.835 110.673 351.235 109.633 351.235ZM114.812 355.367V350.412H115.754V355.367H114.812ZM123.173 350.412V355.388H122.44L119.432 351.591V355.367H118.525V350.412H119.614L122.272 353.81V350.412H123.173ZM129.777 355.367L129.323 354.348H126.825L126.371 355.367H125.429L127.655 350.391H128.541L130.775 355.367H129.777ZM127.181 353.538H128.967L128.074 351.535L127.181 353.538ZM137.03 354.522V355.367H133.031V350.412H133.967V354.522H137.03ZM94.4023 363.367V361.294H91.6806V363.367H90.7455V358.412H91.6806V360.456H94.4023V358.412H95.3444V363.367H94.4023ZM100.428 363.45C98.942 363.45 97.8324 362.376 97.8324 360.889C97.8324 359.403 98.9559 358.328 100.428 358.328C101.901 358.328 103.024 359.403 103.024 360.889C103.024 362.369 101.901 363.45 100.428 363.45ZM100.428 362.599C101.419 362.599 102.068 361.838 102.068 360.889C102.068 359.947 101.419 359.179 100.428 359.179C99.4444 359.179 98.7954 359.947 98.7954 360.889C98.7954 361.845 99.4374 362.599 100.428 362.599ZM109.523 362.522V363.367H105.525V358.412H106.46V362.522H109.523ZM111.854 363.367V358.412H113.857C115.441 358.412 116.509 359.319 116.509 360.889C116.509 362.431 115.448 363.367 113.857 363.367H111.854ZM113.843 359.235H112.79V362.543H113.843C114.883 362.543 115.553 361.908 115.553 360.889C115.553 359.835 114.883 359.235 113.843 359.235ZM119.016 363.367V358.412H123.028V359.221H119.951V360.352H121.786V361.168H119.951V362.536H123.307V363.367H119.016ZM125.659 363.367V358.412H128.429C129.511 358.412 130.125 358.921 130.125 359.891C130.125 360.561 129.776 361.036 129.148 361.231L130.314 363.367H129.323L128.199 361.329H126.594V363.367H125.659ZM128.353 359.242H126.594V360.512H128.353C128.89 360.512 129.162 360.317 129.162 359.891C129.162 359.438 128.89 359.242 128.353 359.242ZM134.456 359.117C133.779 359.117 133.423 359.347 133.423 359.71C133.423 360.045 133.716 360.24 134.233 360.303C134.54 360.331 134.77 360.359 135.105 360.394C136.096 360.491 136.857 360.868 136.857 361.915C136.857 362.808 136.152 363.457 134.749 363.457C133.13 363.457 132.509 362.641 132.314 361.929H133.312C133.444 362.243 133.842 362.662 134.749 362.662C135.503 362.662 135.901 362.376 135.901 361.978C135.901 361.503 135.552 361.35 135.042 361.287L134.163 361.196C133.172 361.099 132.474 360.631 132.474 359.738C132.474 358.851 133.277 358.321 134.456 358.321C136.012 358.321 136.585 359.068 136.738 359.696H135.782C135.643 359.445 135.266 359.117 134.456 359.117Z" fill="#E7D1A8"/>
<path d="M190.558 99.0089C190.558 98.1525 189.864 97.4581 189.007 97.4581C188.151 97.4581 187.456 98.1525 187.456 99.0089C187.456 99.8654 188.151 100.56 189.007 100.56C189.864 100.56 190.558 99.8654 190.558 99.0089ZM200.929 99.0089L201.134 98.8033L201.049 98.7182H200.929V99.0089ZM189.007 99.2997H200.929V98.7182H189.007V99.2997ZM200.723 99.2146L207.411 105.902L207.822 105.491L201.134 98.8033L200.723 99.2146Z" fill="#E7D1A8"/>
<path d="M169.389 100.793L168.935 99.7738H166.437L165.983 100.793H165.041L167.267 95.817H168.153L170.387 100.793H169.389ZM166.793 98.9643H168.579L167.686 96.9615L166.793 98.9643ZM172.643 100.793V95.8379H175.414C176.496 95.8379 177.11 96.3473 177.11 97.3174C177.11 97.9873 176.761 98.4619 176.133 98.6573L177.298 100.793H176.307L175.184 98.755H173.579V100.793H172.643ZM175.337 96.6684H173.579V97.9385H175.337C175.875 97.9385 176.147 97.7431 176.147 97.3174C176.147 96.8638 175.875 96.6684 175.337 96.6684ZM179.222 96.6753V95.8379H184.093V96.6753H182.125V100.793H181.19V96.6753H179.222Z" fill="#E7D1A8"/>
<path d="M289.699 94.9168C289.371 95.2169 288.659 95.6496 287.515 95.6496C285.875 95.6496 284.8 94.5958 284.8 93.0675C284.8 91.588 285.861 90.5133 287.348 90.5133C288.806 90.5133 289.42 91.3438 289.581 91.8741H288.59C288.443 91.6857 288.08 91.3438 287.348 91.3438C286.37 91.3507 285.756 92.0905 285.756 93.0675C285.756 94.1003 286.44 94.8191 287.522 94.8191C288.164 94.8191 288.597 94.6516 288.799 94.512V93.5001H287.054V92.7046H289.699V94.9168ZM292.343 95.5588V90.604H293.285V95.5588H292.343ZM300.815 90.604L298.693 95.5728H297.758L295.574 90.604H296.649L298.247 94.4004L299.852 90.604H300.815ZM303.094 95.5588V90.604H307.107V91.4135H304.029V92.5441H305.865V93.3606H304.029V94.7284H307.386V95.5588H303.094ZM313.61 95.5588L313.156 94.54H310.658L310.204 95.5588H309.262L311.488 90.5831H312.374L314.608 95.5588H313.61ZM311.014 93.7304H312.8L311.907 91.7276L311.014 93.7304ZM321.006 95.5798L319.75 91.9788L318.487 95.5798H317.677L315.995 90.604H317.014L318.152 94.1561L319.366 90.5831H320.196L321.418 94.1631L322.555 90.604H323.476L321.843 95.5798H321.006ZM329.207 95.5588L328.753 94.54H326.255L325.801 95.5588H324.859L327.085 90.5831H327.971L330.205 95.5588H329.207ZM326.611 93.7304H328.397L327.504 91.7276L326.611 93.7304ZM334.362 93.4653V95.5588H333.398V93.4722L331.172 90.604H332.366L333.908 92.6208L335.443 90.604H336.518L334.362 93.4653ZM340.345 91.3089C339.668 91.3089 339.313 91.5392 339.313 91.902C339.313 92.237 339.606 92.4324 340.122 92.4952C340.429 92.5231 340.659 92.5511 340.994 92.5859C341.985 92.6837 342.746 93.0605 342.746 94.1073C342.746 95.0005 342.041 95.6496 340.639 95.6496C339.019 95.6496 338.398 94.8331 338.203 94.1212H339.201C339.334 94.4353 339.731 94.854 340.639 94.854C341.392 94.854 341.79 94.5679 341.79 94.1701C341.79 93.6955 341.441 93.542 340.932 93.4792L340.052 93.3885C339.061 93.2908 338.363 92.8232 338.363 91.93C338.363 91.0437 339.166 90.5133 340.345 90.5133C341.902 90.5133 342.474 91.26 342.627 91.8881H341.671C341.532 91.6369 341.155 91.3089 340.345 91.3089Z" fill="#E7D1A8"/>
<path d="M144.615 121.689C144.615 120.833 143.921 120.139 143.065 120.139C142.208 120.139 141.514 120.833 141.514 121.689C141.514 122.546 142.208 123.24 143.065 123.24C143.921 123.24 144.615 122.546 144.615 121.689ZM154.986 121.689L155.192 121.484L155.107 121.399H154.986V121.689ZM143.065 121.98H154.986V121.399H143.065V121.98ZM154.781 121.895L161.469 128.583L161.88 128.172L155.192 121.484L154.781 121.895Z" fill="#E7D1A8"/>
<path d="M80.5577 118.518L82.0372 122.126L83.5236 118.518H84.8705V123.473H83.9633V119.412L82.3023 123.494H81.6673L80.0203 119.446V123.473H79.155V118.518H80.5577ZM91.4698 123.473L91.0162 122.454H88.5178L88.0642 123.473H87.1221L89.3483 118.497H90.2346L92.4677 123.473H91.4698ZM88.8737 121.645H90.6603L89.767 119.642L88.8737 121.645ZM94.7247 123.473V118.518H97.4952C98.5768 118.518 99.191 119.028 99.191 119.998C99.191 120.668 98.842 121.142 98.214 121.338L99.3794 123.473H98.3884L97.2649 121.435H95.6598V123.473H94.7247ZM97.4184 119.349H95.6598V120.619H97.4184C97.9557 120.619 98.2279 120.423 98.2279 119.998C98.2279 119.544 97.9557 119.349 97.4184 119.349ZM105.322 123.473L102.698 121.205V123.473H101.763V118.518H102.698V120.745L105.253 118.518H106.509L103.738 120.926L106.627 123.473H105.322ZM108.727 123.473V118.518H112.74V119.328H109.662V120.458H111.497V121.275H109.662V122.643H113.019V123.473H108.727ZM114.876 119.356V118.518H119.747V119.356H117.779V123.473H116.844V119.356H114.876ZM122.095 123.473V118.518H123.038V123.473H122.095ZM130.456 118.518V123.494H129.723L126.715 119.698V123.473H125.808V118.518H126.897L129.556 121.917V118.518H130.456ZM137.855 122.831C137.527 123.131 136.815 123.564 135.671 123.564C134.031 123.564 132.956 122.51 132.956 120.982C132.956 119.502 134.017 118.428 135.504 118.428C136.962 118.428 137.576 119.258 137.737 119.788H136.746C136.599 119.6 136.236 119.258 135.504 119.258C134.527 119.265 133.912 120.005 133.912 120.982C133.912 122.015 134.596 122.733 135.678 122.733C136.32 122.733 136.753 122.566 136.955 122.426V121.414H135.21V120.619H137.855V122.831Z" fill="#E7D1A8"/>
<defs>
<filter id="filter0_dddddd_2033_2213" x="-40.2721" y="-51.4697" width="574.868" height="574.868" filterUnits="userSpaceOnUse" color-interpolation-filters="sRGB">
<feFlood flood-opacity="0" result="BackgroundImageFix"/>
<feColorMatrix in="SourceAlpha" type="matrix" values="0 0 0 0 0 0 0 0 0 0 0 0 0 0 0 0 0 0 127 0" result="hardAlpha"/>
<feOffset/>
<feGaussianBlur stdDeviation="1.89873"/>
<feColorMatrix type="matrix" values="0 0 0 0 0.988235 0 0 0 0 0.698039 0 0 0 0 0.2 0 0 0 1 0"/>
<feBlend mode="normal" in2="BackgroundImageFix" result="effect1_dropShadow_2033_2213"/>
<feColorMatrix in="SourceAlpha" type="matrix" values="0 0 0 0 0 0 0 0 0 0 0 0 0 0 0 0 0 0 127 0" result="hardAlpha"/>
<feOffset/>
<feGaussianBlur stdDeviation="3.79745"/>
<feColorMatrix type="matrix" values="0 0 0 0 0.988235 0 0 0 0 0.698039 0 0 0 0 0.2 0 0 0 1 0"/>
<feBlend mode="normal" in2="effect1_dropShadow_2033_2213" result="effect2_dropShadow_2033_2213"/>
<feColorMatrix in="SourceAlpha" type="matrix" values="0 0 0 0 0 0 0 0 0 0 0 0 0 0 0 0 0 0 127 0" result="hardAlpha"/>
<feOffset/>
<feGaussianBlur stdDeviation="13.2911"/>
<feColorMatrix type="matrix" values="0 0 0 0 0.988235 0 0 0 0 0.698039 0 0 0 0 0.2 0 0 0 1 0"/>
<feBlend mode="normal" in2="effect2_dropShadow_2033_2213" result="effect3_dropShadow_2033_2213"/>
<feColorMatrix in="SourceAlpha" type="matrix" values="0 0 0 0 0 0 0 0 0 0 0 0 0 0 0 0 0 0 127 0" result="hardAlpha"/>
<feOffset/>
<feGaussianBlur stdDeviation="26.5822"/>
<feColorMatrix type="matrix" values="0 0 0 0 0.988235 0 0 0 0 0.698039 0 0 0 0 0.2 0 0 0 1 0"/>
<feBlend mode="normal" in2="effect3_dropShadow_2033_2213" result="effect4_dropShadow_2033_2213"/>
<feColorMatrix in="SourceAlpha" type="matrix" values="0 0 0 0 0 0 0 0 0 0 0 0 0 0 0 0 0 0 127 0" result="hardAlpha"/>
<feOffset/>
<feGaussianBlur stdDeviation="45.5695"/>
<feColorMatrix type="matrix" values="0 0 0 0 0.988235 0 0 0 0 0.698039 0 0 0 0 0.2 0 0 0 1 0"/>
<feBlend mode="normal" in2="effect4_dropShadow_2033_2213" result="effect5_dropShadow_2033_2213"/>
<feColorMatrix in="SourceAlpha" type="matrix" values="0 0 0 0 0 0 0 0 0 0 0 0 0 0 0 0 0 0 127 0" result="hardAlpha"/>
<feOffset/>
<feGaussianBlur stdDeviation="79.7465"/>
<feColorMatrix type="matrix" values="0 0 0 0 0.988235 0 0 0 0 0.698039 0 0 0 0 0.2 0 0 0 1 0"/>
<feBlend mode="normal" in2="effect5_dropShadow_2033_2213" result="effect6_dropShadow_2033_2213"/>
<feBlend mode="normal" in="SourceGraphic" in2="effect6_dropShadow_2033_2213" result="shape"/>
</filter>
<filter id="filter1_f_2033_2213" x="107.058" y="96.0044" width="290.524" height="327.935" filterUnits="userSpaceOnUse" color-interpolation-filters="sRGB">
<feFlood flood-opacity="0" result="BackgroundImageFix"/>
<feBlend mode="normal" in="SourceGraphic" in2="BackgroundImageFix" result="shape"/>
<feGaussianBlur stdDeviation="12.183" result="effect1_foregroundBlur_2033_2213"/>
</filter>
<filter id="filter2_b_2033_2213" x="116.571" y="245.113" width="271.497" height="169.303" filterUnits="userSpaceOnUse" color-interpolation-filters="sRGB">
<feFlood flood-opacity="0" result="BackgroundImageFix"/>
<feGaussianBlur in="BackgroundImageFix" stdDeviation="7.42621"/>
<feComposite in2="SourceAlpha" operator="in" result="effect1_backgroundBlur_2033_2213"/>
<feBlend mode="normal" in="SourceGraphic" in2="effect1_backgroundBlur_2033_2213" result="shape"/>
</filter>
<filter id="filter3_b_2033_2213" x="237.468" y="105.518" width="150.601" height="239.103" filterUnits="userSpaceOnUse" color-interpolation-filters="sRGB">
<feFlood flood-opacity="0" result="BackgroundImageFix"/>
<feGaussianBlur in="BackgroundImageFix" stdDeviation="7.4262"/>
<feComposite in2="SourceAlpha" operator="in" result="effect1_backgroundBlur_2033_2213"/>
<feBlend mode="normal" in="SourceGraphic" in2="effect1_backgroundBlur_2033_2213" result="shape"/>
</filter>
<filter id="filter4_b_2033_2213" x="116.626" y="105.519" width="150.601" height="239.103" filterUnits="userSpaceOnUse" color-interpolation-filters="sRGB">
<feFlood flood-opacity="0" result="BackgroundImageFix"/>
<feGaussianBlur in="BackgroundImageFix" stdDeviation="7.4262"/>
<feComposite in2="SourceAlpha" operator="in" result="effect1_backgroundBlur_2033_2213"/>
<feBlend mode="normal" in="SourceGraphic" in2="effect1_backgroundBlur_2033_2213" result="shape"/>
</filter>
<filter id="filter5_b_2033_2213" x="116.571" y="105.524" width="271.497" height="169.303" filterUnits="userSpaceOnUse" color-interpolation-filters="sRGB">
<feFlood flood-opacity="0" result="BackgroundImageFix"/>
<feGaussianBlur in="BackgroundImageFix" stdDeviation="7.42621"/>
<feComposite in2="SourceAlpha" operator="in" result="effect1_backgroundBlur_2033_2213"/>
<feBlend mode="normal" in="SourceGraphic" in2="effect1_backgroundBlur_2033_2213" result="shape"/>
</filter>
<filter id="filter6_b_2033_2213" x="237.468" y="175.323" width="150.601" height="239.103" filterUnits="userSpaceOnUse" color-interpolation-filters="sRGB">
<feFlood flood-opacity="0" result="BackgroundImageFix"/>
<feGaussianBlur in="BackgroundImageFix" stdDeviation="7.4262"/>
<feComposite in2="SourceAlpha" operator="in" result="effect1_backgroundBlur_2033_2213"/>
<feBlend mode="normal" in="SourceGraphic" in2="effect1_backgroundBlur_2033_2213" result="shape"/>
</filter>
<filter id="filter7_b_2033_2213" x="116.626" y="175.32" width="150.601" height="239.103" filterUnits="userSpaceOnUse" color-interpolation-filters="sRGB">
<feFlood flood-opacity="0" result="BackgroundImageFix"/>
<feGaussianBlur in="BackgroundImageFix" stdDeviation="7.4262"/>
<feComposite in2="SourceAlpha" operator="in" result="effect1_backgroundBlur_2033_2213"/>
<feBlend mode="normal" in="SourceGraphic" in2="effect1_backgroundBlur_2033_2213" result="shape"/>
</filter>
<filter id="filter8_f_2033_2213" x="88.3586" y="114.707" width="327.928" height="290.554" filterUnits="userSpaceOnUse" color-interpolation-filters="sRGB">
<feFlood flood-opacity="0" result="BackgroundImageFix"/>
<feBlend mode="normal" in="SourceGraphic" in2="BackgroundImageFix" result="shape"/>
<feGaussianBlur stdDeviation="12.183" result="effect1_foregroundBlur_2033_2213"/>
</filter>
<filter id="filter9_b_2033_2213" x="97.8722" y="245.113" width="239.103" height="150.601" filterUnits="userSpaceOnUse" color-interpolation-filters="sRGB">
<feFlood flood-opacity="0" result="BackgroundImageFix"/>
<feGaussianBlur in="BackgroundImageFix" stdDeviation="7.42621"/>
<feComposite in2="SourceAlpha" operator="in" result="effect1_backgroundBlur_2033_2213"/>
<feBlend mode="normal" in="SourceGraphic" in2="effect1_backgroundBlur_2033_2213" result="shape"/>
</filter>
<filter id="filter10_b_2033_2213" x="237.469" y="124.221" width="169.304" height="271.497" filterUnits="userSpaceOnUse" color-interpolation-filters="sRGB">
<feFlood flood-opacity="0" result="BackgroundImageFix"/>
<feGaussianBlur in="BackgroundImageFix" stdDeviation="7.4262"/>
<feComposite in2="SourceAlpha" operator="in" result="effect1_backgroundBlur_2033_2213"/>
<feBlend mode="normal" in="SourceGraphic" in2="effect1_backgroundBlur_2033_2213" result="shape"/>
</filter>
<filter id="filter11_b_2033_2213" x="97.9174" y="124.249" width="239.103" height="150.601" filterUnits="userSpaceOnUse" color-interpolation-filters="sRGB">
<feFlood flood-opacity="0" result="BackgroundImageFix"/>
<feGaussianBlur in="BackgroundImageFix" stdDeviation="7.4262"/>
<feComposite in2="SourceAlpha" operator="in" result="effect1_backgroundBlur_2033_2213"/>
<feBlend mode="normal" in="SourceGraphic" in2="effect1_backgroundBlur_2033_2213" result="shape"/>
</filter>
<filter id="filter12_b_2033_2213" x="167.667" y="124.225" width="239.103" height="150.601" filterUnits="userSpaceOnUse" color-interpolation-filters="sRGB">
<feFlood flood-opacity="0" result="BackgroundImageFix"/>
<feGaussianBlur in="BackgroundImageFix" stdDeviation="7.42621"/>
<feComposite in2="SourceAlpha" operator="in" result="effect1_backgroundBlur_2033_2213"/>
<feBlend mode="normal" in="SourceGraphic" in2="effect1_backgroundBlur_2033_2213" result="shape"/>
</filter>
<filter id="filter13_b_2033_2213" x="167.667" y="245.121" width="239.103" height="150.601" filterUnits="userSpaceOnUse" color-interpolation-filters="sRGB">
<feFlood flood-opacity="0" result="BackgroundImageFix"/>
<feGaussianBlur in="BackgroundImageFix" stdDeviation="7.4262"/>
<feComposite in2="SourceAlpha" operator="in" result="effect1_backgroundBlur_2033_2213"/>
<feBlend mode="normal" in="SourceGraphic" in2="effect1_backgroundBlur_2033_2213" result="shape"/>
</filter>
<filter id="filter14_b_2033_2213" x="97.9162" y="124.251" width="169.304" height="271.497" filterUnits="userSpaceOnUse" color-interpolation-filters="sRGB">
<feFlood flood-opacity="0" result="BackgroundImageFix"/>
<feGaussianBlur in="BackgroundImageFix" stdDeviation="7.4262"/>
<feComposite in2="SourceAlpha" operator="in" result="effect1_backgroundBlur_2033_2213"/>
<feBlend mode="normal" in="SourceGraphic" in2="effect1_backgroundBlur_2033_2213" result="shape"/>
</filter>
<filter id="filter15_f_2033_2213" x="125.718" y="84.3689" width="327.928" height="290.554" filterUnits="userSpaceOnUse" color-interpolation-filters="sRGB">
<feFlood flood-opacity="0" result="BackgroundImageFix"/>
<feBlend mode="normal" in="SourceGraphic" in2="BackgroundImageFix" result="shape"/>
<feGaussianBlur stdDeviation="12.183" result="effect1_foregroundBlur_2033_2213"/>
</filter>
<filter id="filter16_b_2033_2213" x="135.232" y="214.775" width="239.103" height="150.601" filterUnits="userSpaceOnUse" color-interpolation-filters="sRGB">
<feFlood flood-opacity="0" result="BackgroundImageFix"/>
<feGaussianBlur in="BackgroundImageFix" stdDeviation="7.42621"/>
<feComposite in2="SourceAlpha" operator="in" result="effect1_backgroundBlur_2033_2213"/>
<feBlend mode="normal" in="SourceGraphic" in2="effect1_backgroundBlur_2033_2213" result="shape"/>
</filter>
<filter id="filter17_b_2033_2213" x="274.829" y="93.8825" width="169.304" height="271.496" filterUnits="userSpaceOnUse" color-interpolation-filters="sRGB">
<feFlood flood-opacity="0" result="BackgroundImageFix"/>
<feGaussianBlur in="BackgroundImageFix" stdDeviation="7.4262"/>
<feComposite in2="SourceAlpha" operator="in" result="effect1_backgroundBlur_2033_2213"/>
<feBlend mode="normal" in="SourceGraphic" in2="effect1_backgroundBlur_2033_2213" result="shape"/>
</filter>
<filter id="filter18_b_2033_2213" x="135.277" y="93.9105" width="239.103" height="150.601" filterUnits="userSpaceOnUse" color-interpolation-filters="sRGB">
<feFlood flood-opacity="0" result="BackgroundImageFix"/>
<feGaussianBlur in="BackgroundImageFix" stdDeviation="7.4262"/>
<feComposite in2="SourceAlpha" operator="in" result="effect1_backgroundBlur_2033_2213"/>
<feBlend mode="normal" in="SourceGraphic" in2="effect1_backgroundBlur_2033_2213" result="shape"/>
</filter>
<filter id="filter19_b_2033_2213" x="205.026" y="93.8873" width="239.103" height="150.601" filterUnits="userSpaceOnUse" color-interpolation-filters="sRGB">
<feFlood flood-opacity="0" result="BackgroundImageFix"/>
<feGaussianBlur in="BackgroundImageFix" stdDeviation="7.42621"/>
<feComposite in2="SourceAlpha" operator="in" result="effect1_backgroundBlur_2033_2213"/>
<feBlend mode="normal" in="SourceGraphic" in2="effect1_backgroundBlur_2033_2213" result="shape"/>
</filter>
<filter id="filter20_b_2033_2213" x="205.027" y="214.783" width="239.103" height="150.601" filterUnits="userSpaceOnUse" color-interpolation-filters="sRGB">
<feFlood flood-opacity="0" result="BackgroundImageFix"/>
<feGaussianBlur in="BackgroundImageFix" stdDeviation="7.4262"/>
<feComposite in2="SourceAlpha" operator="in" result="effect1_backgroundBlur_2033_2213"/>
<feBlend mode="normal" in="SourceGraphic" in2="effect1_backgroundBlur_2033_2213" result="shape"/>
</filter>
<filter id="filter21_b_2033_2213" x="135.276" y="93.9125" width="169.304" height="271.496" filterUnits="userSpaceOnUse" color-interpolation-filters="sRGB">
<feFlood flood-opacity="0" result="BackgroundImageFix"/>
<feGaussianBlur in="BackgroundImageFix" stdDeviation="7.4262"/>
<feComposite in2="SourceAlpha" operator="in" result="effect1_backgroundBlur_2033_2213"/>
<feBlend mode="normal" in="SourceGraphic" in2="effect1_backgroundBlur_2033_2213" result="shape"/>
</filter>
<linearGradient id="paint0_linear_2033_2213" x1="195.384" y1="300.069" x2="314.169" y2="157.427" gradientUnits="userSpaceOnUse">
<stop stop-color="#B87526"/>
<stop offset="1" stop-color="#FFC368"/>
</linearGradient>
<linearGradient id="paint1_linear_2033_2213" x1="195.384" y1="300.069" x2="314.169" y2="157.427" gradientUnits="userSpaceOnUse">
<stop stop-color="#B87526"/>
<stop offset="1" stop-color="#FFC368"/>
</linearGradient>
<linearGradient id="paint2_linear_2033_2213" x1="139.567" y1="-0.0322734" x2="-6.57596" y2="-0.0322817" gradientUnits="userSpaceOnUse">
<stop stop-color="white"/>
<stop offset="1" stop-color="white" stop-opacity="0"/>
</linearGradient>
<linearGradient id="paint3_linear_2033_2213" x1="7.55601" y1="138.874" x2="147.244" y2="130.686" gradientUnits="userSpaceOnUse">
<stop stop-color="white"/>
<stop offset="1" stop-color="white" stop-opacity="0"/>
</linearGradient>
<linearGradient id="paint4_linear_2033_2213" x1="139.534" y1="142.62" x2="-14.3929" y2="135.727" gradientUnits="userSpaceOnUse">
<stop stop-color="white"/>
<stop offset="1" stop-color="white" stop-opacity="0"/>
</linearGradient>
<linearGradient id="paint5_linear_2033_2213" x1="358.991" y1="508.13" x2="473.247" y2="371.441" gradientUnits="userSpaceOnUse">
<stop stop-color="#B87526"/>
<stop offset="1" stop-color="#FFC368"/>
</linearGradient>
<linearGradient id="paint6_linear_2033_2213" x1="225.619" y1="503.319" x2="337.854" y2="369.048" gradientUnits="userSpaceOnUse">
<stop stop-color="#B87526"/>
<stop offset="1" stop-color="#FFC368"/>
</linearGradient>
<linearGradient id="paint7_linear_2033_2213" x1="139.567" y1="-0.0322734" x2="-6.57596" y2="-0.0322817" gradientUnits="userSpaceOnUse">
<stop stop-color="white"/>
<stop offset="1" stop-color="white" stop-opacity="0"/>
</linearGradient>
<linearGradient id="paint8_linear_2033_2213" x1="7.55601" y1="138.874" x2="147.244" y2="130.686" gradientUnits="userSpaceOnUse">
<stop stop-color="white"/>
<stop offset="1" stop-color="white" stop-opacity="0"/>
</linearGradient>
<linearGradient id="paint9_linear_2033_2213" x1="139.534" y1="142.62" x2="-14.3929" y2="135.727" gradientUnits="userSpaceOnUse">
<stop stop-color="white"/>
<stop offset="1" stop-color="white" stop-opacity="0"/>
</linearGradient>
<linearGradient id="paint10_linear_2033_2213" x1="225.619" y1="503.319" x2="337.854" y2="369.047" gradientUnits="userSpaceOnUse">
<stop stop-color="#B87526"/>
<stop offset="1" stop-color="#FFC368"/>
</linearGradient>
<linearGradient id="paint11_linear_2033_2213" x1="139.567" y1="-0.0322734" x2="-6.57596" y2="-0.0322817" gradientUnits="userSpaceOnUse">
<stop stop-color="white"/>
<stop offset="1" stop-color="white" stop-opacity="0"/>
</linearGradient>
<linearGradient id="paint12_linear_2033_2213" x1="7.55601" y1="138.874" x2="147.244" y2="130.686" gradientUnits="userSpaceOnUse">
<stop stop-color="white"/>
<stop offset="1" stop-color="white" stop-opacity="0"/>
</linearGradient>
<linearGradient id="paint13_linear_2033_2213" x1="139.534" y1="142.62" x2="-14.3929" y2="135.727" gradientUnits="userSpaceOnUse">
<stop stop-color="white"/>
<stop offset="1" stop-color="white" stop-opacity="0"/>
</linearGradient>
<clipPath id="clip0_2033_2213">
<rect width="255.882" height="255.882" fill="white" transform="translate(119.221 108.023)"/>
</clipPath>
<clipPath id="clip1_2033_2213">
<rect width="255.882" height="255.882" fill="white" transform="translate(119.221 108.023)"/>
</clipPath>
</defs>
</svg>
