<svg width="40" height="40" viewBox="0 0 40 40" fill="none" xmlns="http://www.w3.org/2000/svg">
<rect y="0.24707" width="39.5054" height="39.5054" fill="#D18D0E"/>
<rect x="4.93811" y="5.18604" width="5.92585" height="5.92585" fill="#1E1E1E"/>
<rect x="10.8639" y="5.18604" width="5.92585" height="5.92585" fill="#1E1E1E"/>
<rect x="16.79" y="5.18604" width="5.92585" height="5.92585" fill="#1E1E1E"/>
<rect x="28.6417" y="5.18604" width="5.92585" height="5.92585" fill="#1E1E1E"/>
<rect x="4.93835" y="11.1123" width="5.92585" height="5.92585" fill="#1E1E1E"/>
<rect x="4.93835" y="17.0371" width="5.92585" height="5.92585" fill="#1E1E1E"/>
<rect x="10.8639" y="17.0371" width="5.92585" height="5.92585" fill="#1E1E1E"/>
<rect x="22.7164" y="17.0371" width="5.92585" height="5.92585" fill="#1E1E1E"/>
<rect x="28.6417" y="17.0371" width="5.92585" height="5.92585" fill="#1E1E1E"/>
<rect x="28.6417" y="22.9634" width="5.92585" height="5.92585" fill="#1E1E1E"/>
<rect x="28.6417" y="28.8896" width="5.92585" height="5.92585" fill="#1E1E1E"/>
<rect x="22.7164" y="28.8896" width="5.92585" height="5.92585" fill="#1E1E1E"/>
<rect x="16.79" y="28.8896" width="5.92585" height="5.92585" fill="#1E1E1E"/>
<rect x="4.93835" y="28.8896" width="5.92585" height="5.92585" fill="#1E1E1E"/>
</svg>
